<?xml version="1.0" encoding="utf-8"?>
<!-- Generator: Adobe Illustrator 25.0.0, SVG Export Plug-In . SVG Version: 6.00 Build 0)  -->
<svg version="1.1" id="Layer_1" xmlns="http://www.w3.org/2000/svg" xmlns:xlink="http://www.w3.org/1999/xlink" width="314px" height="185px" x="0px" y="0px"
	 viewBox="0 0 710.71 710.71" style="enable-background:new 0 0 710.71 710.71;" xml:space="preserve">
<style type="text/css">
	.st0{fill:#040504;}
	.st1{fill:#FFFFFF;}
</style>
<g>
	<path class="st0" d="M710.71,355.35c0,10.21-14.32,19.73-15.22,29.74c-0.9,10.21,11.61,22.13,9.91,31.94
		c-1.8,10.11-17.52,17.02-20.13,26.73c-2.7,9.81,7.51,23.73,4.11,33.14c-3.5,9.61-20.23,13.62-24.53,22.73
		c-4.31,9.21,3.4,24.73-1.7,33.44c-5.11,8.81-22.23,9.81-28.14,18.12c-5.81,8.31-0.9,24.83-7.41,32.54
		c-6.51,7.81-23.63,5.91-30.84,13.02c-7.11,7.21-5.21,24.33-13.02,30.84c-7.71,6.51-24.23,1.6-32.54,7.51
		c-8.31,5.81-9.31,22.93-18.12,28.04c-8.81,5.11-24.23-2.6-33.44,1.7c-9.11,4.31-13.12,21.03-22.73,24.53
		c-9.41,3.4-23.33-6.81-33.14-4.21c-9.71,2.6-16.62,18.42-26.73,20.23c-9.91,1.7-21.73-10.81-31.94-9.91
		c-10.01,0.9-19.52,15.22-29.74,15.22s-19.73-14.32-29.74-15.22c-10.21-0.9-22.03,11.61-31.94,9.91
		c-10.11-1.8-17.02-17.62-26.73-20.23c-9.81-2.6-23.63,7.61-33.14,4.21c-9.61-3.5-13.62-20.23-22.73-24.53
		c-9.21-4.31-24.63,3.3-33.44-1.7c-8.81-5.11-9.81-22.33-18.12-28.14c-8.31-5.81-24.83-0.9-32.54-7.41
		c-7.81-6.51-5.81-23.63-13.02-30.84c-7.21-7.21-24.33-5.21-30.84-13.02c-6.51-7.71-1.6-24.23-7.41-32.54s-23.03-9.31-28.14-18.12
		c-5.01-8.81,2.6-24.23-1.7-33.44c-4.31-9.11-21.03-13.12-24.53-22.73c-3.4-9.51,6.81-23.33,4.21-33.14
		c-2.6-9.71-18.42-16.62-20.13-26.73c-1.8-9.91,10.71-21.73,9.81-31.94C14.32,375.08,0,365.57,0,355.35
		c0-10.21,14.32-19.73,15.22-29.74c0.9-10.21-11.61-22.03-9.81-31.94c1.7-10.11,17.52-17.02,20.13-26.73
		c2.6-9.81-7.61-23.63-4.21-33.14c3.5-9.61,20.23-13.62,24.53-22.73c4.31-9.21-3.3-24.63,1.7-33.44
		c5.11-8.81,22.33-9.81,28.14-18.12c5.81-8.31,0.9-24.83,7.41-32.54c6.61-7.81,23.73-5.81,30.84-13.02
		c7.21-7.21,5.21-24.33,13.02-30.84c7.71-6.51,24.23-1.6,32.54-7.41c8.31-5.81,9.41-23.03,18.12-28.14
		c8.81-5.01,24.23,2.6,33.44-1.7c9.11-4.31,13.12-21.03,22.73-24.53c9.51-3.4,23.33,6.81,33.14,4.21
		c9.71-2.6,16.62-18.42,26.73-20.23c9.91-1.7,21.73,10.81,31.94,9.91C335.63,14.32,345.14,0,355.35,0s19.73,14.32,29.74,15.22
		c10.21,0.9,22.13-11.61,31.94-9.91c10.11,1.8,17.02,17.62,26.73,20.23c9.81,2.6,23.73-7.61,33.14-4.21
		c9.61,3.5,13.62,20.23,22.73,24.53c9.21,4.31,24.63-3.3,33.44,1.7c8.81,5.11,9.81,22.33,18.12,28.14
		c8.31,5.81,24.83,0.9,32.54,7.41c7.81,6.61,5.91,23.63,13.02,30.84c7.21,7.21,24.33,5.21,30.84,13.02
		c6.51,7.71,1.6,24.23,7.51,32.54c5.81,8.31,22.93,9.41,28.04,18.12c5.11,8.81-2.6,24.23,1.7,33.44
		c4.31,9.11,21.03,13.12,24.53,22.73c3.4,9.51-6.81,23.33-4.11,33.14c2.6,9.71,18.32,16.62,20.13,26.73
		c1.7,9.91-10.81,21.73-9.91,31.94C696.39,335.63,710.71,345.14,710.71,355.35L710.71,355.35z"/>
</g>
<g>
	<path class="st1" d="M411.73,470.6c-2.5,1.9-4.81,3.6-7.21,5.21c-0.3,0.2-1.3,0-1.6-0.4c-6.81-7.81-17.32-10.11-27.03-5.91
		c-8.01,3.5-13.12,11.61-13.02,20.83c0.2,10.81,6.91,19.42,17.62,21.73c11.21,2.5,20.73-3,23.43-14.12c0-0.2,0-0.4,0-0.7h-21.03
		v-9.81c0.6,0,1.2-0.1,1.8-0.1c7.51,0,20.93,0.1,28.44,0c1.6,0,2,0.4,2,1.9c0,5.61-0.4,11.01-2.7,16.12
		c-4.11,8.91-10.81,14.52-20.33,16.32c-12.52,2.4-23.33-1.1-31.84-10.61c-6.41-7.21-8.81-15.92-7.41-25.43
		c2.1-13.62,9.91-22.43,22.83-26.53c12.92-4.11,26.93,0.2,35.25,10.41C411.23,469.8,411.43,470.2,411.73,470.6L411.73,470.6z"/>
	<path class="st1" d="M200.36,458.99c6.61,0,13.12-0.1,19.63,0.1c3.2,0.1,6.31,1.3,9.01,3.2c4.91,3.3,7.01,8.01,6.31,13.82
		c-0.6,5.21-3.2,8.91-8.01,11.11c-0.2,0.1-0.4,0.2-0.8,0.5c0.5,0.2,0.9,0.4,1.2,0.6c7.01,2.3,11.11,7.61,11.41,14.92
		c0.3,7.11-3.5,13.42-10.21,15.92c-3.1,1.2-6.61,1.9-9.91,2.1c-6.11,0.3-12.32,0.1-18.62,0.1V458.99z M210.67,512.36L210.67,512.36
		c1.4,0,2.5,0,3.7,0c3.1,0,6.21,0.1,9.11-1.3c3.3-1.7,5.11-4.31,5.21-8.01c0.2-3.4-0.9-6.31-3.91-8.31c-4.31-2.9-9.21-2-14.12-2.2
		V512.36z M210.77,467.3L210.77,467.3v16.22c2.2,0,4.21,0,6.21,0c0.7-0.1,1.4-0.2,2-0.4c3.7-0.7,6.01-3.3,6.31-7.01
		c0.2-3.8-1.8-6.91-5.41-7.81C216.98,467.6,213.97,467.6,210.77,467.3L210.77,467.3z"/>
	<path class="st1" d="M318.21,467.9v53.37h-10.21v-62.28c0.1-0.1,0.2-0.2,0.3-0.2c6.81,0.1,13.72-0.3,20.43,0.5
		c7.11,0.9,12.52,5.01,14.92,11.92c2.2,6.31,1.4,12.52-3.1,17.62c-1.9,2.2-4.71,3.7-7.21,5.71c5.51,7.51,11.21,15.32,17.12,23.23
		c-2.8,1.6-5.51,3.1-8.31,4.71c-2.1-3.2-4.21-6.21-6.21-9.31c-4.91-7.21-9.81-14.52-14.82-21.73c-1.1-1.6-0.4-2.9,0-4.21
		c0-0.3,0.9-0.5,1.4-0.6c2-0.4,4.01-0.4,5.91-1.1c4.21-1.5,6.11-4.61,5.91-8.91c-0.2-3.9-2.5-6.81-6.71-7.81
		C324.62,468.2,321.51,468.2,318.21,467.9L318.21,467.9z"/>
	<path class="st1" d="M470.2,458.69c3.1,0,6.01,0,8.91,0.1c3.9,0.1,7.81-0.1,11.61,0.4c9.81,1.3,16.62,9.31,16.22,19.12
		c-0.3,7.01-3.9,12.12-10.31,15.22c-0.4,0.1-0.8,0.3-1.4,0.6c5.81,7.91,11.61,15.72,17.42,23.63c-2.7,1.6-5.41,3.1-8.21,4.71
		c-1.9-2.9-3.9-5.71-5.81-8.51c-4.91-7.31-9.91-14.82-14.92-22.03c-1.2-1.6-1.1-3-0.5-4.51c0.1-0.4,1.1-0.8,1.7-0.8
		c2.6,0,5.01-0.5,7.31-1.8c3.4-1.9,4.71-4.91,4.31-8.71c-0.3-3.4-2.3-5.61-5.31-6.81c-2.7-1.1-6.51-1.4-10.71-1v52.97H470.2V458.69z
		"/>
	<path class="st1" d="M293.88,458.89c0,0.5,0.1,0.8,0.1,1.2c0,13.32,0,26.63-0.1,40.05c-0.1,6.81-2.5,12.82-7.91,17.22
		c-6.91,5.51-14.72,6.61-22.83,3.4c-7.81-3-12.22-9.01-13.42-17.32c-0.4-2.1-0.5-4.21-0.5-6.31c0-12.12,0-24.13,0-36.15v-2.1h10.41
		v2c0,12.72,0,25.43,0,38.15c0,3,0.4,6.01,2.1,8.51c3.2,4.81,7.81,5.61,13.12,4.71c4.01-0.7,7.41-4.21,8.21-8.61
		c0.4-1.8,0.5-3.7,0.5-5.51c0-12.42,0-24.73,0-37.15v-2.1H293.88z"/>
	<path class="st1" d="M425.95,458.79h31.64c0,3,0,5.91,0,8.71c0,1.2-0.9,1-1.6,1c-5.91,0-11.71,0.1-17.52,0
		c-1.7-0.1-2.4,0.2-2.3,2.1c0.2,3.7,0.1,7.41,0.1,11.31h2.1c5.11,0,10.21,0.1,15.32,0c1.4,0,1.8,0.4,1.7,1.8c-0.1,2.5,0,4.91,0,7.61
		h-19.02v20.23h2c6.11,0,12.22,0,18.22-0.1c1.5,0,1.9,0.5,1.9,1.9c-0.1,2.6,0,5.21,0,7.91h-32.54V458.79z"/>
	<path class="st1" d="M553.51,429.05h-10.61v-63.98c0.4,0,0.7,0,1.1,0c4.91,0,9.71-0.1,14.62,0c5.11,0,9.91,1,14.12,4.01
		c6.01,4.21,8.61,10.11,7.81,17.22c-0.7,6.71-4.41,11.41-10.51,14.32c-0.4,0.1-0.7,0.3-1.1,0.5c0,0-0.1,0-0.3,0.2
		c1.4,1.7,2.7,3.5,4.01,5.31c4.11,5.51,8.21,11.01,12.22,16.52c0.3,0.5,0.2,1.4,0.3,2.1c0.3,0.9-0.4,1.2-1.1,1.5
		c-2,1.1-3.91,2.2-6.01,3.4c-1.3-1.8-2.5-3.6-3.7-5.41c-6.01-8.91-12.12-17.82-18.12-26.63c-0.5-0.8-0.4-3.6,0.2-4.21
		c0.3-0.2,0.7-0.2,1-0.2c3-0.1,5.91-0.5,8.51-2.1c3.3-2.1,4.51-5.21,4.01-9.01c-0.4-3.4-2.5-5.51-5.61-6.81
		c-3.5-1.4-7.11-0.9-10.81-1V429.05z"/>
	<path class="st1" d="M537.69,428.05c-3.3,0.7-6.61,1.4-9.81,2.1c-1.6-4.11-3.2-8.21-4.81-12.22c-0.1-0.4-0.3-0.8-0.4-1.2
		c-0.9-2.2-1-2.2-3.4-2.2c-6.81,0-13.62,0-20.43,0c-1,0-1.5,0.2-1.9,1.2c-1.6,4.41-3.4,8.71-5.11,13.12c-0.3,1-0.6,1.3-1.7,1.1
		c-2.7-0.7-5.41-1.2-8.11-1.8c-0.1,0-0.2-0.1-0.4-0.2c0.6-1.5,1.2-3.1,1.8-4.71c3.2-7.81,6.41-15.62,9.71-23.53
		c4.11-10.11,8.31-20.23,12.42-30.34c0.7-1.6,1.3-3.1,1.9-4.71c0.2-0.6,0.6-0.7,1.2-0.7c2.8-0.1,2.8-0.1,3.8,2.5
		c3.8,9.41,7.71,18.72,11.51,28.14c4.21,10.31,8.51,20.63,12.72,30.94C536.99,426.35,537.29,427.15,537.69,428.05L537.69,428.05z
		 M509.75,383.39L509.75,383.39c-0.1,0-0.2,0-0.3,0c-2.8,7.41-5.71,14.82-8.61,22.33h17.52
		C515.46,398.21,512.66,390.8,509.75,383.39L509.75,383.39z"/>
	<path class="st1" d="M432.25,378.88c-1.6-2.1-3.4-3.7-5.81-4.51c-2.4-0.6-4.71-0.6-6.91,0.5c-3.3,1.6-4.11,6.41-1.6,9.41
		c1.9,2.3,4.61,3.5,7.21,4.71c3.6,1.5,7.11,3,10.21,5.51c4.51,3.5,7.21,7.91,7.81,13.72c0.4,4.21,0,8.31-2.1,12.12
		c-2.7,5.21-7.21,8.11-12.92,9.31c-7.31,1.4-14.12,0-20.13-4.61c-2.2-1.7-4.91-4.81-6.21-7.41c2.3-2.2,4.61-4.31,6.91-6.51
		c0.8,1.1,1.4,2.2,2.2,3.2c3.6,4.21,8.11,6.31,13.72,5.51c3.6-0.5,6.11-2.6,7.41-5.91c1.3-3.5,0.9-6.91-1.6-9.81
		c-2.5-2.9-5.91-4.51-9.31-6.01c-3.7-1.7-7.31-3.5-10.21-6.41c-6.01-5.71-6.81-15.32-1.7-21.73c2.6-3.2,6.11-5.01,10.21-5.71
		c5.31-0.9,10.21,0.1,14.52,3.4c1.8,1.3,3.3,3,4.31,5.01c0.2,0.2,0.1,0.7,0,0.9C436.26,375.28,434.36,377.08,432.25,378.88
		L432.25,378.88z"/>
	<polygon class="st1" points="485.32,365.17 485.32,375.08 470.3,375.08 470.3,428.95 459.69,428.95 459.69,375.08 444.57,375.08 
		444.57,365.17 	"/>
	<path class="st1" d="M163.61,394.91c3.4,1,6.31,2.4,8.61,4.91c1.9,2.1,3.2,4.51,3.8,7.21c1.8,9.61-3.1,17.72-12.52,20.23
		c-2.6,0.7-5.31,1-8.01,1.1c-5.91,0.2-11.82,0.1-17.82,0.1v-62.58c0.3,0,0.7-0.1,1-0.1c5.21,0,10.31-0.1,15.42,0.1
		c4.81,0.1,9.41,1.2,13.22,4.21c7.21,5.71,7.31,16.52,0.3,22.33C166.51,393.4,165.11,394,163.61,394.91L163.61,394.91z
		 M147.89,409.42L147.89,409.42c0,2.9,0,5.91,0,8.81c0.1,0.4,0.5,1.2,0.8,1.2c3.5,0,7.11,0.4,10.61-0.8
		c4.61-1.5,7.01-5.21,6.61-10.41c-0.2-3.9-3.5-7.51-7.81-8.11c-3-0.4-6.11-0.3-9.21-0.5c-1-0.1-1,0.5-1,1.2
		C147.89,403.72,147.89,406.52,147.89,409.42L147.89,409.42z M147.89,382.69L147.89,382.69c0,2.3,0,4.61,0,6.81
		c0,0.7,0.1,1.2,0.9,1.2c2.7-0.2,5.41-0.2,8.11-0.7c3.1-0.5,5.31-3.2,5.61-6.51c0.3-3.7-1.3-6.41-4.51-7.81
		c-3-1.4-6.21-0.9-9.41-0.9c-0.2,0-0.6,0.7-0.7,1C147.89,378.08,147.89,380.39,147.89,382.69L147.89,382.69z"/>
	<path class="st1" d="M345.04,428.35h-10.31v-62.48h10.21v30.04c0.2,0,0.3,0.1,0.4,0.1c7.71-10.41,15.32-20.83,23.03-31.34
		c2.8,1.8,5.41,3.5,8.21,5.31c-1.9,2.5-3.7,4.91-5.51,7.21c-4.61,6.11-9.11,12.22-13.82,18.22c-0.7,0.9-0.5,1.4,0.1,2.1
		c7.21,8.41,14.42,16.82,21.53,25.23c0.3,0.3,0.5,0.5,0.8,0.9c-2.8,2-5.51,3.8-8.41,5.81c-8.71-10.81-17.32-21.63-25.93-32.44
		c-0.1,0-0.2,0.1-0.3,0.1V428.35z"/>
	<path class="st1" d="M329.22,374.18c-2.2,2.4-4.41,4.71-6.61,7.21c-5.71-5.61-12.32-7.61-19.93-6.61
		c-5.51,0.7-10.21,3.2-13.82,7.51c-7.31,8.31-7.21,21.53,0.1,29.74c4.41,4.91,10.01,7.41,16.62,7.61c6.51,0.1,12.22-2.1,17.02-6.81
		c2.2,2.4,4.41,4.81,6.61,7.21c-10.41,11.21-31.64,13.72-45.86,0.6c-13.62-12.62-13.62-34.64-0.1-47.06
		C297.88,360.26,318.91,363.06,329.22,374.18L329.22,374.18z"/>
	<path class="st1" d="M230.09,429.45c-3.2-0.7-6.31-1.3-9.61-2c2.1-5.01,4.01-9.81,5.91-14.62c3.8-9.11,7.51-18.22,11.31-27.44
		c2.7-6.61,5.41-13.22,8.11-19.83c0.2-0.4,0.8-0.7,1.2-0.9c0.6-0.1,1.2-0.1,1.7,0c0.5,0.2,1.2,0.5,1.3,0.9
		c5.51,13.32,10.91,26.63,16.32,40.05c2.9,7.01,5.71,13.92,8.61,20.93c0.1,0.2,0.1,0.4,0.3,0.9c-3.2,0.7-6.31,1.3-9.51,2
		c-0.8-1.9-1.5-3.8-2.3-5.81c-1.1-2.8-2.2-5.61-3.2-8.51c-0.3-0.7-0.6-1-1.4-1c-7.31,0-14.52,0-21.83,0c-0.8,0-1.1,0.3-1.4,1
		C233.8,419.94,232,424.64,230.09,429.45L230.09,429.45z M247.92,383.39L247.92,383.39c-2.9,7.51-5.71,14.72-8.51,22.03h17.02
		C253.62,398.11,250.82,390.9,247.92,383.39L247.92,383.39z"/>
	<path class="st1" d="M183.74,365.87h10.11v52.77h1.8c6.71,0,13.32,0,19.93-0.1c1.1,0,1.6,0.4,1.5,1.6c-0.1,2.7,0,5.41,0,8.21
		h-33.34V365.87z"/>
	<path class="st1" d="M317.51,304.09c20.73,6.91,36.85-2.9,46.36-3.3c8.01-0.2,12.02,1.8,13.92,4.71c1,1.5,1.4,2.9,3.3,2.8
		c2.4-0.1,2.4-2.5,3.2-4.51c0.7-1.7,2.4-2.2,3.9-2.2c2.8,0,5.11,2.5,5.11,5.61c0,0.3-0.1,0.5,0,0.8v11.41c0,3.5,1.6,5.11,4.21,5.11
		c2.7,0,4.21-2.3,4.21-5.01v-12.72c0,0,13.62-4.11,22.93-14.52c8.91-9.41,12.72-21.83,13.72-25.23c1-3.5,2.4-8.91-1.5-10.81
		c-2.1-1.1-5.61-0.7-11.82-0.7H296.38h-7.71c-7.31,0-6.41,6.51-2.6,15.12C294.18,288.87,306.09,300.28,317.51,304.09L317.51,304.09z
		"/>
	<path class="st1" d="M406.12,171.92c-1.8,0-3.3-1.5-3.3-3.4c0-1.9,1.5-3.4,3.3-3.4c1.8,0,3.3,1.5,3.3,3.4
		C409.42,170.42,407.92,171.92,406.12,171.92L406.12,171.92z M347.85,156.6L347.85,156.6c-1.8,0-3.3-1.5-3.3-3.3
		c0-1.9,1.5-3.4,3.3-3.4c1.9,0,3.3,1.5,3.3,3.4C351.15,155.1,349.75,156.6,347.85,156.6L347.85,156.6z M343.44,167.21L343.44,167.21
		c-1.9,0-3.4-1.5-3.4-3.4c0-1.9,1.5-3.4,3.4-3.4c1.8,0,3.3,1.5,3.3,3.4C346.74,165.71,345.24,167.21,343.44,167.21L343.44,167.21z
		 M336.23,158.6L336.23,158.6c-1.9,0-3.4-1.6-3.4-3.4c0-1.9,1.5-3.4,3.4-3.4c1.8,0,3.3,1.5,3.3,3.4
		C339.53,157,338.03,158.6,336.23,158.6L336.23,158.6z M327.62,162.91L327.62,162.91c-0.1,0.1-10.31,4.81-19.73,16.52
		c-8.11,10.11-12.42,21.73-12.52,21.83c-0.4,1.2-1.5,1.9-2.7,1.9c-0.3,0-0.7-0.1-1-0.2c-1.5-0.5-2.3-2.2-1.8-3.7
		c0.2-0.5,4.71-12.62,13.52-23.53c10.31-12.82,21.33-17.92,21.83-18.12c1.5-0.7,3.2,0,3.9,1.4
		C329.72,160.51,329.12,162.21,327.62,162.91L327.62,162.91z M436.26,190.14L436.26,190.14c-1.9-4.01-21.13-46.66-73.99-46.66
		c-51.77,0-71.59,40.25-75.6,49.56c-3,7.01-5.41,12.62,0.7,14.72c2.4,0.8,5.91,0.7,9.61,0.7h43.76v11.01c0,3.2,1.9,4.71,4.11,4.71
		c2.2,0,4.01-1.5,4.01-4.71v-11.01v-1.5c0-2.6,1.8-4.71,4.11-4.71c2.2,0,4.01,2.1,4.01,4.71c0,2.1,3.2,1.5,3.2,1.5h72.69
		C440.86,208.47,441.57,201.36,436.26,190.14L436.26,190.14z"/>
</g>
</svg>
