<?xml version="1.0" encoding="utf-8"?>
<!-- Generator: Adobe Illustrator 25.0.0, SVG Export Plug-In . SVG Version: 6.00 Build 0)  -->
<svg version="1.1" id="Layer_1" xmlns="http://www.w3.org/2000/svg" xmlns:xlink="http://www.w3.org/1999/xlink" width="314px" height="185px" x="0px" y="0px"
	 viewBox="0 0 154.37 154.35" style="enable-background:new 0 0 154.37 154.35;" xml:space="preserve">
<style type="text/css">
	.st0{fill:#FFFFFF;}
	.st1{fill:#E11E2D;}
	.st2{fill:#050605;}
</style>
<g>
	<path class="st0" d="M17.62,154.35c-3.32,0-6.09-2.58-6.35-5.84L0.01,6.83C-0.1,5.07,0.5,3.34,1.69,2.04C2.91,0.74,4.61,0,6.36,0
		h141.65c1.76,0,3.46,0.74,4.68,2.04c1.19,1.3,1.79,3.03,1.67,4.79l-11.25,141.68c-0.26,3.26-3.06,5.84-6.35,5.84H17.62z"/>
	<path class="st1" d="M13.11,108.91h25.97V4.99H7.72c-1.53,0-2.75,1.3-2.64,2.81L13.11,108.91z"/>
	<path class="st1" d="M115.3,108.91h25.97L149.29,7.8c0.11-1.5-1.11-2.81-2.64-2.81H115.3V108.91z"/>
	<path class="st2" d="M91.91,125.4c-0.43,0-0.77-0.4-0.71-0.79c0-0.09,0-0.11,0-0.11c0.11-1.76-0.48-2.81-2.47-2.81h-6.18
		l-1.64,7.51h8.82c0.45,0,0.79,0.43,0.71,0.88l-0.85,3.86c-0.09,0.34-0.37,0.57-0.71,0.57h-9.13c0,0-1.02,4.59-1.05,4.79
		c-0.34,1.47,0.68,2.27,1.36,2.58c0.03,0.03,0.06,0.06,0.09,0.06c0.31,0.14,0.45,0.45,0.4,0.77l-0.48,2.13
		c-0.06,0.31-0.34,0.54-0.68,0.54H68.64c-0.45,0-0.79-0.43-0.68-0.85l4.68-21.2c0.45-1.87-0.62-2.64-1.42-2.95
		c-0.03,0-0.06,0-0.09-0.03c-0.34-0.11-0.54-0.48-0.45-0.85l0.4-1.87c0.09-0.34,0.4-0.6,0.77-0.6h23.9c0.45,0,0.77,0.43,0.68,0.85
		l-1.56,6.97c-0.06,0.31-0.34,0.57-0.68,0.57H91.91z M56,117.61c0.06-0.34,0.37-0.6,0.74-0.6h11.68c0.45,0,0.79,0.43,0.71,0.85
		l-0.4,1.81c-0.09,0.31-0.34,0.51-0.65,0.54c-0.06,0.03-0.09,0.03-0.09,0.03c-0.88,0.11-2.47,0.4-3.77,1.42l-9.69,8.08l0,0
		l7.46,10.12c1.45,1.84,2.18,2.18,3.63,2.21c0.48,0,0.82,0.45,0.71,0.94l-0.4,1.81c-0.09,0.31-0.37,0.54-0.68,0.54H59.4
		c-6.43,0-8.22-2.83-13.58-12.64l0,0l-1.59,7.17c-0.23,1.11,0.71,1.7,1.39,1.98c0.03,0,0.06,0,0.09,0.03
		c0.34,0.11,0.51,0.48,0.43,0.82l-0.45,2.1c-0.09,0.31-0.37,0.54-0.68,0.54H31.51c-0.48,0-0.82-0.43-0.74-0.91l0.43-1.79
		c0.06-0.31,0.34-0.57,0.65-0.6c0.03,0,0.03,0,0.06-0.03c1.22-0.14,2.52-0.91,3.32-4.73l3.06-14c0.4-1.87-0.54-2.58-1.33-2.89
		c-0.03,0-0.06,0-0.14-0.03c-0.37-0.14-0.57-0.51-0.48-0.91l0.4-1.87c0.09-0.34,0.4-0.6,0.77-0.6H50.3c0.45,0,0.79,0.43,0.68,0.85
		l-0.4,1.84c-0.06,0.28-0.26,0.48-0.51,0.57c-0.06,0.03-0.09,0.03-0.11,0.03c-0.6,0.2-1.56,0.68-1.84,1.9l-1.7,7.8l0,0l9.95-8.28
		c0.6-0.48,0.45-1.16-0.23-1.42c0,0,0,0-0.03,0c-0.37-0.11-0.6-0.51-0.51-0.91L56,117.61z M123.01,117.61
		c0.43,0.11,0.68,0.54,0.6,0.96l-1.53,6.83c-0.06,0.31-0.34,0.54-0.68,0.54h-2.15c-0.4,0-0.74-0.34-0.71-0.74c0-0.09,0-0.14,0-0.14
		c0.11-2.21-1.3-3.88-4.48-3.88c-5.27,0-9.1,4.34-9.61,10.03c-0.51,5.87,3.57,9.27,9.27,9.27c2.92,0,5.22-0.57,6.52-0.96
		c0.51-0.17,1.02,0.28,0.91,0.82l-0.68,3.51c-0.06,0.28-0.26,0.54-0.57,0.62c-1.16,0.37-4.42,1.25-9.44,1.25
		c-11.88,0-16.7-6.83-15.96-13.8c0.68-6.21,4.76-15.36,20.98-15.36C118.56,116.56,121.05,117.07,123.01,117.61L123.01,117.61z
		 M102.57,46.12c-0.65,3.4-1.36,5.1-1.81,7.2c-0.48,2.18-1.42,5.39-2.32,5.47c-0.94,0.28-1.3-0.79-1.9,0
		c-0.34,0.48-0.62,1.11-0.94,1.5c-0.2,0.26-0.4,0.82-0.4,1.16c0,0.6-0.03,2.61-0.6,5.19c-0.82,3.94-2.32,6.8-3.91,8.62
		c-2.98,3.46-5.81,4.03-6.12,4.2c-0.45,0.23-1.11,0.09-1.3,0c-0.23-0.11-0.4-0.37-0.77-0.74c-0.37-0.34-0.51,0.2-0.51,0.34
		c-0.03,0.11,0.2,1.76-0.23,2.49c-0.91,1.62-1.76,1.73-2.24,3.71c-0.17,0.68-0.06,1.7-0.85,1.25c-1.98-1.13-4.76-4.17-5.36-7.09
		c-0.17-0.91,0-1.9,0.54-3.6c0.31-0.99,0.54-2.1,0.54-2.75c0-1.13-0.45-2.1,0-2.18c0.82-0.2,1.19,1.93,1.59,1.73
		c0.65-0.4,0.17-2.64,0.17-2.64s-0.28-0.65-1.45-0.91c-0.68-0.17-0.88-0.68-0.17-1.02c0.54-0.26,1.16-0.6,1.87-0.48
		c4.82,0.68,6.21-0.31,8.16-0.82c0.4-0.11,0.62-0.14,0.91,0c0.31,0.14,1.11,0.57,1.28,0.99c0.17,0.4,0,1.98,0.26,3.2
		c0.26,1.22,1.11,0.11,1.3-0.37c0.23-0.48,0.45-1.64,0.48-1.96c0.06-0.28,0.31-1.53,0.74-1.9c0.91-0.74,1.22-1.7,1.36-2.07
		c0.14-0.4,0.37-1.56,0.31-3.26c-0.03-1.7-0.34-1.87-0.74-2.24c-0.43-0.37-0.91-0.28-1.93-1.25c-0.94-0.85-1.7-2.21-2.35-3.06
		c-0.68-0.85-1.79-1.79-3.03-2.1c-1.28-0.31-0.77,0.85-0.68,1.19c0.06,0.23,0.34,1.25-0.09,1.59c-0.4,0.34-2.95,2.07-5.22,1.47
		c-2.72-0.71-3.66-2.21-3.71-3.69c-0.06-1.02,0.45-2.01,1.08-3.2c0.37-0.71,0.51-1.84,0.65-2.95c0.11-0.91,0.34-2.18,0.54-2.64
		c0.14-0.34,0.45-0.68,1.19-0.65c0.74,0.06,1.22,0.4,1.36,1.05c0.45,2.15,1.22,2.72,1.5,2.89c0.26,0.17,0.74-0.17,0.94-0.31
		c0.2-0.11,0.68-0.62,0.54-0.88c-0.26-0.43-0.37-0.65-0.43-0.91c-0.09-0.43,0.43-0.37,0.54-0.28c0.85,0.68,1.64,0.74,3.12,0.96
		c2.58,0.43,2.95-0.51,4.71-0.2c0.23,0.03,0.65,0.23,0.79,0.48c0.11,0.23,0.34,0.77,0.57,0.85c0.2,0.09,0.74,0.11,0.99,0.17
		c0.37,0.06,1.05,0.03,0.94,0.71c-0.28,1.84-2.41,2.35-3.43,2.52c-0.4,0.09-0.6,0.11-0.65,0.17c-0.23,0.2-0.23,0.77,0.03,1.13
		c0.17,0.28,0.96,0.28,2.07,0.09c1.16-0.23,2.27-0.79,3.15-2.15c0.94-1.45,1.42-4.62,1.53-5.22c0.11-0.6,0.34-1.59,0.68-1.79
		c0.31-0.2,1.81-0.65,2.04-0.62c0.26,0.06,0.43,0.17,0.54,0.77c0.14,0.57-0.09,4.08-0.09,4.59c-0.03,0.57,0.28,0.57,0.43,0.51
		c0.37-0.17,1.3-0.79,1.5-1.53c0.17-0.51-0.28-1.3-0.06-2.04c0.34-1.16,0.68-1.47,0.94-1.45c1.47,0.14,1.76,0.79,1.42,2.66
		 M81.76,64.91c-0.54,0.2-2.13,0.57-2.86,0.62c-0.79,0.03-3.23,0.2-3.63,0.2c-0.51-0.03-1.19-0.28-1.73-0.79
		c-0.11-0.11-0.23-0.45,0.2-0.45c0.85-0.03,2.27-0.45,7.11-0.06c0.54,0.06,0.77,0.06,0.91,0.09C81.88,64.52,82.33,64.74,81.76,64.91
		L81.76,64.91z M69.8,62.96c-2.35-0.03-3.46-0.94-3.63-1.19c-0.17-0.26,0.11-0.45,0.37-0.54c0.54-0.17,1.53-0.68,1.96-0.96
		c0.4-0.31,1.5-1.02,2.07-1.36c0.28-0.2,1.79-0.85,2.69-0.23c1.33,0.94,2.58,1.56,4.85,1.42c1.47-0.09,1.45-1.28,2.64-1.64
		c1.08-0.34,1.3-0.62,1.64-0.82c0.43-0.09,0.77-0.2,1.22,0.26c0.6,0.57,0.82,0.99,1.53,1.79c0.94,1.08,1.98,1.56,2.32,1.64
		c0.31,0.06,0.54,0.31,0.54,0.43s-0.11,0.45-1.08,0.71c-3.2,0.94-6.66,0.34-8.45-0.37c-0.91-0.37-1.79-0.48-2.78,0.03
		C74.68,62.59,72.01,62.99,69.8,62.96L69.8,62.96z M68.67,76.11c-1.81,0.06-6.55-2.81-8.62-10.94c-0.54-2.07,0.77-3.77,1.59-4.05
		c0.48-0.2,0.74-0.26,0.91-0.26c0.17-0.03,0.99-0.03,0.96,0.91c-0.03,0.77,0.6,7.06,2.24,9.33c0.4,0.57,0.79,0.6,0.96,0.09
		c0.17-0.45,0.48-1.05,0.57-1.28c0.06-0.17,0.65-1.08,0.85-0.4c0.37,1.47,1.25,4.51,1.62,5.3C70.37,76.11,69.35,76.08,68.67,76.11
		L68.67,76.11z M59.14,51.87c-0.14-0.54,0.11-1.36,1.39-0.54c0.23,0.11,0.82,0.4,1.5,0.6c0.4,0.11,0.65-0.06,0.77-0.34
		c0.14-0.31,0.45-0.88-0.11-1.16c-0.57-0.28-1.98-0.54-2.78-2.52c-0.14-0.37,0.09-0.77,0.31-0.88c0.23-0.09,0.51-0.03,0.79,0.2
		c0.26,0.26,0.82,0.79,1.33,0.82c0.45,0.03,0.54-0.17,0.62-0.28c0.4-0.43,1.5-2.07,3.83-1.79c0.96,0.11,1.84,0.34,2.15,0.37
		c0.23,0,0.88,0.03,1.47-0.09c0.71-0.11,1.73-0.34,1.25,0.26c-0.43,0.45-0.77,0.65-0.4,1.19c0,0.03,0.03,0.03,0.03,0.06
		c0.34,0.48,0.34,1.08,0.03,1.53l-0.06,0.06c-0.51,0.68-1.56,1.45-3.77,1.59c-0.99,0.06-1.05,0.03-1.08,0.6c0,0.2,0,0.34,0.03,0.48
		c0.06,0.28,0.26,0.4,0.94,0.45c0.51,0.03,1.42-0.09,1.42-0.09c0.23-0.06,0.51,0.09,0.37,0.28c-0.03,0.03-0.11,0.17-0.14,0.17
		c-0.48,0.65-0.65,1.25-0.71,1.59c-0.03,0.31-0.2,0.57-0.45,0.71c0,0,0,0-0.03,0c-0.31,0.17-1.62,0.45-2.61,1.28
		c-1.02,0.85-3.15,1.53-4.05,0.51S59.54,53.57,59.14,51.87L59.14,51.87z M58.49,41.7c-0.28,0.03-0.54-0.14-0.85-0.23
		c-0.37-0.06-0.57,0.03-0.74-0.17c-0.11-0.2-0.11-0.4,0.11-0.45c0.2-0.09,0.34-0.03,0.57-0.06c0.43-0.09,0.94-0.57,1.3-0.03
		C59.14,41.1,58.92,41.64,58.49,41.7L58.49,41.7z M54.98,54.6c-0.94-0.6-0.88-1.39-1.11-2.18c-0.51-1.67-1.02-3.69-1.5-5.39
		c-0.26-1.02-0.34-3.43,1.08-3.43c0.68,0,1.22,0.2,1.45,0.88c0.51,1.47-0.45,1.22-0.2,2.95c0.17,1.25,0.4,2.47,0.79,4.56
		c0.17,0.96,0.48,3.29-0.37,2.72 M52.26,30.87c0.51-1.36,1.45-2.55,2.07-3.37c0.6-0.77,0.31-1.76,0.03-2.66
		c-0.2-0.82-0.74-1.67-0.82-1.9c-0.06-0.17-0.06-0.31,0-0.43c0.03,0,0.09-0.03,0.11-0.06l1.11-0.09c3.23-0.43,6.04-1.56,6.89-2.04
		c0.43-0.23,0.88-0.4,1.33-0.57c0.54-0.17,1.11-0.37,1.64-0.43c0.43-0.09,0.91-0.14,1.33-0.2c0.65-0.06,1.64,0.4,1.42,0.51
		c-0.54,0.34-3.03,0.91-5.22,3.51c-1.33,1.62-1.64,2.61-2.1,3.34c-0.45,0.74-0.82,0.91-1.47,1.45c-0.31,0.28-0.96,0.85-1.28,1.73
		c-0.31,0.91-1.53,4.08-1.7,9.1c-0.03,0.57-0.11,1.19-0.68,1.39l0,0c-0.45,0.2-0.82,0.48-0.88,0.17c-0.31-1.11-0.96-3.49-1.25-4.99
		c-0.11-0.45-0.2-0.94-0.31-1.42C52.17,32.66,52.03,31.52,52.26,30.87L52.26,30.87z M62.01,43.06c-0.57,0.37-1.13,0.79-1.59,1.08
		c-0.51,0.37-1.28,0.03-1.05-0.71c0.11-0.37,0.62-1.3,1.47-1.47c0.11,0,0.54-0.09,0.91-0.14c0.43-0.03,0.85-0.09,1.08-0.09
		c0.62-0.03,0.68,0.45,0.28,0.71C62.83,42.6,62.4,42.83,62.01,43.06L62.01,43.06z M62.83,44.16c0.14-0.14,0.23-0.14,0.74-0.43
		c0.37-0.2,0.82-0.45,1.25-0.74c0.77-0.51,2.24-1.02,2.89-1.02c0.45,0,1.25,0.2,1.64,0.65c0.45,0.48,0.57,1.05,0,0.94
		c-0.57-0.09-1.16-0.26-2.27,0c-1.22,0.28-2.07,0.77-2.66,1.02c-0.6,0.28-1.19,0.34-1.42,0.34C62.8,44.93,62.26,44.62,62.83,44.16
		L62.83,44.16z M71.87,55.02c0.14,0.26,0.2,0.71,0.14,0.88c-0.03,0.23-0.82,0.51-1.47-0.45c-0.65-0.96-0.34-2.15,0.06-2.64
		c0.6-0.77,1.53-0.2,1.42,0.09C71.53,53.86,71.76,54.77,71.87,55.02L71.87,55.02z M91.49,45.5c-0.26,0.11-1.16-0.2-1.42-0.34
		c-0.48-0.28-0.85-0.48-1.53-1.05c-0.45-0.37-1.25-0.57-2.04-0.51c-0.6,0.03-1.16,0.14-1.62,0.26c-0.45,0.11-0.48-0.31-0.37-0.45
		c0.14-0.14,0.77-0.74,2.15-1.08c0.2-0.06,0.57-0.06,0.77-0.03c0.57,0.06,1.28,0.45,1.76,0.94c0.48,0.48,1.47,1.33,2.01,1.64
		C91.46,45.04,92.05,45.18,91.49,45.5L91.49,45.5z M90.92,43.23c0,0-0.85-0.6-1.13-1.05c-0.11-0.26-0.09-0.45,0.26-0.45
		c1.28,0,2.44-0.03,3,0.45c0.43,0.34,0.43,1.05,0.23,1.53c-0.23,0.54-0.71,0.37-0.96,0.34S90.92,43.23,90.92,43.23L90.92,43.23z
		 M97.3,41.3c-0.2,0.23-0.37,0.09-0.77,0.2c-0.31,0.09-0.51,0.26-0.79,0.23c-0.45-0.06-0.68-0.6-0.45-0.94
		c0.4-0.54,0.91-0.09,1.33,0c0.2,0.03,0.37-0.03,0.57,0.06C97.38,40.9,97.41,41.1,97.3,41.3L97.3,41.3z M60.62,16.72
		c0.2-0.28,0.68-0.74,1.13-1.08c0.51-0.34,2.92-2.18,5.19-2.86c0.43-0.11,0.54-0.2,0.79-0.26c0.34-0.09,0.62-0.82-0.09-0.91
		c-0.74-0.11-1.02-0.06-1.42-0.06s-0.6-0.2-0.31-0.51c0.28-0.31,0.82-0.62,1.73-0.99c2.01-0.82,5.58-1.25,7.23-1.39
		c2.18-0.17,2.44-0.17,3.86-0.06c1.3,0.09,2.35,0.34,2.83,0.43c2.49,0.45,5.36,1.59,7.91,3c1.33,0.79,2.64,1.67,3.83,2.61
		c3.66,2.86,7.85,8.28,7.23,19.67c-0.06,1.33-0.23,2.07-0.31,2.41c-0.09,0.31-0.54,0.88-0.77,0.14c-0.74-2.44-1.73-6.75-3.91-10.12
		c-0.31-0.48-0.79-0.43-0.74,0.06c0,0.2,0.11,2.38,0.06,2.81c-0.37,2.81,0.51,1.7,1.76,4.71c0.4,0.94,0.91,2.78,1.02,3.97
		c0.03,0.28,0.09,0.62,0.09,0.96c0,0.43-0.2,0.45-0.2,0.45c-0.85,0-2.38-0.43-3.17-0.45c-0.94-0.03-7.34-0.09-9.75,0.11
		c-2.44,0.17-3.74,1.05-5.1,2.15c-0.23,0.2-0.57,0.37-0.74,0.45c-0.09,0.06-0.2,0.06-0.28,0.06c-0.11-0.03-0.31-0.06-0.6-0.11
		c-0.57-0.14-1.3-0.17-1.87,0c-0.57,0.17-0.85,0.31-1.47-0.06c-0.88-0.51-2.24-2.58-6.97-2.61c-2.69-0.03-6.21-0.06-8.28,0.03
		c-0.68,0.03-1.02,0.11-1.19,0.11c-0.03-0.09-0.03-0.2-0.03-0.23c-0.03-3.77,2.44-2.95,2.72-3.91c0.71-2.47,0.88-8.36,5.16-11.96
		c2.04-1.73,3.12-1.81,5.02-1.81c2.04,0,4.03,0.54,5.05,1.05c0.82,0.4,1.22,0.65,1.53,0.43c0.31-0.26,1.16-1.02,1.53-1.28
		c0.34-0.28,0.2-0.71-0.11-0.96c-0.34-0.26-3.37-4.08-8.02-4.85c-1.08-0.2-1.84-0.34-2.81-0.34c-0.54-0.03-0.99-0.03-2.21,0.11
		c-1.79,0.23-4.11,1.22-5.61,1.81C60.22,17.38,60.53,16.87,60.62,16.72L60.62,16.72z M59.09,69.79c0.06,1.96,1.19,7.11,7.74,12.02
		c2.72,2.04,3.97,2.98,4.34,3.23l0,0c0.17,0.11-0.96,0.09-1.28,0.14c-0.51,0.03-2.27-0.11-3.66,0.14c-1.28,0.23-1.11,0.54-1.22,1.45
		c-0.11,0.71,0,1.87-0.06,2.83c-0.03,0.99-0.09,1.67,0.34,2.15c0.4,0.48,0.65,0.54,2.38,0.43c1.64-0.09,6.21-0.09,6.77-0.2
		c0.71-0.14,0.6,0.11,0.17,0.96c-0.68,1.5-2.95,8.36-6.49,14.88c-0.51,0.91,0.91,0.48,2.1,1.05c2.13,1.05,2.07,1.33,2.64,0.26
		c0.6-1.19,3.71-8.48,4.2-10.71c0.06-0.31,0.17-0.57,0.23-0.11c0.03,0.31,0.09,9.52-0.17,12.44c-0.03,0.14,0,0.31,0.11,0.43
		c0.17,0.14,0.4,0.23,0.6,0.26l0,0c1.08-0.34,2.35-0.6,3.46-0.43c0.11-0.03,0.2-0.03,0.28-0.06c0.06-0.06,0.11-0.11,0.14-0.17
		c0.09-0.17,0.14-0.34,0.17-0.51c0-0.03,0-0.03,0-0.06c0.06-0.23,0.11-0.48,0.14-0.74c0-0.14,0.03-0.28,0.03-0.43
		c0-0.2,0.03-0.4,0.03-0.6c0-0.23,0-0.45,0.03-0.68c0-0.28,0-0.54,0-0.82s0-0.6,0-0.88c-0.03-0.34-0.03-0.23-0.03-0.54
		c-0.03-0.37-0.03-0.71-0.06-1.05c0-0.37-0.03-0.74-0.06-1.11c0-0.4-0.03-0.77-0.06-1.16c-0.03-0.4-0.06-0.77-0.09-1.16
		c-0.06-0.4-0.09-0.82-0.11-1.22c-0.06-0.4-0.11-0.79-0.14-1.19c-0.06-0.4-0.11-0.79-0.17-1.19s-0.11-0.79-0.2-1.19
		c-0.06-0.37-0.14-0.54-0.2-0.91c-0.09-0.37-0.17-0.74-0.26-1.11c-0.09-0.34-0.17-0.71-0.28-1.05c-0.09-0.28-0.17-0.54-0.26-0.82
		c0-0.03-0.09-0.43-0.09-0.45c0.03-0.14,0.2-0.06,0.4-0.09c0,0,0.09,0,0.14-0.03c1.16-0.14,3.2-0.06,3.66-0.03
		c0.45,0.03,2.78,0.23,3.43,0.31c0.65,0.06,1.45,0.2,1.42-1.76c0-0.54-0.03-0.85,0-1.33c0-0.09,0-0.14,0-0.2c0-0.14,0-0.26,0-0.37
		c0-0.09,0-0.14,0-0.23c0-0.06,0-0.11,0-0.2c0-0.06,0-0.11,0-0.17c0-0.11,0-0.2,0-0.28c0-0.06,0-0.06,0-0.09
		c0-0.09,0.03-0.14,0.03-0.2c0-0.03,0-0.09,0-0.11c0-0.06,0-0.09,0-0.14V87c0-0.06,0.03-0.11,0.03-0.2c0-0.48-0.06-1.36-0.96-1.59
		c-1.05-0.26-2.89-0.34-4.56-0.2c-0.23,0.03-0.28,0-0.2-0.06l0,0c0.34-0.26,2.75-1.59,5.5-4.05c3-2.69,4.45-4.14,5.36-6.09
		c0,0,3.29-6.38,3.15-11.79c-0.06-1.11,0.14-1.02,0.82-0.99c0.2,0,0.96-0.06,1.39-0.34c1.39-0.31,2.64-5.07,2.64-5.07
		s2.1-7.26,2.61-10.23c0.45-2.64,0.34-4.17-1.25-4.96l-0.28-0.14c-0.11-0.09-0.17-0.23-0.14-0.34c0.03-0.11,0.06-0.26,0.09-0.34
		c0.79-2.75,2.18-6.21,1.87-7.6c-0.06-0.4-0.4-0.54-0.51-0.62c-0.17-0.11-0.79-0.79-0.96-1.3c-0.03-0.06-0.03-0.14-0.06-0.2
		c-0.43-5.16-2.27-11.65-7.74-17.29c0,0-0.37-0.34-0.6-0.54c-0.45-0.43-1.05-0.94-1.76-1.47c-1.45-1.08-2.61-1.9-4.99-3.09
		c-0.2-0.11-1.98-0.94-4.65-1.56c-0.26-0.09-0.51-0.14-0.74-0.2c-0.4-0.09-1.02-0.2-1.7-0.31c-1.64-0.26-3.46-0.4-5.36-0.28v0.03
		c-0.2,0-0.48,0-0.54,0c-0.11,0-0.23,0.03-0.34,0.03c-0.14,0-0.26,0-0.4,0c-0.4,0.03-0.94,0.09-1.47,0.17
		c-0.91,0.11-1.87,0.31-2.44,0.45c-0.68,0.14-1.56,0.34-2.66,0.65c-0.48,0.14-0.94,0.28-1.39,0.43c-0.11,0.06-0.26,0.09-0.37,0.11
		c-0.51,0.17-0.99,0.34-1.5,0.51c-0.37,0.14-1.93,0.82-2.27,0.96c-0.14,0.09-0.37,0.17-0.62,0.28c-1.08,0.34-1.3,0.96-1.33,1.3
		c-0.03,0.23-0.09,0.45-0.2,0.65c-1.56,3.34-5.24,3.66-6.72,3.74c-0.4,0.03-0.74,0.09-0.6,0.45c0.31,0.96,2.04,2.75,3.09,3.06
		c-0.03,0.14-0.91,0.34-1.11,0.4c-0.43,0.11-2.15-0.03-2.27-0.03l0,0c-1.98,0.17-2.61,1.53-2.78,2.18c-0.06,0.2-0.03,0.4,0.09,0.57
		c0.43,0.68,0.91,1.22,1.25,2.1v0.03c0.11,0.23,0.17,0.48,0.26,0.77c0.06,0.4,0.34,0.79-0.03,1.53c-0.68,1.3-2.38,1.73-2.64,3.03
		c-0.37,1.84,0.28,3.06,0.99,6.12c0.48,2.1,0.99,4.28,1.36,5.27c0.03,0.06,0,0.11-0.06,0.11c-0.14,0.03-0.4,0.09-0.51,0.11
		c-0.96,0.4-1.28,1.16-1.39,2.66c-0.26,3.34,2.21,8.5,2.98,12.93c0.26,1.47,0.96,3.88,2.1,4.85c0.26,0.23,0.82,0.37,1.16,0.43
		c0.88,0.17,1.28-0.4,1.33,0.48c0,0.2,0.06,0.71,0.09,0.99C57.39,66.67,59.09,69.79,59.09,69.79L59.09,69.79z"/>
</g>
</svg>
