<?xml version="1.0" encoding="utf-8"?>
<!-- Generator: Adobe Illustrator 25.0.0, SVG Export Plug-In . SVG Version: 6.00 Build 0)  -->
<svg version="1.1" id="Layer_1" xmlns="http://www.w3.org/2000/svg" xmlns:xlink="http://www.w3.org/1999/xlink" width="314px" height="185px" x="0px" y="0px"
	 viewBox="0 0 418.37 92.35" style="enable-background:new 0 0 418.37 92.35;" xml:space="preserve">
<style type="text/css">
	.st0{fill-rule:evenodd;clip-rule:evenodd;fill:#DE2F27;}
	.st1{fill-rule:evenodd;clip-rule:evenodd;fill:#1A3D6D;}
</style>
<g>
	<path class="st0" d="M12.87,72.11c3.12,0,5.02-1.62,5.02-4.17c0-2.72-1.9-4.14-5.05-4.14H8.73v8.31H12.87z M0,56.47L0,56.47h13.52
		c7.97,0,13.1,4.08,13.1,11.17c0,7.43-5.73,11.34-13.55,11.34H8.73v9.01H0V56.47z"/>
	<path class="st0" d="M60.6,56.47h8.76v31.52H60.6V56.47z M43.6,80.65L43.6,80.65c2.86,0,4.59-1.3,4.59-3.8
		c0-2.21-1.73-3.63-4.56-3.63h-4.59v7.43H43.6z M30.3,56.47L30.3,56.47h8.73v9.89h4.79c7.57,0,13.1,3.6,13.1,10.71
		c0,6.8-4.96,10.91-12.64,10.91H30.3V56.47z"/>
	<polygon class="st0" points="74.92,56.47 83.65,56.47 83.65,68.26 94.88,68.26 94.88,56.47 103.61,56.47 103.61,87.99 94.88,87.99 
		94.88,76 83.65,76 83.65,87.99 74.92,87.99 	"/>
	<path class="st0" d="M133.14,72.23c0-4.56-3.29-8.53-8.11-8.53c-4.76,0-7.97,3.88-7.97,8.53c0,4.54,3.29,8.5,8.05,8.5
		C129.94,80.73,133.14,76.85,133.14,72.23L133.14,72.23z M108.11,72.23L108.11,72.23c0-9.07,7.29-16.41,17.01-16.41
		c9.75,0,16.95,7.26,16.95,16.41c0,9.04-7.31,16.38-17.04,16.38S108.11,81.35,108.11,72.23L108.11,72.23z"/>
	<polygon class="st0" points="146.61,56.47 155.34,56.47 155.34,69.25 166.2,56.47 176.57,56.47 164.64,70.02 176.97,87.99 
		166.48,87.99 158.54,76.28 155.34,79.82 155.34,87.99 146.61,87.99 	"/>
	<path class="st0" d="M256.62,81.55c2.66,0,4.2-1.02,4.2-2.98c0-1.7-1.36-2.83-4.28-2.83h-6.66v5.81H256.62z M255.37,69.62
		L255.37,69.62c2.64,0,4.14-0.88,4.14-2.83c0-1.7-1.36-2.69-3.97-2.69h-5.67v5.53H255.37z M241.37,57.06L241.37,57.06h16.16
		c3.97,0,6.75,0.99,8.59,2.83c1.28,1.28,2.04,2.92,2.04,5.19c0,3.66-2.07,5.81-4.88,7.03c3.83,1.25,6.26,3.4,6.26,7.77
		c0,5.41-4.42,8.7-11.93,8.7h-16.24V57.06z"/>
	<path class="st0" d="M297.52,72.82c0-4.54-3.29-8.5-8.11-8.5c-4.79,0-7.99,3.86-7.99,8.5c0,4.56,3.29,8.5,8.08,8.5
		C294.32,81.33,297.52,77.47,297.52,72.82L297.52,72.82z M272.47,72.82L272.47,72.82c0-9.04,7.31-16.38,17.04-16.38
		s16.92,7.26,16.92,16.38c0,9.04-7.29,16.38-17.01,16.38C279.67,89.21,272.47,81.98,272.47,72.82L272.47,72.82z"/>
	<polygon class="st0" points="308.55,82.23 324.34,64.46 309.09,64.46 309.09,57.06 336.42,57.06 336.42,63.41 320.6,81.21 
		336.42,81.21 336.42,88.58 308.55,88.58 	"/>
	<path class="st0" d="M363.57,72.82c0-4.54-3.29-8.5-8.11-8.5c-4.79,0-7.97,3.86-7.97,8.5c0,4.56,3.29,8.5,8.05,8.5
		C360.37,81.33,363.57,77.47,363.57,72.82L363.57,72.82z M338.51,72.82L338.51,72.82c0-9.04,7.31-16.38,17.04-16.38
		s16.92,7.26,16.92,16.38c0,9.04-7.29,16.38-17.01,16.38C345.74,89.21,338.51,81.98,338.51,72.82L338.51,72.82z"/>
	<path class="st0" d="M391.52,72.2c2.98,0,4.68-1.45,4.68-3.83c0-2.49-1.79-3.74-4.71-3.74h-5.73v7.57H391.52z M377.04,57.06
		L377.04,57.06h14.88c4.82,0,8.16,1.28,10.29,3.37c1.84,1.84,2.78,4.28,2.78,7.48c0,4.82-2.55,8.02-6.49,9.67l7.54,11h-10.09
		l-6.35-9.55h-3.83v9.55h-8.73V57.06z"/>
	<rect x="409.58" y="57.06" class="st0" width="8.79" height="31.52"/>
	<path class="st0" d="M43.94,47.68h12.84L54.88,0H40.65L29.57,25.97c-0.57,1.39-0.94,2.72-1.19,3.6c-0.23-0.88-0.62-2.21-1.16-3.6
		L16.1,0H1.87L0,47.68h12.84l0.62-25.48v-1.87l11.08,27.35h7.65l11.2-27.35v2.18L43.94,47.68z M101.4,47.68L101.4,47.68V36.37H78.35
		v-6.66h19.16V18.77H78.35v-7.2h22.42V0H65.59v47.68H101.4z M107.83,0L107.83,0v47.68h16.87c16.98,0,27.3-9.44,27.3-23.75
		C151.99,9.55,142.07,0,124.7,0H107.83z M120.56,36.51L120.56,36.51V11.17h4.14c9.95,0,14.4,4.08,14.4,12.76
		c0,8.62-4.85,12.59-14.4,12.59H120.56z M170.36,0L170.36,0h-12.76v47.68h12.76V0z M191.08,40.11L191.08,40.11h20.32l2.66,7.57
		h13.61L209.93,0h-17.38l-17.83,47.68h13.69L191.08,40.11z M207.33,28.54L207.33,28.54h-12.25l4.76-13.69
		c0.54-1.7,1.02-3.12,1.39-4.37c0.34,1.25,0.79,2.66,1.33,4.37L207.33,28.54z"/>
	<path class="st0" d="M210.22,53.29c10.8,0,19.53,8.76,19.53,19.53c0,10.8-8.73,19.53-19.53,19.53c-10.77,0-19.53-8.73-19.53-19.53
		C190.69,62.05,199.45,53.29,210.22,53.29L210.22,53.29z M220,64.09c-0.31-0.31-0.74-0.51-1.16-0.51c-0.48,0-0.91,0.23-1.19,0.57
		l-0.03,0.06c-0.48,0.6-0.48,1.45,0.06,2.01c1.62,1.81,2.52,4.17,2.52,6.63c0,5.47-4.48,9.95-9.95,9.95c-5.5,0-9.98-4.48-9.98-9.95
		c0-2.47,0.91-4.82,2.55-6.63c0.51-0.57,0.54-1.42,0.06-2.01l-0.03-0.06c-0.31-0.34-0.74-0.57-1.22-0.57c-0.43,0-0.85,0.2-1.16,0.51
		c-2.15,2.41-3.32,5.53-3.32,8.76c0,1.76,0.34,3.49,1.02,5.1c0.65,1.56,1.62,2.95,2.81,4.14c1.19,1.22,2.61,2.15,4.17,2.81
		c1.62,0.68,3.32,1.05,5.1,1.05c1.76,0,3.46-0.37,5.07-1.05c1.56-0.65,2.98-1.59,4.17-2.81c1.22-1.19,2.15-2.58,2.81-4.14
		c0.68-1.62,1.05-3.34,1.05-5.1C223.34,69.62,222.15,66.5,220,64.09L220,64.09z M210.22,72.51h0.03c0.85,0,1.56-0.71,1.56-1.56
		V59.84c0-0.85-0.71-1.56-1.56-1.56h-0.03c-0.85,0-1.56,0.71-1.56,1.56v11.11C208.66,71.8,209.37,72.51,210.22,72.51L210.22,72.51z"
		/>
</g>
<path class="st1" d="M232.13,0v47.68h12.76V36.74h6.86c13.07,0,20.41-6.55,20.41-18.2C272.15,6.66,264.64,0,251.21,0H232.13z
	 M244.89,25.97L244.89,25.97V10.94h6.24c5.56,0,8.67,2.75,8.67,7.6c0,4.76-2.89,7.43-8.11,7.43H244.89z M285.45,40.11L285.45,40.11
	l-2.66,7.57h-13.66L286.92,0h17.38l17.74,47.68h-13.61l-2.66-7.57H285.45z M301.72,28.54L301.72,28.54l-4.79-13.69
	c-0.54-1.7-0.99-3.12-1.33-4.37c-0.37,1.25-0.85,2.66-1.39,4.37l-4.76,13.69H301.72z M368.87,46.69L368.87,46.69l-10.63-14.4
	c5.87-2.58,9.07-7.51,9.07-14.46c0-11.42-7.6-17.83-21.03-17.83h-19.79v47.68h12.73V34.38h6.49l9.55,13.29h13.61V46.69z
	 M339.22,24.46L339.22,24.46V10.94h7.2c5.33,0,8.31,2.49,8.31,6.89c0,4.22-2.98,6.63-8.31,6.63H339.22z M392.17,31.27L392.17,31.27
	l11.79,16.41h14.4v-0.85l-17.91-25.57l17.12-20.41V0h-13.75l-17.83,21.12V0h-12.76v47.68h12.76v-9.04L392.17,31.27z"/>
</svg>
