<?xml version="1.0" encoding="utf-8"?>
<!-- Generator: Adobe Illustrator 25.0.0, SVG Export Plug-In . SVG Version: 6.00 Build 0)  -->
<svg version="1.1" id="Layer_1" xmlns="http://www.w3.org/2000/svg" xmlns:xlink="http://www.w3.org/1999/xlink" width="314px" height="185px" x="0px" y="0px"
	 viewBox="0 0 312.07 58.37" style="enable-background:new 0 0 312.07 58.37;" xml:space="preserve">
<style type="text/css">
	.st0{fill:#FAC4CA;}
</style>
<g>
	<path class="st0" d="M56.69,27.13c0.23-0.2,0.51-0.37,0.85-0.51c0.37-0.14,0.79-0.2,1.33-0.2s1.02,0.06,1.42,0.23
		c0.4,0.14,0.74,0.37,1.02,0.62c0.28,0.28,0.51,0.57,0.71,0.94c0.2,0.34,0.37,0.71,0.51,1.08h2.49c-0.17-0.6-0.45-1.16-0.79-1.7
		c-0.34-0.51-0.77-0.99-1.28-1.39c-0.51-0.37-1.08-0.68-1.76-0.91c-0.65-0.23-1.39-0.37-2.21-0.37c-0.99,0-1.87,0.14-2.66,0.37
		c-0.77,0.23-1.42,0.54-1.96,0.94c-0.54,0.43-0.94,0.88-1.22,1.45c-0.28,0.54-0.43,1.13-0.43,1.79c0,0.6,0.11,1.11,0.37,1.59
		c0.26,0.45,0.57,0.85,0.99,1.22c0.4,0.37,0.85,0.68,1.39,0.99c0.51,0.28,1.05,0.57,1.59,0.85c0.54,0.26,1.08,0.54,1.59,0.79
		c0.51,0.26,0.99,0.54,1.39,0.85c0.4,0.31,0.74,0.65,0.99,1.05c0.26,0.37,0.37,0.79,0.37,1.28c0,0.37-0.09,0.71-0.26,0.96
		c-0.14,0.26-0.37,0.48-0.62,0.62c-0.26,0.17-0.57,0.28-0.91,0.37c-0.31,0.06-0.65,0.11-0.99,0.11c-0.51,0-0.96-0.09-1.33-0.23
		c-0.4-0.17-0.74-0.37-1.02-0.62c-0.28-0.26-0.51-0.57-0.71-0.91c-0.17-0.34-0.31-0.74-0.43-1.13h-2.75
		c0.11,0.65,0.31,1.25,0.62,1.81c0.28,0.57,0.71,1.05,1.22,1.45c0.51,0.4,1.13,0.71,1.87,0.94c0.74,0.23,1.59,0.34,2.55,0.34
		c1.05,0,1.96-0.11,2.75-0.37c0.79-0.23,1.47-0.57,2.01-0.96c0.54-0.43,0.94-0.94,1.22-1.5c0.26-0.57,0.4-1.19,0.4-1.84
		c0-0.57-0.11-1.08-0.37-1.53c-0.28-0.43-0.6-0.85-1.02-1.22c-0.43-0.37-0.91-0.71-1.45-1.02c-0.54-0.31-1.08-0.6-1.64-0.88
		c-0.57-0.28-1.11-0.54-1.64-0.82c-0.54-0.28-1.02-0.57-1.42-0.88c-0.43-0.28-0.77-0.62-1.02-0.96c-0.26-0.37-0.4-0.77-0.4-1.19
		c0-0.26,0.06-0.51,0.14-0.77C56.32,27.58,56.47,27.36,56.69,27.13L56.69,27.13z M270.23,19.25c1.76,0.06,2.83,1.98,1.56,3.57
		c0,0-4.2,4.14-13.92,7.03C258.09,29.34,261.01,19.02,270.23,19.25L270.23,19.25z M296.62,28.6c-3.86,7.91-14.46,15.22-27.41,18.34
		c-8.7,2.07-11.62-2.18-12.73-4.99c-1.56-4,0.37-8.99,0.54-9.5c2.89-1.05,15.96-4.42,17.74-10.09c0.26-0.74,0.17-1.9-0.11-2.58
		c-1.76-4.2-11.57-3.6-18.71,4.62c-0.26,0.28-1.56,2.18-1.93,2.95c-0.6,1.08-1.11,2.18-1.53,3.34l-0.74,2.24
		c-0.37,1.36-0.6,2.58-0.77,3.71c-0.03,0.09-0.09,0.2-0.14,0.31c-3.83,8.19-8.08,12.7-10.18,11.4c-0.82-0.51-0.79-1.9-0.82-2.89
		c0-3.4,1.45-18.37-1.08-21.54c-2.47-3.12-5.9-1.13-6.69-0.62c-1.45,0.91-4,3.34-6.07,7.14c-0.71,1.36-1.39,2.75-2.07,4.11
		c-0.28,0.62-0.54,1.25-0.82,1.9c0.06-2.07,0.11-7.23,0.11-10.09c0-4.48-0.6-10.46-4.54-11.23c-0.91-0.17-4.25-0.74-6.38,2.86
		c-4.76,8.11-7.82,21.63-7.88,21.63c-0.03-0.34,0.06-14.83,0.11-15.59c0.09-1.33-1.87-3.17-3.69-1.3c-0.94,0.96-1.84,1.98-2.75,3
		c-16.7,18-32,26.28-33.79,27.24c-3,1.67-6.21,2.78-9.69,3c-3.29,0.2-6.38-0.45-8.53-3.09c-3.77-4.65-1.11-10.35-0.88-10.89
		c0.51-1.36,1.93-3.46,2.49-4.56c0.06-0.11,0.03-0.09-0.06-0.03l-1.62-1.19c-0.34,0.48-0.71,0.94-1.08,1.39
		c-0.37,0.43-0.77,0.82-1.19,1.16c-0.43,0.34-0.91,0.6-1.39,0.79c-0.48,0.2-1.02,0.28-1.59,0.28c-0.74,0-1.45-0.14-2.15-0.43
		c-0.68-0.26-1.3-0.68-1.81-1.22c-0.54-0.54-0.96-1.22-1.28-2.04c-0.31-0.79-0.48-1.73-0.48-2.78c0-1.05,0.17-1.98,0.45-2.81
		c0.31-0.79,0.71-1.47,1.22-2.01c0.54-0.57,1.11-0.96,1.79-1.25c0.68-0.28,1.39-0.43,2.15-0.43c0.54,0,1.05,0.11,1.56,0.28
		c0.51,0.2,0.99,0.45,1.45,0.77c0.45,0.34,0.88,0.71,1.28,1.13c0.4,0.45,0.77,0.91,1.11,1.39l1.7-1.19
		c-0.4-0.62-0.82-1.22-1.33-1.76c-0.48-0.54-1.05-0.99-1.7-1.39c-0.62-0.4-1.33-0.71-2.1-0.94c-0.79-0.2-1.64-0.31-2.58-0.31
		c-1.42,0-2.69,0.2-3.83,0.62c-1.16,0.43-2.15,1.02-2.98,1.76c-0.82,0.77-1.47,1.67-1.93,2.69c-0.45,1.05-0.68,2.18-0.68,3.43
		c0,1.28,0.23,2.44,0.71,3.49c0.48,1.05,1.13,1.93,2.01,2.69c0.85,0.74,1.87,1.3,3.06,1.7c1.16,0.43,2.47,0.62,3.86,0.62
		c0.82,0,1.62-0.11,2.35-0.37c0.14-0.06,0.31-0.11,0.45-0.17c-1.45,2.86-4.25,11.76,3.15,15.76c5.19,2.81,12.67,0.17,15.25-1.02
		c18.34-8.25,36.26-27.75,37.64-29.17c0.45-0.45,0.82-0.99,1.33-1.64c0.09,0.37-0.45,19.87-0.57,21.43c1.08,2.55,5.16,1.7,5.36,0
		s-0.28-4.65,4.93-20.07c0.88-2.55,2.72-7.94,5.5-9.35c1.3-0.68,2.49,0.34,2.58,3.06c0.17,4.14-0.14,19.45-0.14,21.2
		c0.03,1.11,1.47,1.67,2.69,1.67c1.3,0,2.01,0,2.41-1.59c0.4-1.47,1.11-3.8,1.67-5.22c1.42-3.6,2.81-6.77,5.36-9.78
		c4.03-4.68,5.47-1.11,5.64-0.43c0.6,2.58-0.14,13.15-0.26,16.72c-0.23,6.86,2.04,7.48,3.46,7.99c3.66,1.3,8.36-3.09,11.71-10.83
		c0.2,4.14,1.96,5.95,2.47,6.58c3.46,4.2,9.92,4.25,12.87,3.77c8.14-1.39,15.42-5.81,16.5-6.43c2.18-1.25,11.76-7.14,15.51-15.42
		C298.15,28.6,297.61,27.5,296.62,28.6L296.62,28.6z M298.91,14.17c0.14-0.28,0.23-0.82-0.31-1.11c-0.57-0.31-1.08,0.03-1.25,0.31
		c-0.4,0.62-0.23,1.53,0.17,1.62C298.29,15.22,298.77,14.51,298.91,14.17L298.91,14.17z M300.78,7.54c-1.36-0.88-3.34-0.82-4.68,0.2
		c-1.42,1.05-2.01,2.55-1.56,4.28c0.65-2.38,1.76-3.26,3.57-3.69c1.19-0.28,3.66,0.23,4.51,3.4C302.91,10.32,302.2,8.45,300.78,7.54
		L300.78,7.54z M292.9,19.67c1.93,1.25,5.16,1.05,6.6-0.4c-2.75,0.37-5.33-0.71-6.12-2.86c-0.45-1.19-1.22-1.73-2.3-2.15
		C290.35,16.24,291.15,18.57,292.9,19.67L292.9,19.67z M292.28,11.85c-0.03,0.34,0.14,0.74,0.28,1.08c0.37,0.85,0.85,1.64,1.13,2.49
		c0.6,1.73,1.81,2.69,3.49,3.09c2.55,0.62,4.99-0.71,6.41-3.4c-0.06,0-6.72,4.45-9.75-2.61c-0.14-0.34-0.31-0.74-0.57-0.99
		C292.82,11.06,292.39,11.25,292.28,11.85L292.28,11.85z M306.37,16.78c0.71-1.93,0.94-2.69,0.77-6.09
		c-0.09-1.7-1.05-2.69-2.75-3.12c1.64,2.89,1.3,5.64-0.34,8.36c-1.56,2.61-3.74,4.48-7.03,5.19
		C301.07,22.48,305.23,19.82,306.37,16.78L306.37,16.78z M303.19,7.31c-0.79-0.82-1.79-1.5-2.83-1.98
		c-4.34-2.01-9.27,0.88-9.64,5.64c-0.11,1.3,0.28,2.35,1.5,3.06c-1.42-2.58-0.37-4.17,1.45-3.17c0.06-2.95,2.1-4.37,4.34-4.62
		c1.96-0.23,3.97,0.77,4.85,2.55c1.33,2.72,0.45,4.93-2.1,6.83c0.45-0.09,0.6-0.11,0.71-0.14C304.19,14.68,306,10.15,303.19,7.31
		L303.19,7.31z M303.93,6.55c3.06,0.99,4.05,2.24,4.05,5.5c0,0.4-0.03,0.85,0.11,1.22c0.54,1.28,1.13,2.49,1.9,4.11
		c0.65-1.05,1.39-1.9,1.7-2.86c1.3-3.97-0.88-7.97-4.99-9.3c-1.79-0.57-3.57-0.79-5.47-0.37C302.12,5.5,302.97,6.21,303.93,6.55
		L303.93,6.55z M290.07,14.37c0.11,0,0.54-0.34,0.23-1.36c-0.2-0.68-0.31-1.59-0.26-2.18c0.4-3.77,2.89-7,7.77-6.83
		c2.07,0.06,4.17-0.06,6.43-0.09c-0.34-0.6-0.57-1.08-0.91-1.47c-1.96-2.41-5.56-3.15-8.36-1.7
		C290.38,3.06,288.06,9.55,290.07,14.37L290.07,14.37z M308.75,23.56c1.08-2.47,0.48-6.86-0.91-8.62c-0.31,1.67-0.91,2.98-1.84,4.31
		c-0.88,1.25-1.9,2.38-2.78,3.66c-1.13,1.53-2.58,2.83-3.91,4.25c0.82,0.65,1.98,0.85,3.2,0.77
		C305.43,27.72,307.56,26.28,308.75,23.56L308.75,23.56z M303.08,21.74c-3.2,1.19-7.57,1.5-11.17,0.88c-1.7-0.31-3.8-1.25-5.53-2.83
		c-0.14,0.57-0.17,1.22-0.09,1.87c0.26,2.72,2.35,5.19,5.02,5.81c4.11,0.94,7.43-0.62,10.23-3.49
		C302.17,23.33,302.68,22.59,303.08,21.74L303.08,21.74z M296.31,21.6c-0.45-0.14-0.79-0.31-1.28-0.37
		c-2.38-0.37-3.94-1.79-4.73-3.97c-0.26-0.71-0.48-1.42-0.77-2.1c-0.71-1.7-1.05-3.46-0.85-5.27c0.2-1.53,0.57-3,0.88-4.62
		c-0.51,0.11-1.08,0.17-1.59,0.37c-2.92,1.13-4.68,4.17-4.28,7.29C284.29,17.69,290.04,23.13,296.31,21.6L296.31,21.6z
		 M299.57,12.84c-0.14-1.05-0.74-1.81-1.7-1.93c-0.94-0.11-1.5,0.23-1.98,1.08c-0.34,0.6-0.26,1.79,0.54,2.52
		C296.16,12.27,298.26,11.74,299.57,12.84L299.57,12.84z M301.75,12.22c0.03-1.42-0.96-2.75-2.27-3.09c-1.56-0.4-2.81,0.11-3.54,1.5
		c1.5-0.77,2.86-0.65,3.86,0.68c1.02,1.36,0.57,2.64-0.57,3.88C300.76,14.85,301.75,13.64,301.75,12.22L301.75,12.22z M105.22,41.53
		h12.13v-1.67h-8.14v-6.43h6.75v-1.39h-6.75v-5.39h8.14v-1.39h-12.13V41.53z M86.88,31.07c-0.11,0.37-0.28,0.68-0.51,0.96
		c-0.23,0.28-0.51,0.51-0.85,0.68c-0.34,0.17-0.74,0.26-1.19,0.26h-1.3v-6.12h1.19c0.4,0,0.77,0.09,1.11,0.23
		c0.34,0.11,0.65,0.31,0.91,0.6c0.26,0.26,0.45,0.57,0.6,0.94c0.14,0.4,0.2,0.82,0.2,1.3C87.02,30.33,86.97,30.7,86.88,31.07
		L86.88,31.07z M89.35,26.42c-0.6-0.37-1.28-0.65-2.07-0.85s-1.67-0.31-2.58-0.31h-5.67v16.27h4v-7.09h2.38
		c0.71,0,1.45-0.09,2.13-0.28c0.71-0.2,1.33-0.48,1.9-0.85c0.54-0.4,0.96-0.88,1.3-1.45c0.34-0.57,0.51-1.25,0.51-2.01
		s-0.17-1.42-0.51-1.98C90.4,27.27,89.94,26.82,89.35,26.42L89.35,26.42z M160.55,25.26v1.39h5.64v14.88h3.97V26.65h5.64v-1.39
		H160.55z M7.99,31.04c-0.17,0.37-0.4,0.68-0.71,0.94c-0.31,0.26-0.65,0.45-1.08,0.6c-0.43,0.14-0.85,0.2-1.33,0.2H4v-5.92h1.62
		c0.37,0,0.74,0.09,1.08,0.23c0.31,0.14,0.6,0.34,0.82,0.62c0.26,0.26,0.43,0.57,0.57,0.91c0.11,0.37,0.2,0.77,0.2,1.19
		C8.28,30.25,8.16,30.67,7.99,31.04L7.99,31.04z M10.2,33.08c0.45-0.28,0.85-0.57,1.19-0.94c0.34-0.34,0.6-0.71,0.77-1.13
		c0.17-0.43,0.26-0.85,0.26-1.3c0-0.65-0.11-1.25-0.4-1.79c-0.26-0.54-0.65-0.99-1.16-1.39c-0.54-0.4-1.19-0.71-1.98-0.94
		c-0.79-0.23-1.7-0.34-2.75-0.34H0v16.27h4v-7.34h0.71l5.44,7.34h4.34l-5.78-7.8C9.24,33.56,9.75,33.34,10.2,33.08L10.2,33.08z
		 M26.96,41.53h12.13v-1.67h-8.14v-6.43h6.77v-1.39h-6.77v-5.39h8.14v-1.39H26.96V41.53z"/>
</g>
</svg>
