<?xml version="1.0" encoding="utf-8"?>
<!-- Generator: Adobe Illustrator 25.0.0, SVG Export Plug-In . SVG Version: 6.00 Build 0)  -->
<svg version="1.1" id="Layer_1" xmlns="http://www.w3.org/2000/svg" xmlns:xlink="http://www.w3.org/1999/xlink" width="314px" height="185px" x="0px" y="0px"
	 viewBox="0 0 232.45 53.73" style="enable-background:new 0 0 232.45 53.73;" xml:space="preserve">
<style type="text/css">
	.st0{fill-rule:evenodd;clip-rule:evenodd;fill:#FFFFFF;}
	.st1{fill:#221F20;}
	.st2{fill-rule:evenodd;clip-rule:evenodd;fill:#2E3790;}
	.st3{fill:#F7CB19;}
	.st4{fill:#C2D83F;}
	.st5{fill:#E3302F;}
	.st6{fill-rule:evenodd;clip-rule:evenodd;fill:#1B4694;}
	.st7{fill-rule:evenodd;clip-rule:evenodd;fill:#C2D83F;}
	.st8{fill-rule:evenodd;clip-rule:evenodd;fill:#FEDB00;}
	.st9{fill-rule:evenodd;clip-rule:evenodd;fill:#EE3928;}
</style>
<g>
	<g>
		<path class="st0" d="M94.61,25.48c0.09,0.54,0.14,1.08,0.2,1.62l0.11,1.11v0.06c0,0.28,0.03,0.6,0.06,0.88
			c0.09,0.74,0.28,1.53,0.48,2.24c0.34,1.22,0.62,2.49,0.77,3.74c0.17,1.79-0.4,3.51-1.59,4.85c-1.11,1.28-2.64,2.01-4.31,2.15
			c-2.21,0.23-4.14-0.54-5.44-1.98c-0.09,0.11-0.2,0.23-0.28,0.34l-0.06,0.09l-0.09,0.09c-1.11,1.25-2.61,1.98-4.31,2.15
			s-3.37-0.28-4.71-1.36c-0.14-0.11-0.28-0.23-0.43-0.37c-0.74,1.02-1.76,1.81-3,2.24h-0.03h-0.03c-1.5,0.51-3.12,0.48-4.59-0.14
			c-0.99-0.4-1.76-1.05-2.38-1.87c-0.14,0-0.28-0.03-0.43-0.03c-1.05-0.09-2.13-0.28-3.12-0.68c-1.73-0.71-3.34-1.7-4.65-3.03
			c-2.32,1.87-5.1,2.78-8.16,2.75c-1.22-0.03-2.44-0.2-3.63-0.48c-0.57,0.14-1.16,0.23-1.76,0.2c-1.39-0.03-2.69-0.45-3.8-1.28
			c-0.62,0.82-1.47,1.5-2.44,1.96c-1.67,0.79-3.54,0.91-5.24,0.14c-1.47-0.62-2.58-1.76-3.29-3.2l-1.3-2.75
			c-0.03,0.09-0.06,0.14-0.09,0.23h-0.03v0.03c-0.82,1.56-1.9,2.95-3.2,4.14h-0.03l-0.03,0.03c-1.67,1.5-3.69,2.52-5.9,2.86
			c-2.95,0.48-6.12,0.43-8.79-1.05c-4.88-2.75-7-8.05-7.85-13.32c-0.11-0.79-0.2-1.62-0.28-2.41c-0.09-0.65-0.14-1.33-0.26-1.98
			c-0.09-0.62-0.17-1.25-0.26-1.84C0.39,21,0.33,20.46,0.25,19.93c-0.23-1.36-0.2-2.72,0.11-4.05l0.03-0.03l0,0
			c0.6-2.55,2.32-4.56,5.02-4.99c1.56-0.26,3.15,0.06,4.51,0.88c1.64,0.96,2.72,2.58,3,4.45c0.14,0.88,0.28,1.79,0.4,2.66
			c0.14,0.85,0.26,1.67,0.4,2.52c0.11,0.82,0.2,1.62,0.28,2.41c0.09,0.65,0.14,1.3,0.26,1.96c0.17,1.08,0.45,2.13,0.88,3.12
			l0.03,0.03c0.06,0.11,0.14,0.34,0.26,0.54c0.11,0,0.23-0.03,0.34-0.03c0.43-0.6,0.6-2.69,0.62-3.37v-0.03v-0.03
			c0.14-2.98-0.34-6.15-0.79-9.1c-0.23-1.42-0.03-2.86,0.54-4.17l0.03-0.06l0,0c0.96-2.13,2.81-3.51,5.07-3.88
			c2.1-0.34,4.11,0.28,5.56,1.81c0.94,0.99,1.56,2.18,1.76,3.54c0.14,0.94,0.28,1.87,0.43,2.81c0,0,0,0,0.03,0
			c1.19-1.25,2.58-2.27,4.17-3c1.39-0.65,2.83-0.94,4.25-0.71c0.14-1.11,0.48-2.15,1.05-3.12c1.22-2.04,3.26-3.29,5.64-3.23
			c3.6,0.06,6.01,2.72,5.95,6.26c0,0.4-0.06,0.79-0.11,1.19c0,0.06,0,0.09,0,0.14v0.09c3.49,0.11,6.52,1.56,8.76,4.28
			c0.17,0.23,0.34,0.43,0.51,0.65c0.99-0.77,2.1-1.39,3.29-1.84c3.4-1.36,6.92-1.36,10.29,0.03c0.45,0.17,0.88,0.4,1.3,0.65
			c1.05-0.91,2.32-1.45,3.71-1.59c1.22-0.11,2.44,0.06,3.51,0.6c1.02-0.51,2.13-0.82,3.29-0.94c3.32-0.31,6.26,0.94,8.08,3.66
			L94.61,25.48z"/>
		<path class="st1" d="M69.84,43.76c-0.86,0-1.71-0.17-2.5-0.5c-0.93-0.37-1.71-0.98-2.39-1.86c-0.06,0-0.12-0.01-0.17-0.01
			c-0.07-0.01-0.13-0.01-0.2-0.01c-1.2-0.1-2.26-0.33-3.16-0.69c-1.84-0.76-3.4-1.76-4.62-2.99c-2.27,1.8-4.97,2.72-8.01,2.72
			c-0.05,0-0.1,0-0.14,0c-1.18-0.03-2.4-0.19-3.63-0.48c-0.63,0.15-1.23,0.22-1.76,0.2c-1.38-0.03-2.69-0.46-3.77-1.24
			c-0.63,0.8-1.46,1.46-2.42,1.91c-1.77,0.84-3.66,0.89-5.33,0.14c-1.44-0.61-2.59-1.73-3.34-3.25l-1.2-2.54c0,0,0,0,0,0l-0.02,0.07
			h-0.02c-0.82,1.55-1.9,2.95-3.21,4.14l-0.03,0.03h-0.03c-1.74,1.56-3.79,2.56-5.95,2.89c-3.55,0.58-6.53,0.23-8.85-1.06
			c-4.19-2.36-6.85-6.87-7.9-13.39c-0.1-0.71-0.18-1.44-0.26-2.15l-0.03-0.27c-0.03-0.22-0.05-0.45-0.08-0.68
			c-0.05-0.43-0.1-0.87-0.17-1.3c-0.09-0.63-0.17-1.25-0.26-1.85c-0.04-0.26-0.07-0.52-0.11-0.78c-0.04-0.29-0.08-0.58-0.12-0.87
			c-0.23-1.4-0.19-2.77,0.11-4.09l0.01-0.03l0.03-0.03c0.65-2.75,2.55-4.64,5.09-5.04c1.57-0.26,3.2,0.06,4.57,0.89
			c1.65,0.97,2.76,2.61,3.05,4.52c0.14,0.86,0.28,1.77,0.4,2.67c0.07,0.41,0.13,0.82,0.19,1.23c0.06,0.43,0.13,0.85,0.2,1.29
			c0.11,0.82,0.2,1.63,0.28,2.41c0.03,0.22,0.05,0.44,0.08,0.66c0.05,0.43,0.1,0.87,0.17,1.3c0.17,1.11,0.47,2.14,0.87,3.08
			l0.03,0.04c0.02,0.04,0.04,0.09,0.07,0.16c0.04,0.1,0.09,0.21,0.15,0.33c0.03,0,0.07-0.01,0.1-0.01c0.04-0.01,0.09-0.01,0.13-0.01
			c0.39-0.62,0.55-2.61,0.58-3.28v-0.05c0.14-3.01-0.35-6.24-0.79-9.08c-0.23-1.42-0.04-2.88,0.55-4.22l0.03-0.06
			c0.96-2.13,2.84-3.56,5.15-3.94c2.15-0.35,4.21,0.32,5.64,1.84c0.99,1.05,1.59,2.26,1.78,3.6l0.4,2.63
			c1.2-1.23,2.57-2.21,4.08-2.91c1.45-0.68,2.86-0.93,4.21-0.73c0.15-1.11,0.51-2.14,1.05-3.06c1.28-2.14,3.36-3.34,5.73-3.28
			c1.75,0.03,3.32,0.69,4.42,1.86c1.08,1.15,1.66,2.76,1.63,4.51c0,0.4-0.06,0.81-0.11,1.2l0,0.12c3.51,0.14,6.53,1.63,8.74,4.31
			c0.09,0.12,0.17,0.22,0.26,0.33c0.07,0.08,0.13,0.16,0.2,0.25c0.99-0.75,2.08-1.35,3.24-1.8c3.41-1.37,7-1.36,10.36,0.03
			c0.39,0.15,0.78,0.34,1.26,0.62c1.04-0.88,2.33-1.42,3.71-1.56c1.28-0.12,2.5,0.08,3.52,0.58c1.01-0.5,2.11-0.81,3.28-0.92
			c3.41-0.32,6.39,1.03,8.17,3.7l1.94,5.48c0.09,0.54,0.14,1.09,0.2,1.62l0.11,1.18c0,0.28,0.03,0.6,0.06,0.87
			c0.09,0.77,0.3,1.59,0.48,2.22c0.39,1.39,0.64,2.62,0.77,3.76c0.17,1.82-0.4,3.57-1.61,4.92c-1.1,1.26-2.65,2.04-4.37,2.19
			c-2.16,0.22-4.08-0.47-5.45-1.93c-0.02,0.03-0.05,0.06-0.07,0.09c-0.05,0.05-0.09,0.11-0.14,0.16l-0.05,0.08l-0.1,0.1
			c-1.11,1.25-2.62,2.01-4.37,2.18c-1.76,0.18-3.46-0.31-4.78-1.38c-0.12-0.09-0.23-0.19-0.35-0.3c-0.77,1.02-1.8,1.78-2.98,2.18
			l-0.07,0.01C71.28,43.65,70.55,43.76,69.84,43.76z M64.58,41.17c0.06,0,0.14,0.01,0.21,0.01c0.07,0.01,0.13,0.01,0.2,0.01h0.05
			l0.03,0.04c0.66,0.87,1.43,1.47,2.34,1.84c1.42,0.6,3.02,0.65,4.52,0.14l0.07-0.01c1.18-0.41,2.2-1.17,2.94-2.2l0.07-0.09L75.1,41
			c0.14,0.14,0.27,0.24,0.41,0.36c1.29,1.04,2.93,1.52,4.64,1.35c1.7-0.17,3.16-0.9,4.24-2.12l0.09-0.09l0.04-0.07
			c0.05-0.06,0.1-0.12,0.15-0.18c0.05-0.06,0.1-0.11,0.14-0.17l0.07-0.1l0.08,0.09c1.33,1.48,3.23,2.17,5.36,1.95
			c1.67-0.14,3.18-0.9,4.24-2.12c1.18-1.32,1.73-3.01,1.56-4.77C96,34,95.75,32.78,95.37,31.4c-0.18-0.64-0.4-1.47-0.49-2.26
			c-0.03-0.28-0.06-0.6-0.06-0.89V28.2l-0.11-1.1c-0.06-0.53-0.11-1.07-0.2-1.6l-1.92-5.43c-1.75-2.63-4.59-3.91-7.98-3.59
			c-1.16,0.11-2.25,0.42-3.25,0.93l-0.04,0.02l-0.04-0.02c-1-0.5-2.2-0.7-3.46-0.59c-1.37,0.14-2.64,0.68-3.66,1.56l-0.05,0.05
			l-0.06-0.04c-0.5-0.3-0.89-0.5-1.29-0.64c-3.32-1.37-6.85-1.38-10.22-0.03c-1.17,0.45-2.27,1.06-3.27,1.83l-0.08,0.06l-0.06-0.08
			c-0.08-0.11-0.17-0.22-0.25-0.32c-0.09-0.11-0.17-0.21-0.26-0.33c-2.19-2.66-5.19-4.13-8.68-4.24l-0.1,0v-0.32
			c0.06-0.4,0.11-0.8,0.11-1.19c0.03-1.7-0.53-3.26-1.58-4.37c-1.06-1.13-2.58-1.77-4.28-1.79c-0.05,0-0.1,0-0.15,0
			c-2.23,0-4.19,1.15-5.4,3.19c-0.54,0.92-0.89,1.96-1.04,3.08l-0.01,0.1l-0.1-0.02c-1.34-0.21-2.75,0.02-4.19,0.7
			c-1.54,0.71-2.93,1.72-4.14,2.98l-0.03,0.03h-0.16l-0.44-2.89c-0.19-1.3-0.77-2.47-1.73-3.49c-1.41-1.49-3.35-2.13-5.47-1.78
			c-2.24,0.36-4.06,1.76-5,3.83l-0.03,0.06c-0.57,1.3-0.75,2.73-0.53,4.11c0.44,2.86,0.94,6.1,0.79,9.12l0,0.05
			c-0.03,0.75-0.21,2.82-0.64,3.43l-0.03,0.04h-0.05c-0.05,0-0.11,0.01-0.16,0.01c-0.06,0.01-0.12,0.01-0.18,0.01h-0.06l-0.03-0.05
			c-0.08-0.14-0.14-0.28-0.19-0.4c-0.02-0.05-0.04-0.1-0.06-0.13l-0.04-0.05c-0.41-0.95-0.71-2.01-0.89-3.14
			c-0.08-0.44-0.13-0.88-0.18-1.31c-0.03-0.22-0.05-0.43-0.08-0.65c-0.08-0.79-0.17-1.59-0.28-2.41c-0.07-0.43-0.14-0.86-0.2-1.29
			c-0.06-0.41-0.12-0.82-0.19-1.24c-0.12-0.9-0.26-1.81-0.4-2.67c-0.28-1.85-1.36-3.44-2.96-4.38c-1.34-0.81-2.91-1.12-4.44-0.87
			c-2.46,0.39-4.31,2.23-4.94,4.91l-0.01,0.03l-0.03,0.03c-0.3,1.29-0.33,2.63-0.11,3.99c0.05,0.29,0.08,0.58,0.12,0.87
			c0.03,0.25,0.07,0.51,0.11,0.77c0.09,0.6,0.17,1.22,0.26,1.84C0.9,23.82,0.95,24.27,1,24.7c0.03,0.23,0.05,0.46,0.08,0.68
			l0.03,0.27c0.08,0.71,0.15,1.43,0.25,2.14c1.04,6.46,3.67,10.92,7.8,13.25c2.28,1.26,5.22,1.61,8.72,1.04
			c2.12-0.33,4.14-1.31,5.85-2.84l0.05-0.05h0.03c1.28-1.17,2.34-2.54,3.14-4.06v-0.1h0.06c0.01-0.02,0.01-0.03,0.02-0.05
			c0.01-0.03,0.03-0.07,0.04-0.11l0.08-0.23l1.41,2.97c0.72,1.47,1.84,2.56,3.24,3.15c1.61,0.73,3.44,0.68,5.16-0.14
			c0.96-0.45,1.79-1.12,2.4-1.93l0.06-0.08l0.08,0.06c1.07,0.79,2.36,1.23,3.74,1.26c0.53,0.02,1.11-0.04,1.73-0.2l0.02-0.01
			l0.02,0.01c1.22,0.29,2.43,0.45,3.61,0.48c0.05,0,0.1,0,0.14,0c3.03,0,5.71-0.92,7.96-2.73l0.07-0.06l0.06,0.06
			c1.21,1.24,2.77,2.25,4.62,3.01C62.37,40.85,63.4,41.08,64.58,41.17C64.58,41.17,64.58,41.17,64.58,41.17z"/>
	</g>
	<g>
		<path class="st2" d="M74.32,20.21c0.11-0.14,0.26-0.28,0.37-0.43c0.85-0.96,2.01-1.5,3.26-1.62c1.33-0.14,2.47,0.17,3.34,0.79
			c1.02-0.6,2.18-1.02,3.46-1.13c2.92-0.28,5.41,0.82,6.92,3.37v0.03c0.96,1.7,1.36,3.91,1.56,5.84l0.09,1.11v0.03
			c0.03,0.31,0.06,0.62,0.09,0.94c0.09,0.82,0.31,1.7,0.54,2.49c0.31,1.13,0.6,2.32,0.71,3.49c0.11,1.33-0.28,2.61-1.19,3.63
			c-0.85,0.94-1.98,1.5-3.26,1.62c-2.66,0.26-4.73-1.22-5.3-3.8c-0.23-1.02-0.48-2.04-0.71-3.06c-0.09-0.31-0.14-0.6-0.2-0.91
			c0,0.23,0,0.43,0.03,0.62c0.03,0.31,0.11,0.65,0.17,0.94c0.11,0.51,0.23,1.08,0.28,1.59c0.11,1.33-0.26,2.61-1.13,3.6v0.03l0,0
			c-0.88,0.99-2.01,1.53-3.32,1.67c-1.3,0.11-2.55-0.2-3.57-1.02c-1.05-0.82-1.67-1.98-1.79-3.32c-0.06-0.31-0.11-0.65-0.17-0.96
			c-0.03-0.06-0.03-0.11-0.06-0.2c0.03,0.23,0.03,0.48,0.03,0.68c0.06,0.88,0.11,1.98-0.2,2.81c-0.51,1.25-1.5,2.15-2.78,2.61l0,0
			h-0.03c-1.13,0.4-2.35,0.34-3.49-0.11c-0.91-0.37-1.59-1.11-2.13-1.98c-0.37,0-0.77,0-1.13-0.03c-0.91-0.09-1.81-0.23-2.66-0.57
			c-2.04-0.85-3.88-2.07-5.07-3.86c-0.06,0.06-0.14,0.14-0.23,0.2c-2.18,2.21-4.96,3.29-8.08,3.23c-1.25,0-2.49-0.2-3.69-0.54
			c-0.54,0.2-1.11,0.28-1.7,0.28c-1.25-0.03-2.41-0.48-3.32-1.36c-0.37-0.37-0.68-0.77-0.91-1.19c-0.03,0.2-0.11,0.43-0.2,0.65
			c-0.45,1.25-1.36,2.15-2.52,2.72c-1.28,0.6-2.66,0.68-3.94,0.14c-1.11-0.48-1.93-1.36-2.47-2.44l-2.89-6.12
			c-0.34,1.25-0.79,2.44-1.39,3.57l0,0c-0.74,1.42-1.7,2.64-2.89,3.71l0,0c-1.47,1.3-3.17,2.18-5.1,2.49
			c-2.58,0.4-5.41,0.43-7.74-0.88c-4.42-2.49-6.29-7.43-7.06-12.19c-0.11-0.77-0.2-1.56-0.28-2.32c-0.09-0.68-0.14-1.39-0.26-2.04
			c-0.11-0.62-0.17-1.22-0.26-1.84c-0.09-0.54-0.14-1.11-0.26-1.67c-0.17-1.13-0.14-2.3,0.11-3.43l0,0c0.48-1.93,1.7-3.49,3.74-3.8
			c1.19-0.2,2.38,0.03,3.43,0.68c1.22,0.71,2.04,1.9,2.27,3.32c0.14,0.88,0.26,1.76,0.37,2.64c0.14,0.85,0.26,1.7,0.4,2.55
			c0.11,0.77,0.2,1.56,0.28,2.32c0.09,0.68,0.17,1.39,0.26,2.04c0.2,1.22,0.51,2.41,1.02,3.51v0.03c0.17,0.37,0.57,1.16,0.96,1.56
			c0.45,0,1.13-0.09,1.5-0.14l0,0c1.59-0.23,1.79-3.8,1.81-4.9l0,0c0.14-3.03-0.34-6.46-0.82-9.44c-0.17-1.11,0-2.24,0.45-3.26
			v-0.03c0.74-1.64,2.13-2.69,3.88-2.98c1.56-0.26,3.06,0.2,4.14,1.33c0.74,0.77,1.19,1.67,1.33,2.69c0.23,1.42,0.45,2.86,0.62,4.34
			c0.71-0.2,1.42-0.26,2.07-0.14c1.13-1.33,2.55-2.41,4.2-3.2c1.9-0.91,3.63-0.79,5.07,0.03l0.03-1.16
			c0.03-1.19,0.31-2.32,0.91-3.32c0.91-1.56,2.41-2.49,4.22-2.47c2.72,0.06,4.42,2.01,4.39,4.68c-0.03,0.31-0.06,0.65-0.11,0.96
			c0,0.11-0.03,0.2-0.03,0.31l-0.03,1.81c0.45-0.06,0.88-0.09,1.3-0.09c3.15,0.06,5.87,1.28,7.88,3.71
			c0.54,0.68,0.99,1.39,1.36,2.13c1.16-1.22,2.58-2.18,4.25-2.86c3-1.19,6.09-1.19,9.1,0.03C72.96,19.27,73.67,19.7,74.32,20.21
			L74.32,20.21z M38.74,27.04c-1.11,0.17-2.15-0.06-3.03-0.62l0,0l2.89,6.01c0-0.09,0-0.17,0-0.26l0,0v-0.03
			c0.03-0.31,0.06-0.62,0.06-0.94L38.74,27.04z M48.13,26.02c-0.03,0.94-0.03,1.9-0.03,2.86c0.26,0.06,0.48,0.09,0.74,0.09
			c0.45,0,0.79-0.06,1.13-0.4c0.34-0.37,0.45-0.79,0.45-1.3c0.03-0.51-0.06-1.08-0.37-1.5c-0.17-0.23-0.31-0.26-0.6-0.28
			c-0.17,0-0.54,0.14-0.68,0.2C48.55,25.79,48.35,25.88,48.13,26.02L48.13,26.02z M66.32,28.26c-0.23,0.23-0.43,0.48-0.57,0.85
			c-0.09,0.23-0.31,0.82-0.34,1.19c0.09,0.03,0.17,0.06,0.26,0.09C65.87,29.68,66.1,28.97,66.32,28.26L66.32,28.26z"/>
	</g>
	<g>
		<path class="st3" d="M23.12,32.94c-0.57,1.11-1.33,2.07-2.24,2.89c-1.13,0.99-2.35,1.62-3.69,1.81c-2.55,0.4-4.51,0.23-5.9-0.57
			c-2.95-1.64-4.82-5.02-5.64-10.12c-0.09-0.48-0.17-1.22-0.28-2.21c-0.11-0.96-0.2-1.7-0.28-2.18c-0.06-0.4-0.14-0.99-0.23-1.76
			c-0.11-0.77-0.2-1.36-0.26-1.76C4.5,18.25,4.5,17.49,4.7,16.72c0.23-0.99,0.71-1.56,1.39-1.64c0.54-0.11,1.08,0,1.53,0.28
			c0.54,0.31,0.85,0.77,0.94,1.36c0.09,0.57,0.23,1.45,0.4,2.58c0.17,1.16,0.28,2.04,0.37,2.61c0.09,0.48,0.17,1.22,0.28,2.18
			s0.2,1.7,0.28,2.18c0.23,1.56,0.65,2.95,1.22,4.22c0.68,1.53,1.45,2.52,2.38,3.03c0.45,0.26,1.47,0.28,3.06,0.06
			c2.64-0.4,4.05-2.92,4.25-7.6c0.11-2.41-0.17-5.75-0.85-10.01c-0.09-0.54-0.03-1.11,0.23-1.67c0.34-0.77,0.94-1.22,1.76-1.33
			c0.68-0.11,1.22,0.06,1.64,0.48c0.31,0.34,0.51,0.71,0.6,1.16c0.62,3.94,0.94,7.06,0.91,9.33C25.05,27.44,24.4,30.44,23.12,32.94
			L23.12,32.94z"/>
	</g>
	<g>
		<path class="st4" d="M39.93,21c0.6,1.45,0.28,2.44-0.88,3c-1.16,0.54-2.01,0.23-2.58-0.96l-0.74-1.33
			c-1.9,1.3-2.86,3.03-2.89,5.24l3.29,6.89c0.26,0.51,0.28,1.02,0.09,1.53c-0.2,0.51-0.57,0.91-1.11,1.16
			c-0.57,0.28-1.11,0.31-1.59,0.09c-0.45-0.2-0.79-0.54-1.02-1.05l-4.28-8.96c-0.14-0.28-0.34-0.71-0.57-1.28
			c-0.26-0.57-0.45-1.02-0.6-1.28c-0.23-0.54-0.28-1.02-0.14-1.5c0.14-0.51,0.51-0.88,1.08-1.13c0.99-0.48,1.84-0.26,2.55,0.68
			c1.02-1.96,2.52-3.43,4.51-4.37c1.81-0.88,3.32-0.09,4.45,2.35C39.73,20.55,39.88,20.86,39.93,21L39.93,21z"/>
	</g>
	<g>
		<path class="st5" d="M48.72,35.69c-1.42,0-2.75-0.28-4.03-0.79c-0.37,0.37-0.85,0.54-1.36,0.54c-0.57,0-1.02-0.2-1.42-0.57
			c-0.37-0.37-0.57-0.82-0.54-1.36c0-0.26,0.03-0.62,0.06-1.13c0.03-0.48,0.06-0.85,0.06-1.11l0.28-17.18
			c0-0.71,0.17-1.36,0.51-1.93c0.43-0.71,0.99-1.05,1.76-1.05c1.08,0.03,1.59,0.62,1.59,1.79c0,0.14-0.03,0.34-0.06,0.62
			c-0.06,0.28-0.09,0.51-0.09,0.62l-0.09,5.81c0.77-0.4,1.47-0.71,2.18-0.88c0.68-0.2,1.33-0.31,1.98-0.28
			c2.38,0.03,4.28,0.94,5.7,2.66c1.36,1.64,2.01,3.63,1.96,5.92c-0.03,2.35-0.85,4.31-2.47,5.92C53.11,34.95,51.1,35.74,48.72,35.69
			L48.72,35.69z M49.51,22.67c-0.54-0.03-1.13,0.11-1.84,0.4c-0.68,0.31-1.47,0.74-2.32,1.33c-0.03,0.96-0.09,3.12-0.11,6.43
			c1.36,0.62,2.55,0.96,3.54,0.96c1.28,0.03,2.35-0.4,3.2-1.25c0.82-0.85,1.25-1.93,1.28-3.23c0.03-1.33-0.28-2.41-0.96-3.29
			C51.61,23.13,50.68,22.67,49.51,22.67L49.51,22.67z"/>
	</g>
	<g>
		<path class="st3" d="M69.04,38.92c-0.43-0.17-0.94-0.94-1.47-2.24c-1.02,0.06-1.93,0.06-2.66,0c-0.74-0.06-1.33-0.17-1.79-0.37
			c-2.27-0.91-3.71-2.21-4.34-3.86c-0.65-1.67-0.48-3.71,0.51-6.12c0.91-2.24,2.52-3.83,4.85-4.76s4.65-0.94,6.97,0.03
			c0.88,0.34,1.81,1.02,2.78,2.01c1.16,1.19,1.59,2.18,1.25,2.98c-0.14,0.34-0.37,0.6-0.68,0.77c-0.26,0.31-0.51,0.77-0.79,1.3
			c-0.28,0.54-0.57,1.19-0.88,1.96c-0.74,1.79-1.13,3.12-1.19,4.03c0,0.09,0,0.65,0.06,1.73c0.03,0.94,0.03,1.47-0.03,1.59
			c-0.2,0.51-0.57,0.82-1.08,0.99C70.04,39.12,69.56,39.12,69.04,38.92L69.04,38.92z M69.5,27.86c0.11-0.28,0.28-0.62,0.48-0.99
			c0.2-0.37,0.43-0.79,0.71-1.22c-0.14-0.17-0.28-0.31-0.43-0.43c-0.11-0.09-0.23-0.17-0.34-0.2c-1.28-0.54-2.58-0.48-3.94,0.11
			c-1.36,0.62-2.32,1.59-2.83,2.89c-0.51,1.25-0.68,2.3-0.48,3.09c0.17,0.82,0.74,1.42,1.62,1.79c0.6,0.23,1.19,0.37,1.79,0.37
			c0.6,0.03,1.19-0.06,1.79-0.23C68.51,30.7,69.04,28.97,69.5,27.86L69.5,27.86z"/>
	</g>
	<g>
		<path class="st4" d="M89.91,37.56c-1.25,0.11-1.98-0.43-2.24-1.62c-0.26-1.05-0.48-2.07-0.74-3.09c-0.26-1.11-0.43-2.13-0.51-3.09
			c-0.03-0.28-0.06-0.74-0.09-1.36c-0.03-0.65-0.06-1.08-0.09-1.36c0-0.06,0-0.23-0.03-0.54c0-0.28-0.03-0.51-0.03-0.68
			c-0.09-0.85-0.34-1.25-0.77-1.19c-0.94,0.09-1.79,0.71-2.58,1.87c-0.77,1.16-1.33,2.61-1.67,4.31c0,0.34,0,0.79-0.03,1.36
			c0,0.45,0,0.91,0.06,1.33c0.03,0.28,0.09,0.71,0.23,1.25c0.11,0.57,0.17,0.99,0.2,1.28c0.06,0.57-0.09,1.08-0.45,1.47
			c-0.34,0.43-0.82,0.65-1.45,0.71c-0.6,0.06-1.11-0.06-1.53-0.4c-0.45-0.34-0.68-0.82-0.74-1.39c-0.03-0.28-0.09-0.68-0.23-1.25
			c-0.11-0.57-0.17-0.99-0.2-1.28c-0.09-0.96-0.17-2.32-0.2-4.05c0-1.73-0.09-3.09-0.17-4.05c-0.03-0.28-0.09-0.74-0.17-1.33
			c-0.11-0.6-0.17-1.05-0.2-1.33c-0.06-0.57,0.11-1.05,0.48-1.45c0.37-0.43,0.85-0.65,1.45-0.71c1.33-0.11,2.1,0.6,2.35,2.15
			l0.03,0.17c1.33-1.62,2.81-2.49,4.42-2.66c1.9-0.17,3.29,0.48,4.17,2.01c0.6,1.02,0.99,2.58,1.19,4.71l0.11,1.08
			c0.03,0.45,0.06,0.79,0.09,0.96c0.06,0.79,0.28,1.79,0.62,3c0.31,1.22,0.54,2.21,0.6,2.98c0.06,0.57-0.09,1.05-0.45,1.47
			C90.99,37.27,90.5,37.5,89.91,37.56L89.91,37.56z"/>
	</g>
	<g>
		<path class="st0" d="M165.9,25.03c1.13,0.96,2.61,1.47,4.25,1.42c1.02-0.03,2.07-0.17,3.09-0.37c0.2,0.54,0.4,1.08,0.6,1.59
			c0.57,1.53,1.13,3.06,1.56,4.62c0.2,0.74,0.45,1.45,0.71,2.18c0.2,0.48,0.37,0.99,0.51,1.5c0,0.03,0,0.06,0.03,0.09
			c0.03,0.43,0.09,0.85,0.2,1.28c0.48,1.7,1.64,3,3.23,3.74c1.33,0.6,2.81,0.71,4.2,0.31c1.9-0.51,3.26-1.84,3.91-3.6
			c0.54,0.28,1.11,0.54,1.7,0.77c2.78,0.96,5.56,0.85,8.14-0.37c0.2,0.85,0.6,1.62,1.19,2.32c0.96,1.13,2.27,1.87,3.77,2.13
			c2.55,0.4,4.82-0.79,6.09-3l0.03-0.06c0.45-0.82,0.94-1.64,1.36-2.47c0.45-0.79,0.96-1.56,1.45-2.32c0.62,1.96,2.24,3.4,4.22,4.25
			c1.53,0.65,3.17,0.99,4.85,1.05c2.27,0.11,4.51-0.23,6.55-1.22c2.83-1.42,4.56-3.88,4.68-7.06c0.09-1.73-0.45-3.29-1.39-4.65
			c1.05-1.22,1.45-2.89,1.53-4.56c0.09-2.24-0.85-4.34-2.83-5.5c-1.19-0.71-2.58-0.96-3.97-1.02c-1.5-0.06-3.12-0.09-4.65,0.09
			c-0.2-0.31-0.4-0.62-0.65-0.91c-0.96-1.16-2.27-1.9-3.77-2.15c-2.13-0.34-4.14,0.51-5.53,2.15c-0.28,0.37-0.6,0.71-0.88,1.08
			c-0.31-0.68-0.62-1.36-0.99-2.04c-0.88-1.64-2.41-2.72-4.25-3c-1.56-0.26-3.09,0.14-4.39,1.02c-1.33,0.94-2.24,2.3-2.49,3.91
			c0,0,0,0,0,0.03c-2.01-0.57-4.03-0.62-5.95-0.11c-0.03-0.34-0.11-0.68-0.2-1.02c-0.43-1.56-1.45-2.83-2.86-3.6
			c-1.42-0.77-3-0.94-4.54-0.51c-0.96,0.28-1.93,0.48-2.92,0.68c-1.16,0.23-2.32,0.48-3.46,0.79c-0.88,0.23-1.73,0.48-2.61,0.74
			c-0.82,0.26-1.62,0.51-2.44,0.74c-0.6,0.14-1.22,0.26-1.81,0.34c-0.82,0.14-1.64,0.26-2.47,0.43c-1.84,0.37-3.34,1.53-4.17,3.23
			c-0.23,0.54-0.43,1.08-0.51,1.64C163.67,21.65,164.32,23.47,165.9,25.03L165.9,25.03z"/>
		<path class="st1" d="M203.95,42.81c-0.32,0-0.65-0.03-0.99-0.08c-1.52-0.26-2.85-1.01-3.83-2.16c-0.59-0.7-0.97-1.43-1.18-2.25
			c-2.54,1.17-5.34,1.28-8.1,0.32c-0.56-0.21-1.1-0.45-1.62-0.72c-0.7,1.8-2.1,3.06-3.94,3.56c-1.39,0.4-2.91,0.29-4.26-0.32
			c-1.64-0.76-2.81-2.11-3.29-3.81c-0.1-0.38-0.17-0.79-0.2-1.27c-0.03-0.04-0.03-0.08-0.03-0.11c-0.15-0.53-0.32-1.03-0.5-1.48
			l-0.11-0.31c-0.22-0.64-0.43-1.25-0.61-1.89c-0.42-1.55-0.99-3.09-1.55-4.59l-0.01-0.02c-0.19-0.48-0.38-1-0.57-1.51
			c-1.11,0.21-2.1,0.33-3.02,0.35c-1.65,0.05-3.14-0.44-4.32-1.44l0,0c-1.62-1.59-2.27-3.45-1.93-5.53c0.09-0.6,0.3-1.16,0.52-1.67
			c0.83-1.72,2.38-2.92,4.24-3.29c0.55-0.11,1.1-0.2,1.64-0.29c0.28-0.04,0.55-0.09,0.83-0.14c0.64-0.09,1.25-0.21,1.81-0.34
			c0.66-0.18,1.29-0.38,1.96-0.59l0.97-0.29c0.72-0.21,1.4-0.41,2.11-0.59c1.01-0.28,2.11-0.53,3.46-0.79
			c1.03-0.21,1.97-0.4,2.91-0.68c1.58-0.44,3.17-0.26,4.61,0.52c1.45,0.78,2.48,2.08,2.91,3.66c0.08,0.3,0.15,0.61,0.19,0.92
			c1.85-0.47,3.79-0.43,5.78,0.11c0.27-1.57,1.17-2.94,2.52-3.9c1.38-0.93,2.93-1.29,4.47-1.04c1.89,0.29,3.43,1.38,4.32,3.06
			c0.35,0.64,0.64,1.28,0.93,1.9c0.11-0.14,0.23-0.28,0.34-0.41c0.15-0.18,0.3-0.35,0.44-0.54c1.46-1.73,3.52-2.53,5.62-2.19
			c1.54,0.26,2.86,1.02,3.83,2.19c0.24,0.27,0.44,0.57,0.63,0.87c1.53-0.16,3.11-0.14,4.6-0.08c1.65,0.07,2.96,0.41,4.01,1.03
			c1.92,1.13,2.98,3.16,2.88,5.59c-0.1,1.95-0.61,3.49-1.51,4.57c0.99,1.46,1.44,3.02,1.36,4.65c-0.11,3.14-1.79,5.67-4.73,7.14
			c-1.93,0.94-4.15,1.36-6.6,1.23c-1.73-0.06-3.37-0.41-4.88-1.06c-2.09-0.9-3.58-2.35-4.21-4.11c-0.09,0.15-0.19,0.29-0.28,0.44
			c-0.35,0.55-0.72,1.12-1.05,1.7c-0.28,0.54-0.59,1.1-0.9,1.64c-0.16,0.28-0.31,0.55-0.46,0.83l-0.03,0.05
			C208.01,41.68,206.1,42.81,203.95,42.81z M198.09,38.04l0.03,0.12c0.19,0.83,0.58,1.58,1.17,2.28c0.95,1.12,2.23,1.84,3.71,2.09
			c2.46,0.38,4.7-0.72,5.99-2.96l0.03-0.05c0.15-0.28,0.31-0.55,0.46-0.83c0.3-0.54,0.61-1.09,0.9-1.64
			c0.33-0.59,0.7-1.16,1.06-1.71c0.13-0.21,0.26-0.41,0.39-0.62l0.11-0.18l0.06,0.2c0.57,1.8,2.05,3.28,4.17,4.19
			c1.49,0.63,3.1,0.98,4.81,1.04c2.42,0.12,4.6-0.29,6.5-1.21c2.87-1.44,4.51-3.91,4.62-6.97c0.08-1.61-0.38-3.15-1.37-4.59
			l-0.04-0.06l0.05-0.06c0.9-1.05,1.41-2.56,1.51-4.5c0.09-2.35-0.93-4.32-2.79-5.41c-1.03-0.61-2.31-0.94-3.92-1.01
			c-1.5-0.06-3.1-0.09-4.63,0.08l-0.06,0.01l-0.03-0.05c-0.19-0.3-0.39-0.62-0.64-0.89c-0.94-1.14-2.23-1.87-3.71-2.12
			c-2.04-0.32-4.02,0.45-5.43,2.12c-0.14,0.18-0.29,0.36-0.44,0.54c-0.15,0.18-0.3,0.35-0.44,0.54l-0.1,0.13l-0.07-0.15
			c-0.3-0.66-0.62-1.35-0.99-2.04c-0.87-1.62-2.35-2.67-4.18-2.95c-1.5-0.24-2.99,0.1-4.32,1c-1.34,0.94-2.21,2.3-2.45,3.85l0,0.01
			v0.13l-0.13-0.04c-2.03-0.57-4.02-0.61-5.9-0.11l-0.11,0.03l-0.01-0.12c-0.03-0.33-0.11-0.67-0.2-1
			c-0.42-1.53-1.42-2.78-2.81-3.54c-1.39-0.75-2.93-0.93-4.46-0.5c-0.95,0.28-1.89,0.47-2.93,0.68c-1.35,0.26-2.44,0.51-3.45,0.79
			c-0.71,0.18-1.39,0.38-2.11,0.59l-0.96,0.29c-0.67,0.21-1.31,0.41-1.98,0.59c-0.57,0.14-1.19,0.25-1.83,0.34
			c-0.27,0.05-0.55,0.09-0.83,0.14c-0.54,0.09-1.09,0.18-1.63,0.29c-1.8,0.36-3.3,1.52-4.1,3.18c-0.21,0.49-0.41,1.04-0.5,1.62
			c-0.33,2.01,0.3,3.81,1.87,5.35c1.14,0.96,2.57,1.44,4.18,1.39c0.93-0.03,1.94-0.15,3.08-0.37l0.08-0.02l0.03,0.08
			c0.2,0.54,0.4,1.08,0.6,1.59l0.01,0.03c0.56,1.5,1.13,3.05,1.55,4.6c0.17,0.63,0.38,1.23,0.6,1.87l0.11,0.3
			c0.19,0.46,0.36,0.97,0.51,1.51l0,0.03l0.03,0.03l0,0.05c0.03,0.48,0.09,0.88,0.2,1.26c0.46,1.64,1.59,2.94,3.18,3.68
			c1.31,0.58,2.77,0.69,4.13,0.31c1.82-0.49,3.18-1.74,3.85-3.54l0.04-0.11l0.1,0.05c0.54,0.28,1.11,0.54,1.69,0.76
			c2.79,0.97,5.5,0.84,8.06-0.37L198.09,38.04z"/>
	</g>
	<g>
		<path class="st2" d="M219.9,17.94c1.76-0.37,3.83-0.34,5.58-0.28c1.11,0.06,2.27,0.23,3.23,0.82c1.47,0.85,2.1,2.38,2.04,4.05
			c-0.09,1.7-0.57,3.54-2.21,4.42c1.3,1.28,2.15,2.86,2.07,4.79c-0.11,2.58-1.5,4.54-3.8,5.67c-1.79,0.91-3.77,1.16-5.75,1.08
			c-1.47-0.06-2.95-0.37-4.31-0.94c-2.01-0.85-3.6-2.47-3.49-4.76c0.09-2.07,1.45-3.34,3.29-3.6c-0.6-0.54-1.11-1.13-1.47-1.81
			c-0.79,1.16-1.59,2.3-2.41,3.46c-1.25,1.79-2.49,3.6-3.6,5.5c-0.45,0.82-0.91,1.64-1.36,2.47l-0.03,0.03
			c-0.94,1.64-2.58,2.52-4.45,2.21c-1.11-0.17-2.07-0.71-2.81-1.59c-0.79-0.94-1.13-2.1-0.94-3.32c0.06-0.31,0.17-0.68,0.34-1.11
			c-0.43,0.4-0.88,0.74-1.36,1.05c-2.49,1.64-5.27,1.96-8.05,0.96c-1.33-0.48-2.49-1.19-3.43-2.15c0.03,0.54,0,1.11-0.11,1.64
			c-0.37,1.62-1.42,2.86-3.03,3.32c-1.05,0.28-2.13,0.2-3.09-0.26c-1.19-0.51-2.01-1.47-2.35-2.72c-0.11-0.31-0.14-0.65-0.17-0.99
			c-0.03-0.09-0.03-0.17-0.06-0.26c-0.14-0.57-0.34-1.13-0.54-1.7c-0.26-0.68-0.51-1.39-0.71-2.1c-0.43-1.59-1.02-3.17-1.59-4.73
			c-0.37-0.94-0.74-1.9-1.11-2.86c-1.36,0.31-2.78,0.57-4.14,0.62c-2.13,0.06-3.83-1.05-4.42-3.15c-0.28-1.05-0.17-2.13,0.28-3.09
			c0.6-1.25,1.7-2.07,3.03-2.35c0.79-0.17,1.62-0.28,2.41-0.4c0.65-0.11,1.33-0.23,1.98-0.4c0.82-0.23,1.64-0.48,2.47-0.71
			c0.85-0.26,1.7-0.51,2.58-0.77c1.08-0.28,2.24-0.54,3.34-0.77c1.02-0.2,2.04-0.43,3.03-0.68c1.13-0.31,2.3-0.2,3.34,0.34
			c1.05,0.6,1.76,1.5,2.1,2.64c0.28,1.11,0.17,2.18-0.34,3.17c2.61-1.53,5.47-1.73,8.36-0.68c0.51,0.17,1.02,0.4,1.47,0.65
			c-0.26-0.71-0.37-1.45-0.23-2.21c0.17-1.19,0.82-2.18,1.81-2.86c0.96-0.65,2.1-0.94,3.23-0.74c1.36,0.2,2.47,0.96,3.09,2.18
			c0.77,1.42,1.42,2.98,2.01,4.54c0.79-1.13,1.62-2.27,2.52-3.32c1.02-1.22,2.44-1.84,4.05-1.59c1.11,0.17,2.07,0.74,2.78,1.59
			C219.45,16.78,219.73,17.35,219.9,17.94L219.9,17.94z M203.44,28.66c-0.03,0.11-0.06,0.23-0.09,0.34c0.03-0.09,0.09-0.14,0.11-0.2
			C203.46,28.74,203.44,28.71,203.44,28.66L203.44,28.66z M184.53,26.7c0.09-0.54,0.23-1.11,0.43-1.67
			c0.48-1.56,1.28-2.98,2.32-4.14c-0.03,0-0.09,0.03-0.14,0.03c-1.16,0.34-2.38,0.57-3.57,0.82c-0.26,0.06-0.51,0.11-0.77,0.17
			c0.34,0.99,0.71,1.98,1.08,2.98C184.1,25.48,184.33,26.1,184.53,26.7L184.53,26.7z M193.85,28.94c0.37-0.17,0.54-0.51,0.68-0.85
			c0.17-0.4,0.57-1.53,0.57-2.1c-0.28-0.06-0.48,0.06-0.77,0.26c-0.54,0.43-0.88,0.99-1.11,1.64c-0.09,0.23-0.2,0.68-0.09,0.94
			c0.03,0.06,0.06,0.11,0.14,0.14C193.49,29.02,193.66,29.02,193.85,28.94L193.85,28.94z"/>
	</g>
	<g>
		<path class="st5" d="M186.51,18.62c-0.71,0.2-1.87,0.45-3.4,0.77c-1.5,0.31-2.64,0.57-3.43,0.79c0.34,1.05,0.99,2.89,1.96,5.53
			c0.85,2.32,1.47,4.2,1.84,5.58c0.09,0.31,0.26,0.77,0.48,1.36c0.26,0.6,0.4,1.08,0.48,1.39c0.2,0.68,0.23,1.33,0.09,1.98
			c-0.17,0.82-0.62,1.3-1.33,1.5c-0.48,0.14-0.99,0.11-1.47-0.11c-0.54-0.23-0.88-0.62-1.02-1.16c-0.03-0.14-0.06-0.34-0.09-0.62
			c-0.03-0.26-0.06-0.48-0.11-0.6c-0.11-0.43-0.31-1.08-0.62-1.93c-0.28-0.82-0.51-1.47-0.62-1.9c-0.34-1.25-0.91-2.89-1.67-4.96
			c-0.91-2.35-1.5-4-1.79-4.9l-0.74,0.2c-2.04,0.57-3.74,0.88-5.02,0.91c-1.11,0.06-1.79-0.43-2.04-1.39
			c-0.14-0.45-0.09-0.94,0.14-1.42c0.26-0.54,0.71-0.91,1.36-1.02c0.31-0.09,1.08-0.2,2.27-0.37c0.94-0.17,1.67-0.31,2.24-0.48
			c0.57-0.14,1.42-0.4,2.52-0.71c1.13-0.34,1.96-0.6,2.52-0.74c0.71-0.2,1.79-0.45,3.2-0.74c1.45-0.28,2.49-0.54,3.2-0.74
			c0.57-0.14,1.08-0.11,1.53,0.14c0.48,0.28,0.79,0.68,0.94,1.19c0.14,0.54,0.09,1.02-0.17,1.5
			C187.48,18.14,187.05,18.45,186.51,18.62L186.51,18.62z"/>
	</g>
	<g>
		<path class="st3" d="M191.22,34.78c-1.67-0.6-2.92-1.67-3.71-3.26c-0.85-1.73-0.96-3.63-0.28-5.75c0.65-2.01,1.81-3.6,3.54-4.76
			c2.01-1.36,4.25-1.59,6.72-0.74c1.79,0.65,2.98,1.87,3.54,3.71c0.48,1.64,0.4,3.43-0.28,5.36c-0.77,2.07-1.96,3.69-3.6,4.76
			C195.3,35.29,193.32,35.52,191.22,34.78L191.22,34.78z M196.04,23.78c-1.11-0.4-2.18-0.2-3.17,0.6c-0.85,0.65-1.47,1.56-1.87,2.72
			c-0.4,1.08-0.4,2.01,0.03,2.81c0.31,0.65,0.82,1.08,1.47,1.3c0.77,0.28,1.56,0.26,2.32-0.06c0.88-0.4,1.53-1.13,1.96-2.18
			C197.91,26.1,197.68,24.38,196.04,23.78L196.04,23.78z"/>
	</g>
	<g>
		<path class="st4" d="M217.24,20.1c-1.39,1.98-3.54,5.1-6.52,9.35c-1.59,2.3-2.86,4.2-3.74,5.73c-0.28,0.54-0.74,1.36-1.36,2.47
			c-0.48,0.82-1.16,1.16-2.01,1.02c-0.54-0.09-0.99-0.31-1.33-0.74c-0.37-0.43-0.51-0.88-0.43-1.42c0.14-0.88,1.56-3.34,4.25-7.34
			c-0.71-2.24-1.87-5.53-3.51-9.86c-0.17-0.4-0.34-0.79-0.51-1.22c-0.2-0.45-0.26-0.88-0.2-1.25c0.09-0.51,0.37-0.94,0.82-1.25
			c0.48-0.31,0.96-0.45,1.5-0.37c0.62,0.11,1.08,0.43,1.36,0.94c1.05,2.01,2.18,4.93,3.4,8.82c1.36-2.07,2.21-3.32,2.49-3.74
			c0.91-1.3,1.76-2.47,2.55-3.43c0.54-0.62,1.13-0.85,1.84-0.74c0.54,0.06,0.99,0.31,1.33,0.74c0.37,0.45,0.51,0.91,0.43,1.45
			C217.58,19.5,217.44,19.81,217.24,20.1L217.24,20.1z"/>
	</g>
	<g>
		<path class="st5" d="M226.85,24.94c-0.94-0.03-1.5-0.45-1.64-1.28c-0.4-0.06-0.79-0.11-1.19-0.14c-2.3-0.09-3.46,0.17-3.49,0.79
			c-0.03,0.37,0.65,0.91,2.01,1.62c1.84,0.94,3.09,1.67,3.74,2.21c1.36,1.05,2.01,2.21,1.96,3.49c-0.09,1.64-0.91,2.86-2.47,3.66
			c-1.28,0.62-2.81,0.88-4.62,0.82c-1.25-0.06-2.41-0.31-3.46-0.77c-1.42-0.6-2.1-1.42-2.04-2.47c0.03-0.94,0.62-1.39,1.76-1.36
			c0.45,0.03,1.08,0.2,1.9,0.51c0.82,0.31,1.47,0.48,1.9,0.51c1.96,0.09,2.95-0.28,3-1.05c0-0.51-0.65-1.08-1.96-1.73
			c-1.96-0.96-3.17-1.64-3.71-2.04c-1.3-0.99-1.93-2.18-1.87-3.54c0.09-1.93,1.16-3.17,3.23-3.77c1.22-0.34,3.03-0.45,5.47-0.34
			c0.96,0.03,1.67,0.2,2.13,0.45c0.6,0.37,0.91,0.99,0.85,1.9C228.3,24.15,227.79,25,226.85,24.94L226.85,24.94z"/>
	</g>
	<g>
		<path class="st0" d="M131.01,53.57c-0.31-0.03-0.62-0.11-0.94-0.26l0,0l-16.98-8.36l-4.99-1.84c-0.06-0.03-0.03-0.03-0.06-0.03
			c-1.08-0.26-1.84-1.16-1.96-2.24l-0.79-8.16l-0.62-6.66l0.03-11.48v-0.03c0.03-0.68,0.37-1.39,0.79-1.9
			c0.94-1.16,2.18-2.01,3.49-2.78l0.03-0.03l16.41-8.08l3.26-1.42l0.09-0.03c3.43-0.77,6.86,1.02,9.67,2.83l0.03,0.03l10.29,7.82
			l5.7,3.2c1.28,0.43,2.01,1.79,1.64,3.09c-1.13,4.17-1.33,8.65-1.96,12.93l-1.7,12.33l-0.03,0.06c-0.23,0.91-0.96,1.59-1.87,1.79
			l-4.34,1.81l-9.5,5.05l-2.81,0.99c-0.43,0.85-1.33,1.42-2.32,1.42C131.41,53.63,131.21,53.6,131.01,53.57L131.01,53.57z"/>
		<path class="st1" d="M131.58,53.73c-0.18,0-0.38-0.03-0.58-0.06c-0.32-0.03-0.64-0.12-0.96-0.26l-16.98-8.36l-4.98-1.84
			c-0.02-0.01-0.04-0.02-0.05-0.03c-1.1-0.26-1.91-1.19-2.03-2.33l-0.79-8.16l-0.62-6.66l0.03-11.52c0.03-0.65,0.33-1.38,0.82-1.96
			c0.99-1.23,2.33-2.11,3.51-2.8l0.04-0.03l16.41-8.08l3.36-1.45c3.53-0.79,7.06,1.11,9.75,2.85l0.04,0.04l10.28,7.81l5.69,3.2
			c1.32,0.44,2.07,1.85,1.69,3.2c-0.77,2.84-1.12,5.88-1.45,8.81c-0.15,1.35-0.31,2.75-0.51,4.1l-1.71,12.36l-0.03,0.06
			c-0.23,0.91-0.97,1.63-1.94,1.84l-4.32,1.81l-9.49,5.04l-2.78,0.98C133.52,53.17,132.58,53.73,131.58,53.73z M109.07,9.89
			l-0.02,0.02c-1.18,0.7-2.5,1.56-3.48,2.77c-0.46,0.55-0.75,1.24-0.77,1.84v0.02l-0.03,11.48l0.62,6.65l0.79,8.16
			c0.11,1.05,0.87,1.91,1.88,2.15l0.03,0.01l0.04,0.02l4.99,1.84l16.99,8.37c0.3,0.13,0.6,0.22,0.9,0.25l0,0
			c0.19,0.03,0.39,0.06,0.55,0.06c0.94,0,1.82-0.54,2.24-1.36l0.02-0.04l0.04-0.01l2.81-0.99l9.48-5.04l4.35-1.82
			c0.91-0.2,1.6-0.86,1.81-1.72l0.03-0.06l1.7-12.32c0.2-1.35,0.35-2.75,0.51-4.1c0.33-2.94,0.67-5.98,1.45-8.84
			c0.35-1.25-0.34-2.56-1.58-2.97l-5.71-3.21l-10.34-7.87c-2.64-1.7-6.13-3.58-9.57-2.81l-0.08,0.03l-3.25,1.41L109.07,9.89z"/>
	</g>
	<g>
		<path class="st6" d="M131.18,52.52c0.11,0.06,0.26,0.09,0.43,0.09c0.74,0,1.36-0.51,1.5-1.22l3.17-1.11l9.47-5.05l4.51-1.84
			c0.54-0.11,1.02-0.51,1.19-1.11l1.7-12.25c0.6-4.25,0.85-8.96,1.96-13.04c0.23-0.82-0.26-1.64-1.05-1.87l-5.87-3.29l-10.32-7.88
			c-2.49-1.62-5.75-3.37-8.87-2.66l-3.15,1.36l-16.36,8.05c-1.16,0.68-2.35,1.5-3.2,2.55c-0.28,0.34-0.54,0.85-0.57,1.3l-0.03,11.4
			l0.62,6.63l0.79,8.16c0.06,0.68,0.57,1.22,1.22,1.33c0.03,0.03,0.06,0.03,0.09,0.03l5.07,1.9l17.01,8.36
			C130.73,52.5,130.95,52.55,131.18,52.52L131.18,52.52z M127.75,9.61c0.37,0.09,0.6,0.43,0.51,0.77c-0.06,0.37-0.4,0.6-0.77,0.51
			c-0.34-0.06-0.57-0.4-0.51-0.77C127.07,9.78,127.41,9.55,127.75,9.61L127.75,9.61z M131.61,9.52c-0.37,0-0.68-0.31-0.68-0.65
			c0-0.37,0.31-0.65,0.68-0.65c0.34,0,0.65,0.28,0.65,0.65C132.26,9.21,131.95,9.52,131.61,9.52L131.61,9.52z M114.91,23.81
			l4.82,6.63l1.93-2.01l2.41-1.84c0.62-0.31,1.39-0.09,1.76,0.54c0.34,0.62,0.14,1.42-0.48,1.73l-3.91,3.6l-0.28,0.26l0.26,0.45
			l3.32,5.41c0.14,0.14,0.34,0.26,0.4,0.43c0.62,0.26,0.94,0.94,0.77,1.56c-0.23,0.68-0.94,1.05-1.62,0.82l-1.08-0.77l-0.82-0.99
			l-1.67-2.61l-1.47-2.64l-2.81,2.44l-0.94,0.6l-0.74,0.34l-1.05,0.14c-0.71-0.03-1.25-0.65-1.25-1.36c0.03-0.68,0.6-1.22,1.3-1.19
			l3.63-2.47l0.54-0.54l-2.24-3.06l-3-4.31c-0.34-0.62-0.11-1.39,0.51-1.73C113.8,22.93,114.57,23.18,114.91,23.81L114.91,23.81z
			 M143.6,27.24c-0.28-0.11-0.6-0.23-0.91-0.17c-0.91,0.17-1.81,0.62-2.35,1.39c-1.25,1.7,0.06,1.79,1.36,2.01
			c0.74,0.11,1.5,0.23,2.18,0.57c1.87,0.85,2.72,3,2.49,4.99c-0.2,1.67-1.42,2.95-2.81,3.77c-1.64,0.99-3.69,1.73-5.56,1.13
			c-0.68-0.23-1.22-0.82-1.47-1.45c-0.17-0.45-0.2-0.85-0.23-1.3c0-0.68,0.54-1.25,1.22-1.25c0.68,0,1.25,0.57,1.25,1.25
			c0,0.28,0,0.48,0.31,0.51c1.13,0.09,2.27-0.45,3.2-0.99c0.71-0.43,1.3-0.91,1.59-1.7c0.23-0.74-0.03-1.47-0.34-2.15
			c-0.31-0.71-1.45-0.82-2.07-0.94c-1.13-0.23-2.49-0.31-3.34-1.25c-0.96-1.11-0.71-2.69-0.17-3.94c0.45-1.08,1.45-1.93,2.47-2.47
			c0.96-0.48,2.07-0.79,3.17-0.6l1.16,0.4c0.6,0.31,0.82,1.08,0.51,1.67C144.96,27.32,144.19,27.55,143.6,27.24L143.6,27.24z"/>
	</g>
	<g>
		<path class="st7" d="M108.67,16.16l10.71,4.28l10.4,4.14l0.03,11.34l0.23,12.87l-15.34-7.54l-4.65-1.73l-1.05-10.66l-0.28-3.12
			l-0.26-5.58L108.67,16.16z M126.73,26.02c0.45,0.65,0.65,1.42,0.57,2.18c-0.11,0.68-0.43,1.36-1.11,1.79l-3.26,2.98l2.89,4.73
			c0.62,0.57,1.13,0.94,1.39,1.81c0.28,1.22-0.14,2.24-1.11,2.92c-0.82,0.48-1.53,0.48-2.44,0.23c-0.94-0.57-1.73-1.33-2.44-2.21
			l-1.73-2.69l-0.68-1.19c-1.13,0.96-1.98,1.7-3.09,2.21c-0.6,0.26-1.33,0.54-2.01,0.54c-1.47-0.17-2.47-1.05-2.66-2.52
			c-0.03-1.5,0.82-2.44,2.21-2.81l2.75-1.87l-1.47-2.04l-3.06-4.39c-0.62-1.28-0.4-2.38,0.6-3.37c1.3-0.96,3.15-0.68,4,0.74
			l3.8,5.22l0.88-0.88l2.61-1.98C124.58,24.8,125.79,25,126.73,26.02L126.73,26.02z"/>
	</g>
	<g>
		<path class="st8" d="M130.76,21.71l-10.09-4.03l-9.95-3.97l3.34-2.07l13.07-6.24l1.64-0.79c0.57-0.28,1.22-0.51,1.9-0.43
			c0.85,0.11,1.73,0.26,2.49,0.65l6.35,4.05l9.24,6.86l-0.45,0.06C143.99,17.69,133.7,19.22,130.76,21.71L130.76,21.71z
			 M132.29,11.14c-1.02,0-1.87-0.82-1.87-1.84c0-1.02,0.85-1.87,1.87-1.87c1.02,0,1.87,0.85,1.87,1.87
			C134.16,10.32,133.31,11.14,132.29,11.14L132.29,11.14z M127.33,7.88c0.99,0.2,1.64,1.16,1.45,2.18
			c-0.17,0.99-1.16,1.67-2.15,1.47c-1.02-0.2-1.67-1.19-1.47-2.18S126.3,7.68,127.33,7.88L127.33,7.88z M125.23,13.12l2.15,1.73
			c1.42,0.79,3.26,1.56,4.93,1.16c0.37-0.09,0.77-0.31,1.02-0.62c0.34-0.45,0.4-0.91,0.54-1.47c0.06-0.48,0.48-0.79,0.94-0.77
			c0.48,0.06,0.79,0.48,0.77,0.96l-0.65,1.98c-0.4,0.79-1.36,1.36-2.18,1.56c-1.5,0.37-3.12,0.03-4.51-0.51
			c-1.13-0.48-2.21-1.08-3.17-1.84l-1.13-1.13c-0.31-0.34-0.26-0.88,0.11-1.19C124.41,12.7,124.94,12.75,125.23,13.12L125.23,13.12z
			"/>
	</g>
	<g>
		<path class="st9" d="M151.73,18.34l-1.62,11.48l-1.53,11.03l-9.04,4.31l-6.43,3.15l-0.03-4.17l-0.31-12.3l-0.06-3.51v-2.81
			l0.09-1.53l0.11-0.06l0.65-0.26l15.68-4.93L151.73,18.34z M143.03,41.67c-1.08,0.48-2.18,0.82-3.37,0.88
			c-1.5,0.03-2.81-0.34-3.8-1.53c-0.68-0.88-0.88-1.73-0.96-2.83c0.06-0.94,0.43-1.62,1.16-2.18c0.48-0.31,0.91-0.43,1.47-0.45
			c2.01,0,2.47,1.67,2.47,1.67c0.82-0.23,1.87-0.68,2.41-1.39c0.14-0.2,0.17-0.34,0.14-0.6c-0.09-0.43-0.11-0.68-0.57-0.79
			c-1.25-0.28-2.49-0.37-3.66-0.91c-1.13-0.6-1.81-1.47-2.13-2.72c-0.26-1.16-0.06-2.27,0.34-3.37c0.71-1.76,2.13-2.92,3.8-3.69
			c1.84-0.77,3.12-0.62,5.02,0.03l0.28,0.17l0.2,0.17l0.2,0.17l0.17,0.2l0.17,0.2l0.11,0.23l0.11,0.23l0.09,0.23l0.06,0.26
			l0.06,0.26v0.26v0.26l-0.03,0.26l-0.06,0.26l-0.11,0.26l-0.11,0.23l-0.11,0.23l-0.17,0.23L146.03,28
			c-0.34,0.31-0.65,0.51-1.08,0.65c-0.82,0.23-1.36,0.06-2.13-0.17c-0.43,0.09-0.82,0.28-1.16,0.57c1.05,0.17,2.07,0.34,3.03,0.82
			c1.28,0.68,2.13,1.73,2.66,3.06c0.26,0.68,0.4,1.36,0.43,2.07c0.03,0.77-0.03,1.47-0.26,2.18
			C146.83,39.31,144.99,40.76,143.03,41.67L143.03,41.67z"/>
	</g>
</g>
</svg>
