<?xml version="1.0" encoding="utf-8"?>
<!-- Generator: Adobe Illustrator 25.0.0, SVG Export Plug-In . SVG Version: 6.00 Build 0)  -->
<svg version="1.1" id="Layer_1" xmlns="http://www.w3.org/2000/svg" xmlns:xlink="http://www.w3.org/1999/xlink" width="314px" height="185px" x="0px" y="0px"
	 viewBox="0 0 625.62 134.3" style="enable-background:new 0 0 625.62 134.3;" xml:space="preserve">
<style type="text/css">
	.st0{fill-rule:evenodd;clip-rule:evenodd;fill:#232E5C;}
</style>
<g>
	<path class="st0" d="M82.4,73.79c-2.01,20.89-10.46,44.79-34.36,48.67c-4.65,0.77-13.78,1.33-18.28-0.57
		c-5.27-2.24-3.51-11.2-3.51-17.09c0-16.3-0.88-71.6-0.03-83.03c0.82-11.17,21.74-7.17,30.27-4.31
		C76.99,24.35,84.95,47.57,82.4,73.79L82.4,73.79z M470.21,28.8l-2.24,7.8l4.99-0.09l4.2,0.14c1.13,7.29-0.26,56.75,0.17,70.21
		c0.31,10.15,1.96,21,11.79,24.77c9.58,3.66,21.57-0.37,27.81-4.76l0.23-11.31c-3.57,1.13-13.1,11.82-18.62,1.79
		c-2.69-4.88-1.93-18.82-1.93-25.57c0.03-12.9-1.62-44.59,0.2-55.36l17.46-0.34l1.28-8.9l-18.77-0.14l0.03-24.89l0.03-0.45V0
		c-4.54,0.85-4.62,0.88-8.53,2.07c-4.34,1.64,0.11-0.06-4.34,1.64l-6.55,1.79l0.14,20.3c-0.26,0.17-0.65,0.28-0.88,0.37
		c-0.26,0.09-0.62,0.23-0.91,0.31c-0.31,0.11-0.57,0.2-0.91,0.31C470.04,28.4,472.05,26.7,470.21,28.8L470.21,28.8z M468.79,104.91
		c-4.48,2.15-6.29,5.44-10.2,8.48c-26.31,20.27-59.47,9.13-60.75-34.7c-1.25-42.21,28.01-54.68,48.22-40.96
		c8.9,6.04,9.86,8.53,15.08,17.72c2.92-2.78,1.7,3.26,2.18-5.61l-0.4-18.11c-22.25-9.13-45.78-11.76-64.63,2.35
		c-14.71,11-25.2,31.83-20.44,58.73c3.63,20.47,20.07,37.64,40.31,40.79c15.31,2.38,37.53-2.92,45.58-12.02
		C466.36,118.6,467.86,109.64,468.79,104.91L468.79,104.91z M215.63,131.16h31.83c-1.73-4.96-3.83-5.53-4.65-11.51L242.5,70.3
		c31.78-2.49,29.2,3.54,38.3,8.19l-0.11-25.68c-5.16,2.72-8.93,7.06-15.82,7.74c-4.22,0.45-18.51,0.65-22.17-0.11l-0.45-43.17
		c5.73-0.62,22.96-0.54,28.57,0.06c4.37,0.48,7.23,1.56,11.03,3.71c2.41,1.36,1.96,0.85,3.94,2.89c3.2,3.34,1.11,2.44,4.93,4.48
		l-0.03-20.98L216,7.54c4.34,13.49,4.9-0.68,4.9,29.25v65.99C220.93,130.82,218.69,119.59,215.63,131.16L215.63,131.16z
		 M137.11,58.68c5.3-28.01,32.12-31.24,44.5-20.52c2.92,2.52,5.9,7.74,5.61,13.66c-0.4,7.82-4.96,7-12.25,6.92
		C162.77,58.59,149.05,59.41,137.11,58.68L137.11,58.68z M205.43,105.39c-5.39,2.47-6.26,5.61-10.23,8.59
		c-2.1,1.62-8.02,4.76-11.79,6.18c-30.1,11.25-52.61-11.99-47.82-53.74l73.02-0.03c4.34-16.41-15.36-44.33-47.57-41.73
		c-72.48,5.87-58.42,131.16,23.13,106.33c5.67-1.7,11.03-5.05,15-7.94C203.53,119.82,204.66,111.43,205.43,105.39L205.43,105.39z
		 M348.8,75.06c1.16,11.48,1.16,29.74-3.88,37.67c-13.61,21.51-53.52-0.82-24.04-23.02C323.8,87.53,343.84,75.91,348.8,75.06
		L348.8,75.06z M299.48,35.18l-0.26,23.07c3.6-1.13,12.27-19.5,28.77-24.18c20.44-5.78,21.49,13.72,20.75,30.61
		c-10.03,3.86-22.08,11.59-33.11,16.75c-10.09,4.73-24.38,12.39-25.63,25.65c-2.01,21.09,20.92,33.34,44.22,22.99
		c10.83-4.82,11-8.96,15.36-9.89l0.6,10.54l22.14,0.48c-1.22-5.3-2.27-3.15-3.51-8.11c-0.74-2.86-0.82-8.22-0.85-11.31
		c-0.14-15.59,1.25-59.78-0.96-69.22C360.43,14.6,312.55,25.88,299.48,35.18L299.48,35.18z M565.6,32.91
		c45.75-8.42,53.29,86.66,9.92,93C528.35,132.83,521.63,40.99,565.6,32.91L565.6,32.91z M624.93,85.8c5.19-31.18-19.3-58.65-47-61.2
		c-58.59-5.39-78.83,58.79-50.54,89.74C558.2,148.03,615.94,139.44,624.93,85.8L624.93,85.8z M0.2,7.37
		c1.28,4.39,3.74,8.33,4.17,13.75c0.74,9.24,0.37,95.53-0.65,99.69c-1.05,4.22-3.4,6.89-3.71,7.88l0.03,2.27
		c5.16,1.33,34.55,0.77,41.9,0.45c11.34-0.48,24.35-3.88,33.02-8.53c18.28-9.84,28.26-26.62,30.44-54.06
		c2.3-28.94-9.5-48.27-28.49-57.09C53.01,0.65,26.67,8.36,0.2,7.37L0.2,7.37z"/>
</g>
</svg>
