<?xml version="1.0" encoding="utf-8"?>
<!-- Generator: Adobe Illustrator 25.0.0, SVG Export Plug-In . SVG Version: 6.00 Build 0)  -->
<svg version="1.1" id="Layer_1" xmlns="http://www.w3.org/2000/svg" xmlns:xlink="http://www.w3.org/1999/xlink" width="314px" height="185px" x="0px" y="0px"
	 viewBox="0 0 160.55 162" style="enable-background:new 0 0 160.55 162;" xml:space="preserve">
<style type="text/css">
	.st0{fill-rule:evenodd;clip-rule:evenodd;fill:#010101;}
</style>
<g>
	<path class="st0" d="M37.96,82.58h1.88v18.43c0,4.39-0.23,5.26-1.72,5.26c-1.49,0-1.72-0.87-1.72-5.26V62.9
		c0-4.39,0.23-5.25,1.72-5.25c1.49,0,1.72,0.86,1.72,5.25v9.41h3.92V60c0-3.76-2.2-6.11-5.65-6.11c-3.37,0-5.64,2.35-5.64,6.11
		v43.92c0,3.77,2.2,6.12,5.64,6.12c3.37,0,5.65-2.35,5.65-6.12v-25.1h-5.8V82.58z M19.08,42.76l-2.24-0.46l-2.08-0.49l-0.05,0.07
		l5.6,3.59l-0.96,1.5l-9.67-6.2l0.94-1.46l3.42,0.72l2.58,0.59l0.05-0.07l-1.66-2.16l-2.02-2.77l0.92-1.44l9.67,6.19l-0.96,1.5
		l-5.56-3.57l-0.04,0.06l1.33,1.71l1.3,1.79L19.08,42.76L19.08,42.76z M28.86,34.08l-8.31-7.92l3.52-3.69l1.2,1.15l-2.29,2.4
		l2.27,2.16l1.99-2.09l1.23,1.17l-1.99,2.09l2.4,2.29l2.29-2.4l1.21,1.15L28.86,34.08L28.86,34.08z M41.7,23.1l-1.75-1.69
		l-1.72,1.22c0.17,0.37,0.34,0.74,0.51,1.1c0.18,0.37,0.35,0.74,0.52,1.1l-1.47,1.05c-0.8-1.79-1.6-3.57-2.39-5.35
		c-0.79-1.77-1.59-3.55-2.39-5.35l1.61-1.15l8.55,8.01L41.7,23.1L41.7,23.1z M35.32,16.8c0.37,0.71,0.73,1.42,1.09,2.13
		c0.36,0.73,0.72,1.45,1.07,2.18l1.28-0.91l-3.37-3.45L35.32,16.8z M47.93,8.57l4.04,8.94l-1.62,0.73L46.3,9.3l-1.68,0.76
		l-0.69-1.52l4.99-2.26l0.69,1.51L47.93,8.57z M64.46,4.13c0.05,0.25,0.16,0.53,0.34,0.83c0.21,0.33,0.44,0.66,0.69,0.96l2.37,2.87
		c0.03-0.2,0.04-0.43,0.03-0.67c-0.01-0.25-0.04-0.51-0.07-0.76l1.53-0.27c0.07,0.49,0.1,1.01,0.07,1.57
		c-0.03,0.56-0.12,1.07-0.26,1.53l1.62,1.93l-1.94,0.34l-0.55-0.65c-0.28,0.41-0.59,0.69-0.93,0.86c-0.35,0.17-0.73,0.29-1.11,0.35
		c-0.35,0.06-0.69,0.06-1.02-0.03c-0.32-0.09-0.62-0.25-0.88-0.47c-0.26-0.22-0.49-0.5-0.67-0.85c-0.19-0.35-0.32-0.75-0.4-1.19
		c-0.11-0.65-0.08-1.25,0.1-1.8c0.18-0.55,0.47-1.11,0.88-1.66l-0.39-0.47c-0.22-0.28-0.42-0.6-0.62-0.97
		c-0.2-0.37-0.34-0.77-0.42-1.19c-0.06-0.34-0.07-0.69-0.02-1.03c0.06-0.33,0.16-0.63,0.32-0.89C63.3,2.23,63.52,2,63.77,1.83
		c0.26-0.18,0.57-0.3,0.91-0.36c0.6-0.11,1.13-0.09,1.59,0.07c0.46,0.16,0.87,0.49,1.22,1l-1.31,0.99c-0.14-0.23-0.31-0.39-0.5-0.47
		c-0.19-0.08-0.39-0.1-0.6-0.07c-0.31,0.06-0.49,0.2-0.57,0.44C64.44,3.65,64.42,3.89,64.46,4.13L64.46,4.13z M65.31,8.3
		c-0.18,0.33-0.3,0.63-0.38,0.93c-0.08,0.29-0.09,0.59-0.03,0.91c0.07,0.4,0.23,0.73,0.47,0.99c0.24,0.26,0.53,0.36,0.88,0.29
		c0.22-0.04,0.42-0.13,0.6-0.27c0.19-0.14,0.34-0.3,0.45-0.49L65.31,8.3L65.31,8.3z M86.01,3.42c0.04-0.52-0.04-0.91-0.23-1.16
		c-0.19-0.25-0.53-0.39-1.01-0.42L84.22,1.8l-0.23,2.96l0.58,0.04c0.46,0.04,0.81-0.07,1.04-0.3C85.84,4.26,85.97,3.9,86.01,3.42
		L86.01,3.42z M85.75,8.12c0.05-0.54-0.02-0.94-0.2-1.22c-0.18-0.28-0.52-0.44-1-0.48l-0.68-0.05L83.6,9.93l0.71,0.05
		C84.59,10,84.82,9.96,85,9.87c0.18-0.09,0.32-0.22,0.42-0.39c0.11-0.17,0.19-0.37,0.23-0.61C85.7,8.63,85.73,8.38,85.75,8.12
		L85.75,8.12z M86.31,5.78c0.49,0.21,0.82,0.55,0.97,1.02c0.15,0.48,0.21,1.01,0.16,1.6c-0.09,1.19-0.41,2.05-0.97,2.57
		c-0.55,0.52-1.35,0.74-2.4,0.66l-2.37-0.18L82.56,0l2.5,0.19c1.02,0.08,1.72,0.4,2.14,0.96c0.41,0.57,0.58,1.36,0.5,2.36
		c-0.04,0.53-0.17,0.98-0.38,1.37c-0.21,0.38-0.55,0.65-1.01,0.82L86.31,5.78L86.31,5.78z M103.66,3.5l-2.33,8.2
		c-0.28,0.97-0.69,1.63-1.26,2c-0.57,0.37-1.32,0.43-2.24,0.16c-0.93-0.27-1.54-0.69-1.83-1.28c-0.29-0.59-0.31-1.34-0.06-2.22
		l2.38-8.38l1.72,0.49l-2.39,8.41c-0.08,0.29-0.09,0.56,0,0.83c0.07,0.27,0.29,0.45,0.64,0.55c0.34,0.1,0.63,0.05,0.85-0.14
		c0.21-0.2,0.36-0.47,0.47-0.81l2.36-8.3L103.66,3.5L103.66,3.5z M115.82,8.23c0.84,0.42,1.37,0.99,1.6,1.7
		c0.23,0.7,0.07,1.58-0.46,2.63c-0.33,0.65-0.7,1.15-1.11,1.5c-0.41,0.35-0.91,0.54-1.5,0.55l-0.82,5.34l-1.62-0.83l0.84-4.91
		l-0.75-0.38l-2.17,4.23l-1.59-0.81l5.24-10.22L115.82,8.23L115.82,8.23z M114.32,9.32l-1.53,2.99l0.64,0.33
		c0.41,0.21,0.78,0.25,1.1,0.11c0.32-0.14,0.61-0.48,0.88-1c0.24-0.47,0.33-0.89,0.28-1.24c-0.06-0.36-0.31-0.65-0.75-0.88
		L114.32,9.32L114.32,9.32z M122.26,25.69c-0.74-0.59-1.15-1.21-1.21-1.86c-0.05-0.66,0.2-1.35,0.77-2.07l3.53-4.5
		c0.27-0.33,0.56-0.62,0.87-0.86c0.3-0.23,0.64-0.39,1-0.48c0.35-0.09,0.72-0.09,1.1,0c0.38,0.08,0.77,0.28,1.17,0.6
		c0.73,0.58,1.13,1.19,1.18,1.84c0.05,0.65-0.17,1.28-0.65,1.89l-0.08,0.1l-1.58-0.81c0.26-0.33,0.41-0.65,0.45-0.95
		c0.04-0.31-0.08-0.56-0.35-0.78c-0.16-0.13-0.32-0.2-0.48-0.21c-0.15-0.01-0.3,0.01-0.44,0.08c-0.14,0.07-0.27,0.15-0.39,0.27
		c-0.11,0.1-0.22,0.21-0.31,0.33l-3.61,4.59c-0.07,0.09-0.13,0.2-0.18,0.3c-0.09,0.18-0.15,0.37-0.15,0.57
		c-0.01,0.21,0.11,0.41,0.36,0.6c0.24,0.2,0.49,0.29,0.75,0.27c0.25-0.01,0.47-0.14,0.64-0.36l1.39-1.78l-0.82-0.64l0.96-1.22
		l2.22,1.74l-2.26,2.88c-0.56,0.71-1.18,1.09-1.87,1.14C123.58,26.44,122.91,26.2,122.26,25.69L122.26,25.69z M130.5,32.72
		l3.34,3.85l1.26-1.09l-2.17-2.5l2.51-2.17l1.89,2.18l1.28-1.11l-1.89-2.18l2.37-2.06l2.18,2.51l1.26-1.09l-3.34-3.85L130.5,32.72z
		 M149.53,38.76c0.5,0.79,0.68,1.54,0.52,2.27c-0.15,0.73-0.73,1.41-1.72,2.05c-0.62,0.39-1.18,0.63-1.71,0.73
		c-0.53,0.1-1.06,0.01-1.57-0.27l-3.4,4.2l-0.98-1.53l3.2-3.82l-0.46-0.71l-4,2.57l-0.96-1.5l9.66-6.2L149.53,38.76L149.53,38.76z
		 M147.67,38.95l-2.83,1.81l0.39,0.61c0.25,0.39,0.54,0.6,0.89,0.64c0.34,0.04,0.77-0.1,1.27-0.42c0.44-0.29,0.73-0.6,0.86-0.93
		c0.13-0.34,0.06-0.72-0.2-1.13L147.67,38.95L147.67,38.95z M7.75,83.86c0.32,0.16,1.16,0.21,1.58-0.47
		c0.37-0.69-0.1-1.37-0.42-1.59c-0.43-0.26-0.32-0.1-1.38-0.31l-1.48-0.37l-0.69-0.37l0.69-0.37l1.48-0.32
		c1.11-0.21,0.95-0.11,1.43-0.37c0.27-0.21,0.74-0.9,0.37-1.59c-0.42-0.69-1.27-0.63-1.58-0.42c-0.48,0.21-0.27,0.21-0.95,1
		l-1.06,1.11l-0.69,0.43v-0.79l0.48-1.48c0.37-1.06,0.37-0.85,0.37-1.37c0-0.37-0.37-1.11-1.16-1.11c-0.8,0-1.16,0.74-1.16,1.11
		c0,0.53,0,0.31,0.37,1.37l0.48,1.48v0.79l-0.69-0.43l-1-1.11c-0.75-0.89-0.59-0.79-1.01-1.05c-0.32-0.16-1.17-0.21-1.59,0.47
		c-0.37,0.69,0.11,1.38,0.42,1.59c0.42,0.27,0.26,0.16,1.38,0.32l1.48,0.37l0.63,0.37l-0.63,0.37l-1.48,0.32
		c-1.11,0.21-0.96,0.11-1.43,0.37c-0.26,0.21-0.74,0.9-0.37,1.59c0.42,0.69,1.27,0.63,1.59,0.42c0.48-0.21,0.26-0.11,0.95-1.01
		l1.06-1.11l0.69-0.37v0.74l-0.48,1.48c-0.37,1.06-0.37,0.85-0.37,1.37c0,0.37,0.37,1.11,1.16,1.11c0.79,0,1.16-0.74,1.16-1.11
		c0-0.53-0.05-0.37-0.37-1.37l-0.48-1.48v-0.74l0.69,0.37l1.01,1.11C7.49,83.7,7.33,83.59,7.75,83.86L7.75,83.86z M158.83,83.86
		c0.32,0.16,1.16,0.21,1.59-0.47c0.37-0.69-0.11-1.37-0.43-1.59c-0.42-0.26-0.32-0.1-1.37-0.31l-1.48-0.37l-0.69-0.37l0.69-0.37
		l1.48-0.32c1.11-0.21,0.95-0.11,1.43-0.37c0.26-0.21,0.74-0.9,0.37-1.59c-0.43-0.69-1.27-0.63-1.59-0.42
		c-0.47,0.21-0.26,0.21-0.95,1l-1.06,1.11l-0.69,0.43v-0.79l0.48-1.48c0.37-1.06,0.37-0.85,0.37-1.37c0-0.37-0.37-1.11-1.16-1.11
		c-0.8,0-1.16,0.74-1.16,1.11c0,0.53,0,0.31,0.37,1.37l0.48,1.48v0.79l-0.69-0.43l-1-1.11c-0.75-0.89-0.58-0.79-1.01-1.05
		c-0.31-0.16-1.16-0.21-1.58,0.47c-0.37,0.69,0.1,1.38,0.42,1.59c0.43,0.27,0.27,0.16,1.38,0.32l1.48,0.37l0.64,0.37l-0.64,0.37
		l-1.48,0.32c-1.11,0.21-0.95,0.11-1.43,0.37c-0.27,0.21-0.74,0.9-0.37,1.59c0.42,0.69,1.27,0.63,1.58,0.42
		c0.48-0.21,0.26-0.11,0.95-1.01l1.06-1.11l0.69-0.37v0.74l-0.48,1.48c-0.37,1.06-0.37,0.85-0.37,1.37c0,0.37,0.37,1.11,1.16,1.11
		c0.8,0,1.16-0.74,1.16-1.11c0-0.53-0.05-0.37-0.37-1.37l-0.48-1.48v-0.74l0.69,0.37l1,1.11C158.56,83.7,158.41,83.59,158.83,83.86
		L158.83,83.86z M21.17,117.95l-7.48,4.3c-0.82,0.47-1.57,0.62-2.25,0.47c-0.68-0.15-1.24-0.63-1.7-1.42
		c-0.24-0.43-0.38-0.88-0.4-1.34c-0.02-0.47,0.09-0.93,0.33-1.38l1.55,0.63c-0.1,0.2-0.16,0.43-0.16,0.66
		c-0.01,0.24,0.03,0.44,0.12,0.59c0.19,0.32,0.42,0.48,0.71,0.49c0.29,0.02,0.58-0.06,0.86-0.22l7.54-4.33L21.17,117.95
		L21.17,117.95z M27.04,130.12c0.24-0.21,0.41-0.45,0.51-0.72c0.1-0.27,0.03-0.55-0.23-0.84c-0.13-0.16-0.28-0.26-0.44-0.3
		c-0.15-0.04-0.31-0.04-0.46,0c-0.16,0.04-0.31,0.11-0.44,0.19c-0.15,0.09-0.27,0.19-0.39,0.28l-4.36,3.78
		c-0.22,0.2-0.38,0.42-0.46,0.69c-0.08,0.27,0,0.54,0.24,0.81c0.23,0.27,0.49,0.39,0.79,0.34c0.28-0.05,0.56-0.19,0.83-0.42
		L27.04,130.12L27.04,130.12z M23.87,135.23c-0.75,0.65-1.48,0.98-2.16,0.97c-0.69,0-1.34-0.37-1.97-1.1
		c-0.63-0.73-0.9-1.42-0.82-2.07c0.08-0.65,0.47-1.28,1.17-1.88l4.37-3.78c0.34-0.29,0.69-0.53,1.04-0.7
		c0.35-0.16,0.7-0.25,1.04-0.26c0.35-0.01,0.7,0.08,1.04,0.24c0.34,0.17,0.68,0.45,1,0.82c0.35,0.4,0.58,0.78,0.71,1.14
		c0.13,0.36,0.16,0.71,0.1,1.04c-0.06,0.34-0.2,0.66-0.42,0.97c-0.22,0.32-0.51,0.63-0.87,0.94L23.87,135.23L23.87,135.23z
		 M36.45,145.26c-0.3,0.42-0.61,0.77-0.92,1.05c-0.31,0.28-0.64,0.48-1,0.59c-0.34,0.11-0.72,0.13-1.11,0.04
		c-0.39-0.08-0.81-0.28-1.25-0.59c-0.41-0.29-0.71-0.6-0.92-0.92c-0.21-0.33-0.33-0.65-0.38-0.99c-0.05-0.34-0.01-0.68,0.1-1.02
		c0.11-0.34,0.28-0.66,0.5-0.97l1.65,0.75c-0.23,0.36-0.37,0.69-0.41,1c-0.04,0.3,0.11,0.57,0.45,0.81c0.2,0.14,0.38,0.21,0.55,0.22
		c0.17,0.01,0.33-0.04,0.48-0.12c0.15-0.08,0.29-0.2,0.41-0.35c0.14-0.16,0.26-0.33,0.38-0.5c0.16-0.22,0.29-0.42,0.36-0.59
		c0.08-0.17,0.13-0.34,0.13-0.5c0-0.16-0.05-0.33-0.13-0.51c-0.08-0.18-0.2-0.4-0.35-0.66c-0.32-0.51-0.54-0.96-0.67-1.35
		c-0.14-0.39-0.2-0.75-0.18-1.07c0.01-0.31,0.09-0.62,0.22-0.9c0.14-0.3,0.31-0.59,0.51-0.86c0.27-0.38,0.56-0.69,0.87-0.94
		c0.32-0.25,0.65-0.42,1-0.52c0.35-0.1,0.72-0.1,1.1-0.02c0.38,0.08,0.77,0.27,1.18,0.55c0.44,0.31,0.75,0.64,0.94,0.98
		c0.19,0.34,0.29,0.69,0.31,1.02c0.02,0.33-0.03,0.66-0.14,0.97c-0.1,0.29-0.25,0.57-0.43,0.83l-1.69-0.7
		c0.24-0.34,0.38-0.66,0.42-0.95c0.04-0.3-0.12-0.56-0.46-0.81c-0.18-0.13-0.35-0.19-0.5-0.19c-0.15,0-0.3,0.03-0.45,0.11
		c-0.14,0.07-0.28,0.17-0.39,0.29c-0.11,0.12-0.22,0.25-0.31,0.39c-0.1,0.14-0.19,0.29-0.27,0.44c-0.07,0.13-0.1,0.28-0.09,0.45
		c0.01,0.17,0.06,0.37,0.15,0.6c0.09,0.23,0.25,0.5,0.46,0.83c0.3,0.46,0.51,0.86,0.62,1.22c0.12,0.36,0.16,0.69,0.13,1
		c-0.03,0.32-0.13,0.63-0.28,0.92C36.9,144.59,36.7,144.91,36.45,145.26L36.45,145.26z M51.21,144.17c0.96,0.43,1.56,1,1.77,1.71
		c0.22,0.7,0.08,1.61-0.42,2.72c-0.22,0.49-0.47,0.92-0.75,1.28c-0.27,0.36-0.58,0.63-0.93,0.82c-0.35,0.19-0.74,0.28-1.16,0.28
		c-0.43,0-0.91-0.13-1.45-0.37l-0.66-0.3l-1.81,4.02l-1.63-0.73l4.73-10.47L51.21,144.17L51.21,144.17z M49.83,145.37l-1.53,3.38
		l0.57,0.26c0.5,0.22,0.91,0.24,1.24,0.04c0.33-0.2,0.62-0.58,0.88-1.16c0.23-0.51,0.32-0.96,0.27-1.34
		c-0.05-0.38-0.33-0.69-0.82-0.91L49.83,145.37L49.83,145.37z M59.69,159.36l2.58-11.19l4.97,1.15l-0.38,1.62l-3.23-0.75l-0.7,3.06
		l2.81,0.65l-0.38,1.65l-2.81-0.65l-0.75,3.23l3.23,0.75l-0.37,1.62L59.69,159.36L59.69,159.36z M78.44,150.44
		c0.94,0.02,1.66,0.3,2.18,0.84c0.51,0.54,0.76,1.39,0.73,2.57c-0.02,0.73-0.14,1.34-0.35,1.83c-0.22,0.49-0.59,0.88-1.11,1.15
		l1.57,5.17l-1.81-0.05l-1.37-4.79l-0.84-0.02l-0.12,4.75l-1.78-0.05l0.29-11.48L78.44,150.44L78.44,150.44z M77.56,152.08
		l-0.08,3.36l0.72,0.01c0.46,0.01,0.81-0.11,1.03-0.38c0.23-0.26,0.35-0.69,0.36-1.29c0.02-0.53-0.08-0.94-0.29-1.24
		c-0.21-0.29-0.56-0.45-1.05-0.47L77.56,152.08L77.56,152.08z M101.7,159.18c-0.91,0.26-1.65,0.22-2.21-0.12
		c-0.56-0.34-0.97-0.95-1.23-1.84l-1.57-5.51c-0.11-0.41-0.18-0.81-0.19-1.21c-0.01-0.39,0.06-0.75,0.2-1.09
		c0.14-0.34,0.35-0.63,0.65-0.89c0.29-0.26,0.68-0.45,1.17-0.59c0.9-0.26,1.63-0.21,2.18,0.13c0.56,0.35,0.94,0.89,1.15,1.64
		l0.03,0.13l-1.59,0.81c-0.11-0.4-0.28-0.7-0.51-0.92c-0.22-0.21-0.5-0.27-0.83-0.17c-0.2,0.06-0.34,0.14-0.45,0.26
		c-0.1,0.12-0.17,0.26-0.2,0.41c-0.03,0.15-0.03,0.31-0.02,0.47c0.02,0.16,0.05,0.31,0.08,0.45l1.6,5.61
		c0.03,0.12,0.08,0.22,0.14,0.32c0.08,0.18,0.21,0.34,0.38,0.46c0.16,0.13,0.4,0.14,0.7,0.06c0.3-0.09,0.52-0.24,0.66-0.45
		c0.13-0.21,0.16-0.45,0.08-0.73l-0.61-2.18l-1,0.28l-0.42-1.49l2.71-0.77l1.01,3.52c0.24,0.87,0.18,1.59-0.18,2.17
		C103.07,158.55,102.49,158.95,101.7,159.18L101.7,159.18z M111.97,142.83c0.83-0.43,1.6-0.53,2.31-0.31
		c0.71,0.23,1.33,0.86,1.87,1.91c0.33,0.65,0.52,1.24,0.56,1.77c0.05,0.54-0.09,1.05-0.42,1.54l3.85,3.79l-1.61,0.83l-3.49-3.55
		l-0.76,0.39l2.17,4.23l-1.59,0.81l-5.23-10.22L111.97,142.83L111.97,142.83z M111.98,144.7l1.53,3l0.65-0.33
		c0.41-0.21,0.66-0.49,0.73-0.82c0.07-0.34-0.03-0.78-0.3-1.31c-0.24-0.47-0.52-0.78-0.84-0.95c-0.33-0.16-0.71-0.13-1.15,0.09
		L111.98,144.7L111.98,144.7z M129.29,145.46l-7.09-9.03l1.4-1.1l7.09,9.03L129.29,145.46z M139.25,136.61l3.25-3.75l-1.26-1.09
		l-2.09,2.4l-7.42-6.42l-1.17,1.35L139.25,136.61L139.25,136.61z M148.9,124.23l-9.95-5.72l0.89-1.54l8.51,4.89l1.59-2.76l1.45,0.83
		L148.9,124.23L148.9,124.23z M53.4,50.35h11.29v-4.01H53.4V50.35z M64.69,60c0-3.76-2.2-6.11-5.64-6.11
		c-3.38,0-5.65,2.35-5.65,6.11v43.92c0,3.77,2.2,6.12,5.65,6.12c3.37,0,5.64-2.35,5.64-6.12L64.69,60L64.69,60z M57.33,63.69
		c0-4.39-0.16-6.04,1.72-6.04c1.88,0,1.72,1.64,1.72,6.04v36.54c0,4.39,0.16,6.04-1.72,6.04c-1.88,0-1.72-1.65-1.72-6.04V63.69
		L57.33,63.69z M85.7,69.96V60c0-3.76-2.2-6.11-5.65-6.11c-3.37,0-5.64,2.35-5.64,6.11v5.81c0,13.96,7.29,14.59,7.29,29.09v6.12
		c0,4.39-0.23,5.26-1.72,5.26c-1.49,0-1.72-0.87-1.72-5.26V91.6h-3.92v12.31c0,3.77,2.36,6.12,5.65,6.12c3.3,0,5.57-2.35,5.65-6.12
		v-9.33c0-14.19-7.29-14.59-7.29-29.33V62.9c0-4.39,0.24-5.25,1.72-5.25c1.49,0,1.72,0.86,1.72,5.25v7.06L85.7,69.96L85.7,69.96z
		 M99.25,82.58h3.45v26.82h3.92v-54.9h-3.92v24.31h-3.45V54.51h-3.92v54.9h3.92L99.25,82.58L99.25,82.58z M123.63,58.27h4.24v-3.76
		h-12.39v3.76h4.24v51.13h3.92L123.63,58.27L123.63,58.27z"/>
</g>
</svg>
