<?xml version="1.0" encoding="utf-8"?>
<!-- Generator: Adobe Illustrator 25.0.0, SVG Export Plug-In . SVG Version: 6.00 Build 0)  -->
<svg version="1.1" id="Layer_1" xmlns="http://www.w3.org/2000/svg" xmlns:xlink="http://www.w3.org/1999/xlink" width="314px" height="185px" x="0px" y="0px"
	 viewBox="0 0 173.33 90.64" style="enable-background:new 0 0 173.33 90.64;" xml:space="preserve">
<style type="text/css">
	.st0{fill:#154923;}
</style>
<g>
	<path class="st0" d="M26.9,11.69c0,0.44,0,1.1,0,1.54c0.22,4.19,0.44,8.38,0.66,12.57c0.44,5.07,0.66,9.92,0.88,14.78
		c0.22,5.29,0.44,10.59,0.66,15.88c0.22,0.44,0.22,0.66,0.88,0.66c2.65-0.22,5.29-0.44,7.72-1.1c3.09-0.44,5.95-1.1,8.82-1.98
		c4.85-1.32,9.48-3.31,13.45-6.4c3.97-3.31,6.62-7.28,7.06-12.57c0.44-3.53-0.66-6.62-2.87-9.26c-2.87-3.75-6.84-5.95-11.03-7.72
		c-1.98-0.88-3.75-1.54-5.51-2.21c-2.21-0.66-4.19-1.32-6.17-1.76c-3.53-0.66-7.06-1.32-10.36-1.98
		C29.77,11.91,28.45,11.91,26.9,11.69L26.9,11.69z M38.15,64.17c12.79,7.94,25.36,15.88,38.15,23.82c-1.32,0.88-2.43,1.76-3.53,2.65
		c-0.22,0-0.44,0-0.44,0c-4.19-2.21-8.38-4.41-12.35-6.62c-2.87-1.54-5.73-3.09-8.6-4.63c-4.63-2.43-9.26-5.07-13.89-7.5
		c-2.43-1.32-4.85-2.65-7.28-3.97c0,0-0.22,0-0.44,0c0.22,1.76,0.22,3.75,0.44,5.51c-2.87,0-5.51,0-8.16,0c0-0.22,0-0.66,0-0.88
		c0-2.21,0-4.63,0-7.06c0-0.44-0.22-0.66-0.66-0.66c-1.1,0-1.98,0-3.09-0.22c-0.44,0-0.66-0.22-0.66-0.66
		c0.22-1.98,0.22-4.19,0-6.17c0-0.44,0.22-0.66,0.66-0.66c1.1,0.22,2.21,0.22,3.31,0.22c0.22,0,0.44-0.22,0.44-0.44
		c0-0.22,0-0.44,0-0.44c0-14.78,0-29.55,0-44.33c0-0.88,0-1.1-0.88-1.1c-5.73-0.44-11.47-0.44-16.98-0.22
		c-0.88,0-1.54,0.22-2.43,0.22c-0.22,0-0.44-0.22-0.44-0.44C0.88,8.6,0.44,6.84,0,4.85c0-0.22,0-0.22,0-0.44c0.88,0,1.54,0,2.21,0
		c4.19,0,8.16,0,12.13,0c2.43,0.22,4.85,0.22,7.28,0.44c0.44,0,0.44,0,0.44-0.44c0-1.32,0-2.43,0-3.75c0-0.44,0.22-0.66,0.66-0.66
		c0.88,0,1.98,0,3.09,0c0.44,0,0.44,0.22,0.44,0.44c0,1.54,0.22,2.87,0.22,4.41c0,0.44,0.22,0.44,0.66,0.66
		c1.98,0.22,3.97,0.44,5.95,0.66c2.21,0.44,4.41,0.88,6.62,1.32c2.43,0.44,4.63,0.88,7.06,1.54c5.95,1.76,11.91,4.19,17.2,7.72
		c3.75,2.65,7.06,5.73,9.26,9.7c1.98,3.53,2.65,7.5,1.76,11.47c-0.66,4.19-2.65,7.72-5.29,10.81c-3.09,3.53-6.84,6.4-11.03,8.6
		c-3.53,1.98-7.5,3.75-11.47,4.63C44.11,62.85,41.24,63.51,38.15,64.17L38.15,64.17z"/>
	<path class="st0" d="M114.23,77.85c-2.21,0-4.63,0-7.06,0c0-0.44,0-0.66,0-0.88c0-5.07,0-9.92,0-15c0-1.32-0.44-1.98-1.76-1.98
		c-1.76,0-3.31,0.44-4.63,1.54c-0.22,0-0.22,0.44-0.22,0.88c-0.22,4.85-0.22,9.7-0.22,14.55c0,0.88,0,0.88-0.66,0.88
		c-2.21,0-4.41,0-6.62,0c-0.44,0-0.44-0.22-0.44-0.66c0-6.84,0-13.67,0-20.29c0-0.22,0-0.44,0-0.66c2.65,0,5.07,0,7.72,0
		c0,0.88,0,1.54,0,2.43c0.88-0.44,1.76-0.88,2.43-1.1c2.87-1.32,5.95-1.54,9.04-0.88c1.1,0.22,1.98,0.88,2.65,1.98
		c1.54-0.88,3.31-1.54,5.29-1.98c2.21-0.44,4.41-0.66,6.84,0.22c1.32,0.44,1.98,1.54,1.98,2.87c0,5.95,0,11.69,0,17.64
		c0,0,0,0.22,0,0.44c-0.22,0-0.44,0-0.66,0c-2.21,0-4.41,0-6.62,0c-0.44,0-0.66-0.22-0.66-0.66c0-5.07,0-10.14,0-15.22
		c0-1.76-0.88-2.21-2.21-1.98c-1.32,0.22-2.65,0.66-3.75,1.32c-0.22,0.22-0.44,0.66-0.44,0.88c0,5.07,0,9.92,0,14.78
		C114.23,77.18,114.23,77.4,114.23,77.85L114.23,77.85z"/>
	<path class="st0" d="M79.61,67.04c-0.22,0-0.44,0-0.44,0c-1.32,0.66-2.87,1.1-3.97,1.76c-1.1,0.44-1.98,0.88-2.43,1.98
		c-1.1,1.54-0.22,3.31,1.54,3.53c1.76,0.22,3.53-0.44,5.07-1.54c0-0.22,0.22-0.44,0.22-0.44C79.61,70.57,79.61,68.8,79.61,67.04
		L79.61,67.04z M73.44,62.63c-1.32,0-2.43,0-3.53,0c-1.32,0-2.43,0-3.53,0c-0.66,0-0.66-0.22-0.66-0.66c0-1.54,0.88-2.65,2.21-3.53
		c3.09-1.76,6.17-2.21,9.48-2.21c2.21,0,4.41,0.22,6.4,1.1c2.43,0.88,3.75,2.65,3.75,5.29c0,2.65,0,5.07,0,7.72
		c0,2.43,0.22,4.85,0.66,7.5c-0.66,0-1.54,0-2.43,0c-1.54,0-3.09,0-4.63,0c-0.44,0-0.66-0.22-0.66-0.66
		c-0.22-0.66-0.44-1.32-0.66-1.98c-0.22,0.22-0.66,0.44-0.88,0.66c-3.31,1.54-6.62,2.21-10.14,1.76c-1.32-0.22-2.65-0.66-3.53-1.98
		c-1.32-1.54-1.1-3.97,0.44-5.51c1.1-1.32,2.43-1.98,3.75-2.65c3.09-1.32,6.4-2.43,9.7-3.31c0.44,0,0.66-0.22,0.66-0.66
		c-0.22-0.66,0-1.1-0.22-1.54c0-1.32-0.22-1.76-1.32-1.98c-1.32-0.44-2.43-0.22-3.75,0.22c-0.66,0.22-1.1,0.88-1.1,1.76
		C73.44,62.19,73.44,62.41,73.44,62.63L73.44,62.63z"/>
	<path class="st0" d="M157.01,60.42c-0.44,0-0.88,0-1.1,0c-3.31,0-6.4,0-9.48,0c-0.44,0-0.66,0-0.66-0.44c0-1.32,0-2.43,0-3.75
		c0.22,0,0.66,0,0.88,0c5.73,0,11.47,0,17.42,0c0.44,0,0.66,0.22,0.66,0.66c0,1.1,0,2.21,0,3.09c0,0.22-0.22,0.66-0.44,0.88
		c-3.53,3.97-7.06,7.94-10.81,11.91c0,0.22-0.22,0.44-0.44,0.88c3.97,0,7.72,0,11.69,0c0,1.32,0,2.65,0,3.97
		c0,0-0.22,0.22-0.44,0.22h-0.22c-6.17,0-12.35,0-18.52,0c-0.66,0-0.88,0-0.88-0.66c0-1.1,0-1.98,0-2.87c0-0.44,0.22-0.88,0.44-1.32
		c3.31-3.31,6.4-6.62,9.48-9.92c0.66-0.66,1.32-1.32,1.98-1.98C156.79,60.87,156.79,60.64,157.01,60.42L157.01,60.42z"/>
	<path class="st0" d="M132.76,56.23c2.65,0,5.07,0,7.72,0c0,7.28,0,14.33,0,21.61c-2.43,0-5.07,0-7.72,0
		C132.76,70.79,132.76,63.51,132.76,56.23L132.76,56.23z"/>
	<path class="st0" d="M132.76,51.82c0-1.54,0-2.87,0-4.19c2.65,0,5.07,0,7.94,0c0,1.32,0,2.87,0,4.19
		C138.05,51.82,135.4,51.82,132.76,51.82L132.76,51.82z"/>
	<path class="st0" d="M160.98,85.78L160.98,85.78c0.22,0,0.66,0,0.88,0c0.66,0,0.88-0.44,0.88-0.88c0-0.66-0.44-0.88-0.88-1.1
		c-0.66,0-1.1,0-1.76,0c0,0-0.22,0.22-0.22,0.44c0,0.44-0.22,0.88,0,1.32C159.88,85.78,160.54,85.78,160.98,85.78L160.98,85.78z
		 M162.53,86.67c0.88,1.1,1.54,1.98,2.21,3.09c-1.1,0.22-1.54,0.22-2.21-0.66c-0.22-0.44-0.66-1.1-0.88-1.54
		c-0.66-0.66-0.66-0.66-1.76-0.66c0,0.66,0,1.32,0,1.98c0,0.88,0,0.88-1.1,0.88c0,0-0.22,0-0.44,0c0-2.21,0-4.63,0-7.06
		c1.54,0,3.09,0,4.41,0.22c0.88,0,1.32,0.88,1.32,1.54c0.22,1.1-0.22,1.76-1.1,1.98C162.75,86.67,162.75,86.67,162.53,86.67
		L162.53,86.67z"/>
	<path class="st0" d="M133.42,89.75c-0.44,0-0.88,0.22-1.32,0c-0.22,0-0.44-0.22-0.66-0.44c-0.44-0.88-0.88-1.54-1.32-2.43
		c0,0-0.22-0.22-0.22-0.44c-0.66,0.66-1.32,1.1-1.32,1.98c0,0.22,0,0.44,0,0.66c0,0.88,0,0.88-0.88,0.66
		c-0.22,0-0.44-0.22-0.44-0.22c0-2.21,0-4.41,0-6.84c0.44,0,0.88,0,1.32,0c0,1.1,0,1.98,0,3.09c0.44-0.22,0.66-0.44,0.88-0.66
		c0.44-0.44,1.1-1.1,1.54-1.54c0.66-1.1,1.32-0.88,2.43-0.88c-0.66,0.88-1.32,1.54-1.98,2.21c-0.66,0.44-0.66,0.88-0.22,1.32
		c0.66,1.1,1.32,2.21,2.21,3.09C133.42,89.53,133.42,89.53,133.42,89.75L133.42,89.75z"/>
	<path class="st0" d="M149.52,84.68c-0.66,0-1.1,0.22-1.54-0.44c-0.22-0.66-1.54-0.66-1.98-0.22c-0.44,0.44-0.44,0.88,0,1.1
		c0.88,0.22,1.54,0.44,2.43,0.66c0.88,0.22,1.32,0.88,1.32,1.98c0,1.1-0.44,1.54-1.54,1.98c-1.1,0.44-3.09,0.22-3.75-0.88
		c0-0.44-0.22-0.88-0.44-1.1c1.1-0.44,1.32-0.44,1.76,0.44c0.44,0.66,1.76,0.88,2.43,0.22c0.44-0.44,0.22-1.1-0.44-1.32
		c-0.44-0.22-1.1-0.44-1.76-0.66c-0.88-0.22-1.54-0.66-1.54-1.54c-0.22-0.66,0-1.32,0.66-1.76c0.88-0.66,2.87-0.66,3.75,0
		C149.3,83.58,149.52,84.02,149.52,84.68L149.52,84.68z"/>
	<path class="st0" d="M140.03,82.7c0,2.43,0,4.85,0,7.06c0,0,0,0-0.22,0c-1.1,0.22-1.1,0.22-1.1-1.1c0-0.44,0-0.88,0-1.54
		c0-0.22-0.22-0.44-0.44-0.44c-0.66,0-1.54,0-2.43,0c0,1.1,0,1.98,0,3.09h-0.22c-1.1,0.22-1.1,0.22-1.1-1.1c0-1.76,0-3.75,0-5.73
		c0.44,0,0.88,0,1.32,0c0,0.88,0,1.76,0,2.65c0.88,0,1.76,0,2.65,0c0,0,0.22-0.22,0.22-0.44c0-0.66,0-1.1,0-1.54
		c0-0.66,0.22-0.88,0.88-0.88C139.59,82.7,139.81,82.7,140.03,82.7L140.03,82.7z"/>
	<path class="st0" d="M123.72,87.11c-0.22-0.88-0.66-1.76-0.88-2.65c0,0,0,0-0.22,0c-0.22,0.88-0.44,1.76-0.88,2.65
		C122.39,87.11,123.05,87.11,123.72,87.11L123.72,87.11z M126.36,89.75c-1.32,0.22-1.54,0.22-1.98-0.88c0-0.66-0.22-0.66-0.88-0.66
		c-0.44,0-0.88,0-1.54,0c-0.44,0-0.66,0.22-0.88,0.66c-0.44,1.1-0.44,1.1-1.76,0.88c0.44-1.1,0.88-2.43,1.32-3.53
		c0.44-0.88,0.88-1.98,1.1-2.87c0.22-0.66,0.66-0.66,1.32-0.66c0.44,0,0.44,0.22,0.66,0.66C124.6,85.56,125.48,87.55,126.36,89.75
		L126.36,89.75z"/>
	<path class="st0" d="M153.93,84.46L153.93,84.46c-0.44,0.88-0.66,1.76-0.88,2.65c0.66,0,1.1,0,1.98,0
		C154.59,86.23,154.37,85.34,153.93,84.46L153.93,84.46z M157.46,89.75h-0.22c-1.1,0.22-1.32,0.22-1.54-0.88
		c-0.22-0.66-0.44-0.66-0.88-0.66c-0.44,0-1.1,0-1.54,0c-0.66,0-0.88,0.22-1.1,0.66c-0.44,1.1-0.44,1.1-1.54,0.88
		c0-0.44,0.22-0.88,0.44-1.54c0.66-1.54,1.32-3.31,1.98-4.85c0.22-0.66,0.66-0.66,1.1-0.66c0.44,0,0.66,0.22,0.66,0.66
		c0.88,1.98,1.76,3.97,2.65,5.95C157.46,89.53,157.46,89.53,157.46,89.75L157.46,89.75z"/>
	<path class="st0" d="M112.25,83.8c-0.44,0-0.88,0.22-0.88,0.88c0,0.44,0.44,0.88,0.88,0.88c0.44,0,0.88-0.44,0.88-0.88
		C113.13,84.02,112.91,83.8,112.25,83.8L112.25,83.8z M112.25,88.87c0.66,0,1.1-0.44,1.1-1.1c0-0.66-0.44-1.32-1.1-1.32
		c-0.44,0-1.1,0.66-1.1,1.32C111.37,88.43,111.81,88.87,112.25,88.87L112.25,88.87z M113.57,86.01c1.32,1.1,1.32,2.43,0.44,3.31
		s-2.65,0.88-3.53,0s-0.66-2.21,0.44-3.31c-0.88-1.32-0.88-2.21-0.22-2.87c0.88-0.66,2.43-0.66,3.09,0
		C114.67,84.02,114.45,84.68,113.57,86.01L113.57,86.01z"/>
	<path class="st0" d="M102.1,85.12c0,0-0.22-0.22-0.22-0.44c-0.22-0.66-0.44-0.88-1.1-0.88c-0.66,0-0.66,0.44-0.66,1.1
		c0,0,0,0.22,0,0.44c0,0.66,0.44,1.1,0.88,1.1C101.66,86.45,102.1,86.01,102.1,85.12L102.1,85.12z M98.8,88.21
		c0.66,0,0.88,0,1.32-0.22c0.44,0.88,0.66,1.1,1.32,0.88c0.44-0.22,0.66-1.1,0.44-1.76c-0.22,0-0.22,0.22-0.44,0.22
		c-1.76,0.44-2.87-1.1-2.65-2.65c0.22-1.1,0.88-1.76,1.98-1.98c1.1,0,1.98,0.44,2.43,1.76c0.44,1.54,0.66,3.09-0.44,4.63
		c-0.88,1.1-2.87,1.1-3.53,0C99.02,88.87,99.02,88.65,98.8,88.21L98.8,88.21z"/>
	<path class="st0" d="M104.31,89.75c0.22-1.1,0.88-1.76,1.54-2.65c0.44-0.44,1.1-0.88,1.54-1.54c0.22-0.22,0.22-0.44,0.22-0.66
		c0.22-0.44,0-0.88-0.66-1.1c-0.66,0-1.1,0.22-1.1,0.66c-0.22,0.22-0.22,0.22-0.22,0.44c-0.44,0-0.66-0.22-1.1-0.22
		c0-1.54,1.54-2.21,2.87-1.98c1.76,0.44,2.21,2.21,0.88,3.75c-0.44,0.66-1.1,1.1-1.54,1.54c0,0.22-0.22,0.22-0.44,0.66
		c0.88,0,1.54,0,1.98,0c0.66,0,0.66,0.22,0.66,0.66s-0.22,0.44-0.66,0.44c-1.1,0-2.21,0-3.31,0
		C104.75,89.75,104.53,89.75,104.31,89.75L104.31,89.75z"/>
	<path class="st0" d="M172.67,51.82c0-1.98-1.32-3.53-3.53-3.53c-2.21-0.22-3.75,1.54-3.75,3.53c0,1.98,1.54,3.75,3.53,3.75
		C171.13,55.57,172.67,54.03,172.67,51.82L172.67,51.82z M168.92,56.23c-2.21,0-4.19-1.98-4.19-4.41c0-2.21,1.76-4.19,4.41-4.19
		c2.43,0,4.19,1.98,4.19,4.19C173.33,54.25,171.57,56.23,168.92,56.23L168.92,56.23z"/>
	<path class="st0" d="M96.81,82.7c0,2.43,0,4.63,0,7.06c-0.44,0-0.88,0-1.32,0c0-1.54,0-3.31,0-5.07c-0.66,0.44-1.1,0.66-1.76,0.88
		c-0.22-0.66,0-1.1,0.66-1.32c0.22-0.22,0.66-0.66,0.88-0.88C95.71,82.7,96.15,82.7,96.81,82.7L96.81,82.7z"/>
	<path class="st0" d="M141.58,89.75c0-2.43,0-4.63,0-6.84c0.22-0.22,0.22-0.22,0.22-0.22c1.32,0,1.32,0,1.32,1.1
		c0,1.76,0,3.53,0,5.29c0,0.66,0,0.66-0.88,0.66C142.02,89.75,141.8,89.75,141.58,89.75L141.58,89.75z"/>
	<path class="st0" d="M142.24,82.04c-0.44,0-0.66,0-0.66-0.66c0-0.44,0.22-0.66,0.66-0.66s0.88,0.22,0.66,0.66
		C142.9,81.82,142.9,82.04,142.24,82.04L142.24,82.04z"/>
	<path class="st0" d="M168.7,50.06c-0.22,0.22-0.66,0.22-0.88,0.44c-0.22,0.66,0,1.32,0.88,1.32c0.88-0.22,1.32-0.44,1.32-0.88
		C170.03,50.5,169.81,50.28,168.7,50.06L168.7,50.06z M169.58,52.26c0.44,0.66,0.88,1.32,1.32,1.98c-0.44,0-0.88,0-0.88-0.44
		c-0.22-0.44-0.44-0.88-0.66-1.1c-0.22-0.22-0.66-0.44-0.88-0.44c-0.44-0.22-0.66,0-0.66,0.44c0,0.44,0,0.88,0,1.54
		c-0.44,0-0.66,0-0.66-0.44c0-1.32,0-2.43,0-3.75c0,0,0.22-0.44,0.44-0.44c0.66,0,1.32,0,1.98,0.22c0.66,0,1.1,0.22,1.1,0.88
		c0,0.44-0.22,1.1-0.66,1.32C169.81,52.04,169.81,52.04,169.58,52.26L169.58,52.26z"/>
</g>
</svg>
