<?xml version="1.0" encoding="utf-8"?>
<!-- Generator: Adobe Illustrator 25.0.0, SVG Export Plug-In . SVG Version: 6.00 Build 0)  -->
<svg version="1.1" id="Layer_1" xmlns="http://www.w3.org/2000/svg" xmlns:xlink="http://www.w3.org/1999/xlink" width="314px" height="185px" x="0px" y="0px"
	 viewBox="0 0 165.74 23.66" style="enable-background:new 0 0 165.74 23.66;" xml:space="preserve">
<style type="text/css">
	.st0{fill:#0A72BA;}
	.st1{fill-rule:evenodd;clip-rule:evenodd;fill:#0A72BA;}
</style>
<g>
	<rect x="100.32" y="0.54" class="st0" width="5.61" height="22.28"/>
	<polygon class="st0" points="79.8,0.77 72.71,22.82 66.47,22.82 61.71,8.02 56.95,22.82 50.71,22.82 43.6,0.77 49.32,0.77 
		53.83,14.74 58.31,0.77 65.08,0.77 69.59,14.74 74.07,0.77 	"/>
	<polygon class="st0" points="0,0.54 5.64,0.54 5.64,17.94 15.85,17.94 15.85,22.82 5.64,22.82 0,22.82 0,17.94 	"/>
	<polygon class="st0" points="114.58,12.61 114.58,22.82 108.96,22.82 108.96,0.54 114.58,0.54 114.58,9.07 121.07,0.54 
		128.35,0.54 120.53,10.83 129.4,22.82 122.12,22.82 	"/>
	<rect x="130.17" y="0.54" class="st0" width="5.64" height="22.28"/>
	<polygon class="st0" points="144.17,12.61 144.17,22.82 138.53,22.82 138.53,0.54 144.17,0.54 144.17,9.07 150.63,0.54 
		157.92,0.54 150.12,10.83 159,22.82 151.71,22.82 	"/>
	<rect x="160.13" y="0.54" class="st0" width="5.61" height="22.28"/>
	<path class="st1" d="M15.65,10.63C15.65,4.76,20.38,0,26.25,0h2.66c4.79,0,8.82,3.17,10.15,7.54h-5.75
		c-1.08-1.98-3.17-3.32-5.58-3.32h-0.09c-3.51,0-6.38,2.83-6.38,6.38v2.32c0,3.51,2.86,6.38,6.38,6.38h0.09
		c2.41,0,4.51-1.36,5.58-3.34h5.75c-1.33,4.37-5.36,7.54-10.15,7.54h-2.66c-5.87,0-10.6-4.76-10.6-10.6V10.63z"/>
	<path class="st1" d="M80.31,1.81c0,0,7.99-3.91,14.4-0.06c0,0,3.15,1.98,3.06,7.85l0.09,13.46h-5.07V12.81c0,0-8.84-0.79-9.04,3.15
		c-0.23,3.91,3.49,3.4,3.49,3.4s3.15-0.34,4.28-2.41v4.34c0,0-2.64,2.64-6.49,2.35c-3.86-0.28-5.98-3.06-5.98-3.06
		s-2.01-2.41-0.65-6.49c1.36-4.05,6.43-4.62,6.43-4.62s2.07-0.37,7.2-0.31c0,0,0.43-3.49-1.87-4.2c-2.27-0.71-5.7-0.14-5.7-0.14
		s-3.12,0.79-5.5,2.49L80.31,1.81z"/>
</g>
</svg>
