<?xml version="1.0"?>
<svg xmlns="http://www.w3.org/2000/svg" xmlns:xlink="http://www.w3.org/1999/xlink" xmlns:svgjs="http://svgjs.com/svgjs" version="1.1" width="512" height="512" x="0" y="0" viewBox="0 0 511.998 511.998" style="enable-background:new 0 0 512 512" xml:space="preserve" class=""><g>
<g xmlns="http://www.w3.org/2000/svg">
	<g>
		<path d="M267.393,109.964c-22.338-3.642-45.221,3.727-61.206,19.714c-27.468,27.469-27.468,72.166,0,99.634    c1.953,1.953,4.512,2.929,7.071,2.929c2.559,0,5.118-0.977,7.071-2.929c3.905-3.905,3.905-10.237,0-14.142    c-19.672-19.672-19.672-51.68,0-71.352c11.449-11.449,27.841-16.723,43.845-14.117c5.456,0.888,10.591-2.811,11.479-8.261    C276.543,115.992,272.844,110.853,267.393,109.964z" fill="#ef5fa2" data-original="#000000" style="" class=""/>
	</g>
</g>
<g xmlns="http://www.w3.org/2000/svg">
	<g>
		<path d="M305.746,129.601l-0.109-0.109c-3.926-3.887-10.236-3.835-14.121,0.089c-3.887,3.924-3.836,10.276,0.089,14.163    l0.109,0.109c1.945,1.926,4.475,2.885,7.006,2.885c2.577,0,5.155-0.994,7.115-2.974    C309.722,139.84,309.671,133.488,305.746,129.601z" fill="#ef5fa2" data-original="#000000" style="" class=""/>
	</g>
</g>
<g xmlns="http://www.w3.org/2000/svg">
	<g>
		<path d="M256.005,71.041c-59.551,0-107.998,48.448-107.998,107.998c0,59.55,48.447,107.998,107.998,107.998    s107.998-48.448,107.998-107.998C364.003,119.489,315.556,71.041,256.005,71.041z M256.005,267.037    c-48.522,0-87.998-39.476-87.998-87.998s39.476-87.998,87.998-87.998s87.998,39.476,87.998,87.998    S304.527,267.037,256.005,267.037z" fill="#ef5fa2" data-original="#000000" style="" class=""/>
	</g>
</g>
<g xmlns="http://www.w3.org/2000/svg">
	<g>
		<path d="M480.435,327.274c0.103-1.613,0.153-3.229,0.153-4.847c0-37.341-26.94-68.49-62.399-75.083    c9.599-22.115,14.645-46.258,14.645-70.512c0-97.503-79.324-176.829-176.829-176.829c-41.556,0-79.803,14.417-110.022,38.501    c-10.37-17.374-29.34-28.466-50.068-28.466c-26.701,0-49.494,18.137-56.233,43.003c-0.951-0.073-1.908-0.11-2.87-0.11    C16.514,52.933,0,69.447,0,89.745c0,4.109,0.682,8.161,2.026,12.043c1.395,4.026,5.188,6.727,9.449,6.727h81.436    c-8.842,21.03-13.736,44.112-13.736,68.318c0,40.431,13.995,79.933,39.417,111.289c0.046,0.061,0.092,0.121,0.138,0.181    l78.482,100.596c-22.264,3.886-41.696,9.925-56.864,17.743c-27.558,14.205-33.342,30.329-33.342,41.354    c0,18.837,16.724,35.707,47.09,47.504c27.379,10.637,63.571,16.495,101.907,16.495c38.336,0,74.528-5.858,101.907-16.495    c30.366-11.797,47.09-28.667,47.09-47.504c0-11.025-5.783-27.148-33.336-41.352c-15.164-7.817-34.591-13.856-56.85-17.743    l11.634-14.905h175.523c5.364,0,9.773-4.233,9.992-9.593c0.02-0.495,0.035-0.989,0.035-1.489    C512,344.587,498.193,329.423,480.435,327.274z M20.045,88.514c0.633-8.698,7.911-15.582,16.768-15.582    c2.381,0,4.688,0.492,6.857,1.463c2.994,1.34,6.455,1.125,9.261-0.571c2.807-1.698,4.603-4.664,4.805-7.938    c1.244-20.102,18.016-35.848,38.18-35.848c14.963,0,28.528,8.799,34.734,22.202c-10.747,10.812-20.108,23-27.793,36.274H20.045z     M134.77,276.347c-0.125-0.174-0.256-0.346-0.392-0.514c-22.702-27.852-35.203-63.012-35.203-99    c0-86.476,70.353-156.829,156.829-156.829s156.829,70.353,156.829,156.829c0,24.487-5.482,47.885-16.268,69.599    c-32.736,3.274-59.7,27.349-66.877,59.105c-2.237-0.326-4.507-0.49-6.801-0.49c-25.852,0-46.885,21.033-46.885,46.885    c0,5.23,0.868,10.39,2.579,15.335c1.394,4.028,5.188,6.73,9.45,6.73h13.046l-45.07,57.745L134.77,276.347z M385.003,447.995    c0,9.721-12.835,20.51-34.332,28.861c-25.128,9.762-58.746,15.138-94.665,15.138s-69.538-5.376-94.665-15.138    c-21.498-8.352-34.332-19.142-34.332-28.861c0-14.821,31.402-33.823,84.289-41.048l36.824,47.199    c1.896,2.428,4.804,3.848,7.884,3.849h0.001c3.08,0,5.988-1.419,7.883-3.847l36.841-47.199    C353.604,414.175,385.003,433.177,385.003,447.995z M296.083,353.997c-0.053-0.686-0.079-1.375-0.079-2.065    c0-14.825,12.061-26.885,26.885-26.885c3.81,0,7.499,0.787,10.966,2.34c2.994,1.34,6.454,1.128,9.262-0.57    c2.808-1.698,4.604-4.664,4.806-7.938c1.837-29.63,26.557-52.841,56.276-52.841c31.094,0,56.391,25.297,56.391,56.39    c0,4.487-0.532,8.964-1.582,13.307c-0.841,3.476,0.239,7.136,2.831,9.599c2.593,2.463,6.304,3.355,9.731,2.338    c1.472-0.437,2.996-0.658,4.529-0.658c5.466,0,10.297,2.772,13.16,6.984H296.083z" fill="#ef5fa2" data-original="#000000" style="" class=""/>
	</g>
</g>
<g xmlns="http://www.w3.org/2000/svg">
</g>
<g xmlns="http://www.w3.org/2000/svg">
</g>
<g xmlns="http://www.w3.org/2000/svg">
</g>
<g xmlns="http://www.w3.org/2000/svg">
</g>
<g xmlns="http://www.w3.org/2000/svg">
</g>
<g xmlns="http://www.w3.org/2000/svg">
</g>
<g xmlns="http://www.w3.org/2000/svg">
</g>
<g xmlns="http://www.w3.org/2000/svg">
</g>
<g xmlns="http://www.w3.org/2000/svg">
</g>
<g xmlns="http://www.w3.org/2000/svg">
</g>
<g xmlns="http://www.w3.org/2000/svg">
</g>
<g xmlns="http://www.w3.org/2000/svg">
</g>
<g xmlns="http://www.w3.org/2000/svg">
</g>
<g xmlns="http://www.w3.org/2000/svg">
</g>
<g xmlns="http://www.w3.org/2000/svg">
</g>
</g></svg>
