<?xml version="1.0"?>
<svg xmlns="http://www.w3.org/2000/svg" xmlns:xlink="http://www.w3.org/1999/xlink" xmlns:svgjs="http://svgjs.com/svgjs" version="1.1" width="512" height="512" x="0" y="0" viewBox="0 0 464.983 464.983" style="enable-background:new 0 0 512 512" xml:space="preserve" class=""><g>
<g xmlns="http://www.w3.org/2000/svg">
	<path d="M288.688,59.313c0.164,2.636,2.349,4.69,4.99,4.69h70.682c2.318,0,4.332-1.593,4.866-3.849   c0.378-1.598,0.57-3.201,0.57-4.764c0-11.388-9.264-20.652-20.652-20.652c-2.772,0-5.464,0.546-7.968,1.602   c-4.481-5.037-10.962-8.023-17.839-8.023c-8.779,0-16.879,4.935-21.001,12.542c-7.89,1.876-13.697,8.972-13.697,17.341   c0,0.323,0.018,0.64,0.04,0.958L288.688,59.313z M306.023,50.387c1.959-0.113,3.671-1.361,4.378-3.192   c2.048-5.31,7.247-8.877,12.935-8.877c4.979,0,9.603,2.698,12.066,7.041c0.709,1.251,1.924,2.136,3.332,2.429   c1.409,0.291,2.875-0.035,4.024-0.901c1.866-1.404,4.074-2.147,6.385-2.147c5.403,0,9.879,4.044,10.562,9.264h-59.844   C301.173,51.947,303.421,50.536,306.023,50.387z" fill="#ffffff" data-original="#000000" style=""/>
	<path d="M56.19,125.309c0.164,2.636,2.349,4.69,4.99,4.69h54.172c2.318,0,4.333-1.594,4.866-3.85   c0.311-1.314,0.468-2.632,0.468-3.919c0-9.372-7.625-16.996-16.996-16.996c-2.002,0-3.953,0.346-5.792,1.017   c-3.623-3.741-8.659-5.939-13.986-5.939c-6.982,0-13.438,3.829-16.871,9.773c-6.305,1.737-10.891,7.514-10.891,14.298   c0,0.274,0.015,0.544,0.033,0.814L56.19,125.309z M70.708,119.562c1.959-0.112,3.672-1.361,4.378-3.192   c1.397-3.623,4.944-6.057,8.824-6.057c3.397,0,6.551,1.841,8.231,4.804c0.71,1.251,1.924,2.137,3.333,2.429   c1.409,0.292,2.875-0.036,4.024-0.901c1.226-0.923,2.676-1.411,4.191-1.411c3.078,0,5.698,1.998,6.631,4.764H68.957   C69.493,119.751,70.085,119.598,70.708,119.562z" fill="#ffffff" data-original="#000000" style=""/>
	<path d="M431.634,288.229c-14.278,0-21.642,28.307-21.642,40.385c0,11.101,5.432,17.469,16.141,19.012v17.271   c0,3.038,2.462,5.5,5.5,5.5s5.5-2.462,5.5-5.5v-17.271c10.709-1.542,16.142-7.91,16.142-19.012   C453.276,316.537,445.913,288.229,431.634,288.229z M431.634,337.006c-7.854,0-10.642-1.268-10.642-8.392   c0-12.304,7.152-28.711,10.6-29.388c3.531,0.676,10.683,17.083,10.683,29.388C442.276,335.738,439.487,337.006,431.634,337.006z" fill="#ffffff" data-original="#000000" style=""/>
	<path d="M247.325,153.666c3.038,0,5.5-2.462,5.5-5.5V137.5c0-3.038-2.462-5.5-5.5-5.5s-5.5,2.462-5.5,5.5v10.667   C241.825,151.204,244.288,153.666,247.325,153.666z" fill="#ffffff" data-original="#000000" style=""/>
	<path d="M198.267,186.666c-3.038,0-5.5,2.462-5.5,5.5v10.667c0,3.038,2.462,5.5,5.5,5.5s5.5-2.462,5.5-5.5v-10.667   C203.767,189.129,201.304,186.666,198.267,186.666z" fill="#ffffff" data-original="#000000" style=""/>
	<path d="M269.6,208.333c3.038,0,5.5-2.462,5.5-5.5v-10.667c0-3.038-2.462-5.5-5.5-5.5s-5.5,2.462-5.5,5.5v10.667   C264.1,205.871,266.563,208.333,269.6,208.333z" fill="#ffffff" data-original="#000000" style=""/>
	<path d="M450.465,263.998c-3.248-0.985-6.554-1.962-9.829-2.905c-8.372-2.411-17.217-1.791-25.166,1.705l-35.122-5.976   c0.182-1.048,0.203-2.143,0.05-3.255c-0.615-4.457-4.182-7.951-8.604-8.779c-5.773-1.082-11.581-2.09-17.404-3.039v-7.937   c7.735-1.388,11.663-6.277,11.663-14.613c0-8.318-5.124-30.204-16.662-30.204s-16.662,21.886-16.662,30.204   c0,8.335,3.927,13.224,11.662,14.612v6.373c-8.652-1.291-17.323-2.424-25.968-3.407v-89.14c2.779-0.276,4.95-2.62,4.95-5.472   v-16.117c0-3.038-2.462-5.5-5.5-5.5h-3.575l-8.422-28.891c-0.568-1.948-2.102-3.529-4.082-3.973   c-2.928-0.657-5.724,1.083-6.523,3.822l-8.466,29.042h-3.575c-3.038,0-5.5,2.462-5.5,5.5v16.117c0,2.852,2.171,5.196,4.95,5.472   v19.354h-15.246v-47.166c0-0.628-0.11-1.229-0.304-1.792l-14.596-43.246c-0.755-2.236-2.852-3.741-5.211-3.741   c-1.197,0-2.324,0.39-3.245,1.064l-14.333-42.466V5.736c0-2.873-2.1-5.438-4.96-5.71c-3.28-0.313-6.04,2.258-6.04,5.474v24.146   l-18.015,53.374h0c-0.189,0.555-0.296,1.148-0.296,1.768v82.206h-15.246v-19.354c2.779-0.276,4.95-2.62,4.95-5.472v-16.117   c0-3.038-2.462-5.5-5.5-5.5h-3.578l-8.423-28.892c-0.568-1.949-2.103-3.529-4.084-3.972c-2.928-0.655-5.723,1.085-6.521,3.823   l-8.466,29.042h-3.57c-3.038,0-5.5,2.462-5.5,5.5v16.117c0,2.852,2.171,5.196,4.95,5.472v89.14   c-8.645,0.982-17.315,2.116-25.968,3.407v-6.373c7.735-1.388,11.662-6.277,11.662-14.613c0-8.318-5.124-30.204-16.662-30.204   s-16.662,21.886-16.662,30.204c0,8.335,3.928,13.225,11.662,14.613v7.937c-5.814,0.948-11.613,1.954-17.378,3.034   c-4.056,0.76-7.463,3.736-8.434,7.747c-0.323,1.336-0.368,2.655-0.197,3.916l-35.485,6.146c-7.72-3.355-16.414-3.904-24.761-1.5   c-3.286,0.946-6.589,1.922-9.821,2.902c-2.747,0.833-4.583,3.592-4.013,6.405c0.654,3.228,3.917,5.121,6.992,4.186   c3.251-0.987,6.577-1.97,9.886-2.923c6.462-1.86,13.188-1.23,18.938,1.773c10.148,5.3,24.002,10.042,41.232,14.125   c-6.885,16.118-10.674,35.664-10.674,47.444c0,28.119,19.759,32.263,31.932,32.875v10.375c-32.06-0.434-64.173,1.04-96.146,4.481   c-2.859,0.308-5.187,2.679-5.148,5.554c0.045,3.291,2.904,5.748,6.09,5.408c31.659-3.416,63.458-4.878,95.203-4.442l0,17.292   c0,2.873,2.1,5.438,4.96,5.71c3.28,0.313,6.04-2.258,6.04-5.474v-17.302c30.445,0.845,60.816,3.462,90.947,7.844   c-27.12,6.977-66.902,21.06-93.524,47.527c-2.258,2.245-2.424,6.001-0.088,8.165c1.053,0.976,2.395,1.464,3.737,1.464   c1.408,0,2.815-0.537,3.889-1.611c37.935-37.935,107.958-49.327,116.237-50.557c13.17,2.454,26.135,5.251,38.903,8.354   c-13.529,8.732-36.761,26.847-37.034,48.431c-0.037,2.96,2.098,5.632,5.049,5.865c3.24,0.257,5.948-2.296,5.948-5.482   c0-19.354,29.255-38.767,40.528-44.614c0.21-0.109,0.447-0.218,0.695-0.326c36.497,9.73,71.213,22.126,103.77,37.13   c0.746,0.344,1.528,0.506,2.299,0.506c2.25,0,4.396-1.388,5.204-3.709c0.945-2.712-0.509-5.691-3.12-6.889   c-1.633-0.749-3.286-1.474-4.929-2.212c24.726-25.951,34.055-46.608,28.488-63.008c-9.271-27.313-57.438-35.607-110.245-42.328   c-33.187-4.224-46.244-9.539-51.34-12.807c-1.715-1.1-2.563-3.051-2.526-5.088c0.004-0.202-0.004-0.406-0.023-0.609l-1.364-14.438   c67.978-2.387,125.367-12.593,154.164-27.498c5.975-3.093,12.804-3.777,19.23-1.928c3.298,0.95,6.627,1.934,9.893,2.926   c3.076,0.933,6.338-0.959,6.992-4.186C455.048,267.59,453.212,264.831,450.465,263.998z M342.727,219.2   c0-7.66,4.159-18.122,6.662-20.042c2.503,1.92,6.662,12.382,6.662,20.042c0,3.731-0.546,5.037-6.662,5.037   S342.727,222.931,342.727,219.2z M300.55,112.699l2.288,7.851h-4.577L300.55,112.699z M288.729,131.549h23.642v5.117h-23.642   V131.549z M307.421,147.666v108.326h-13.742v-83.5v-24.826H307.421z M312.921,266.993c3.038,0,5.5-2.462,5.5-5.5v-13.649   c16.547,1.907,33.187,4.397,49.578,7.427c-19.343,8.799-59.51,15.222-106.52,17.031l-0.502-5.31H312.921z M247.322,93.747   l6.945,20.58h-13.891L247.322,93.747z M256.434,125.327v41.666h-18.216v-41.666H256.434z M224.244,47.747l10.645,31.54h-21.29   L224.244,47.747z M211.434,90.287h25.447l-9.376,27.781l0.005,0.002c-0.186,0.552-0.292,1.142-0.292,1.758v47.166h-15.784V90.287z    M185.188,177.993h97.491v78h-22.246v-31.496c0-14.612-11.888-26.5-26.5-26.5c-14.612,0-26.5,11.888-26.5,26.5v31.496h-22.245   V177.993z M249.928,266.993l4.114,43.552h-40.218l4.114-43.552H249.928z M218.433,255.993v-31.496c0-8.547,6.953-15.5,15.5-15.5   c8.547,0,15.5,6.953,15.5,15.5v31.496H218.433z M138.581,276.885c19.093,3.195,41.862,5.408,66.77,6.384l-0.646,6.839   c-21.607-0.744-42.316-2.304-61.677-4.647C141.657,282.433,140.174,279.547,138.581,276.885z M167.313,112.698l2.289,7.851h-4.577   L167.313,112.698z M155.496,131.549h23.642v5.117h-23.642V131.549z M174.188,147.666v24.826v83.5h-13.742V147.666H174.188z    M111.816,219.2c0-7.66,4.159-18.122,6.662-20.042c2.503,1.92,6.662,12.382,6.662,20.042c0,3.731-0.546,5.037-6.662,5.037   S111.816,222.931,111.816,219.2z M149.446,247.843v13.649c0,3.038,2.462,5.5,5.5,5.5h51.943l-0.502,5.31   c-30.901-1.189-58.833-4.374-79.849-8.915c-2.921-1.852-6.04-2.895-9.343-2.895c-0.668,0-1.328,0.048-1.981,0.131   c-5.992-1.658-11.162-3.449-15.347-5.353C116.258,252.241,132.898,249.751,149.446,247.843z M70.682,270.518l26.219-4.542   c1.682,0.719,3.493,1.418,5.401,2.102c-2.456,2.618-4.732,5.802-6.821,9.366C86.255,275.33,77.921,272.999,70.682,270.518z    M90.763,335.006c0-22.622,12.974-58.639,24.208-63.063c2.346,0.614,4.791,1.208,7.335,1.781   c10.455,8.656,21.323,40.578,21.323,61.282c0,16.23-6.917,21.983-26.433,21.983C97.68,356.989,90.763,351.236,90.763,335.006z    M122.695,367.88c12.173-0.612,31.934-4.755,31.934-32.875c0-9.536-2.484-24.16-7.081-37.937   c17.773,1.982,36.596,3.322,56.122,4.01l-1.174,12.425c-3.56,3.669-11.158,13.03-7.89,23.373   c3.922,12.415,21.297,19.966,53.117,23.085c32.865,3.222,57.64,6.864,75.741,11.133c31.054,7.324,34.685,14.76,35.059,16.864   c0.375,2.114-0.711,10.003-29.361,24.129c-34.477-10.775-70.684-19.083-108.314-24.833c-32.496-4.965-65.285-7.876-98.153-8.776   V367.88z M318.062,344.945c47.253,6.014,93.993,13.667,101.217,34.952c4.265,12.567-5.432,30.983-28.82,54.762   c-15.161-6.472-30.741-12.415-46.719-17.811c19.205-10.851,27.393-20.776,25.613-30.811c-1.948-10.981-15.727-19.131-43.364-25.649   c-18.584-4.383-43.834-8.103-77.193-11.374c-36.115-3.541-42.588-11.971-43.695-15.431c-1.338-4.184,2.379-9.333,4.911-12.038   h44.584c-0.026,0.274,0.017,0.577,0.159,0.919C258.994,332.709,279.701,340.063,318.062,344.945z M263.162,290.121l-0.647-6.851   c46.952-1.84,86.328-8.072,107.744-16.995l26.124,4.525C365.861,281.113,317.413,288.248,263.162,290.121z" fill="#ffffff" data-original="#000000" style=""/>
</g>
<g xmlns="http://www.w3.org/2000/svg">
</g>
<g xmlns="http://www.w3.org/2000/svg">
</g>
<g xmlns="http://www.w3.org/2000/svg">
</g>
<g xmlns="http://www.w3.org/2000/svg">
</g>
<g xmlns="http://www.w3.org/2000/svg">
</g>
<g xmlns="http://www.w3.org/2000/svg">
</g>
<g xmlns="http://www.w3.org/2000/svg">
</g>
<g xmlns="http://www.w3.org/2000/svg">
</g>
<g xmlns="http://www.w3.org/2000/svg">
</g>
<g xmlns="http://www.w3.org/2000/svg">
</g>
<g xmlns="http://www.w3.org/2000/svg">
</g>
<g xmlns="http://www.w3.org/2000/svg">
</g>
<g xmlns="http://www.w3.org/2000/svg">
</g>
<g xmlns="http://www.w3.org/2000/svg">
</g>
<g xmlns="http://www.w3.org/2000/svg">
</g>
</g></svg>
