<?xml version="1.0"?>
<svg xmlns="http://www.w3.org/2000/svg" xmlns:xlink="http://www.w3.org/1999/xlink" xmlns:svgjs="http://svgjs.com/svgjs" version="1.1" width="512" height="512" x="0" y="0" viewBox="0 0 512 512" style="enable-background:new 0 0 512 512" xml:space="preserve" class=""><g><path xmlns="http://www.w3.org/2000/svg" d="m496.9375 375.835938h-29.824219v-273.941407h29.824219c5.523438 0 10-4.480469 10-10 0-5.523437-4.476562-10-10-10h-5.964844v-30.429687c0-5.523438-4.476562-10-10-10h-11.648437l-36.113281-38.324219c-1.890626-2.003906-4.523438-3.140625-7.277344-3.140625s-5.386719 1.136719-7.277344 3.140625l-36.117188 38.324219h-11.644531c-5.523437 0-10 4.476562-10 10v30.429687h-5.964843c-5.523438 0-10 4.476563-10 10 0 5.519531 4.476562 10 10 10h29.824218v297.519531h-22.734375v-19.492187c0-1.675781-.417969-3.320313-1.21875-4.789063-.128906-.234374-1.328125-2.40625-3.617187-5.804687-.160156-.257813-.328125-.507813-.511719-.75-4.164063-6.082031-11.496094-15.574219-22.152344-25.050781-23.136719-20.574219-51.164062-31.449219-81.050781-31.449219-29.890625 0-57.917969 10.875-81.050781 31.449219-10.855469 9.652344-18.269531 19.332031-22.390625 25.394531-.019532.027344-.039063.058594-.058594.085937-2.433594 3.585938-3.699219 5.882813-3.832031 6.125-.800781 1.46875-1.222657 3.113282-1.222657 4.789063v19.492187h-85.089843v-13.574218c0-5.523438-4.476563-10-10-10h-39.824219c-5.523438 0-10 4.476562-10 10v116.160156c0 5.523438 4.476562 10 10 10h189.664062c5.523438 0 10-4.476562 10-10v-78.246094h87.609376v78.246094c0 5.523438 4.476562 10 10 10h189.664062c5.523438 0 10-4.476562 10-10v-116.164062c0-5.523438-4.476562-10-10-10zm-60.070312-212.453126h-32.113282v-41.96875zm-32.113282 38.3125 31.4375 38.957032h-31.4375zm42.359375 58.957032v41.96875l-32.117187-41.96875zm0-38.3125-31.441406-38.957032h31.441406zm-42.359375 57.835937 32.113282 41.96875h-32.113282zm42.359375 61.96875v38.957031l-31.441406-38.957031zm0-198.285156-32.117187-41.964844h32.117187zm-21.179687-119.277344 15.910156 16.882813h-31.820312zm-45.039063 36.882813h90.078125v20.429687h-90.078125zm23.859375 298.992187 31.4375 38.957031h-31.4375zm-384.753906 35.378907h19.828125v96.164062h-19.828125zm39.824219 23.578124h85.089843v72.585938h-85.089843zm247.449219-15.660156h-107.613282c-5.519531 0-10 4.476563-10 10v78.246094h-24.746094v-107.449219h41.816407c5.523437 0 10-4.476562 10-10 0-5.519531-4.476563-10-10-10h-27.359375c2.082031-2.148437 4.359375-4.347656 6.859375-6.542969 19.582031-17.207031 42.207031-25.929687 67.238281-25.929687s47.652344 8.722656 67.234375 25.929687c2.5 2.195313 4.777344 4.394532 6.859375 6.542969h-27.339844c-5.523437 0-10 4.480469-10 10 0 5.523438 4.476563 10 10 10h41.796875v107.449219h-24.746093v-78.246094c0-5.523437-4.476563-10-10-10zm54.746093 15.660156h85.089844v72.585938h-85.089844zm124.917969 72.585938h-19.828125v-82.429688c0-.035156 0-.074218 0-.109374 0-.015626.003906-.03125.003906-.046876v-13.578124h19.820313v96.164062zm0 0" fill="#ffffff" data-original="#000000" style="" class=""/><path xmlns="http://www.w3.org/2000/svg" d="m262.699219 370.730469c-1.585938-3.863281-5.5625-6.378907-9.730469-6.15625-4.0625.21875-7.648438 2.910156-8.960938 6.765625-1.34375 3.9375-.03125 8.457031 3.246094 11.039062 3.277344 2.585938 7.9375 2.882813 11.492188.660156 4.09375-2.5625 5.8125-7.839843 3.953125-12.308593zm0 0" fill="#ffffff" data-original="#000000" style="" class=""/><path xmlns="http://www.w3.org/2000/svg" d="m19.386719 168.304688c-.023438 3 .164062 5.976562.511719 8.917968v171.757813c0 5.523437 4.480468 10 10 10 5.523437 0 10-4.476563 10-10v-131.289063c7.742187 7.222656 17.171874 12.304688 27.898437 15.097656v147.429688c0 5.519531 4.476563 10 10 10s10-4.480469 10-10v-144.90625c.175781 0 .34375.011719.519531.011719 4.09375 0 8.171875.003906 12.238282.011719 4.070312.007812 13.109374.011718 13.589843.011718v144.871094c0 5.519531 4.476563 10 10 10 5.523438 0 10-4.480469 10-10v-144.96875c8.9375-.09375 17.730469-.269531 26.347657-.601562v79.167968c0 5.523438 4.476562 10 10 10 5.523437 0 10-4.476562 10-10v-80.265625c9.046874-.667969 17.84375-1.589843 26.347656-2.839843v63.742187c0 5.523437 4.476562 10 10 10 5.523437 0 10-4.476563 10-10v-67.476563c3.460937-.800781 6.878906-1.652343 10.207031-2.609374 5.550781-1.597657 10.929687-3.296876 16.140625-5.070313v71.195313c0 5.523437 4.476562 10 10 10s10-4.476563 10-10v-78.6875c9.496094-3.894532 18.289062-7.976563 26.34375-12.085938v101.699219c0 5.523437 4.480469 10 10 10 5.523438 0 10-4.476563 10-10v-112.746094c10.28125-6.144531 18.777344-11.976563 25.398438-16.875v158.644531c0 5.519532 4.476562 10 10 10 5.519531 0 10-4.480468 10-10v-179.691406c0-3.890625-2.378907-7.570312-5.945313-9.136719-3.660156-1.609375-8.058594-.871093-10.960937 1.902344-.335938.320313-27.679688 26.039063-76.230469 47.144531l-24.308594-19.308594c-2.429687-2.160156-21-18.371093-48.574219-34.730468-39.347656-23.347656-76.558594-35.183594-110.59375-35.183594-4.015625 0-7.855468.28125-11.53125.792969-.011718 0-.023437.003906-.03125.003906-33.839844 4.742187-53.191406 30.207031-56.757812 57.414063-.019532.15625-.042969.308593-.054688.464843-.335937 2.71875-.53125 5.457031-.554687 8.191407zm48.414062-42.933594v66.191406c0 5.523438 4.476563 10 10 10 5.519531 0 10-4.476562 10-10v-70.117188c.171875 0 .34375-.007812.515625-.007812 8.65625 0 17.304688.917969 25.828125 2.519531v70.027344c0 5.519531 4.476563 10 10 10 5.523438 0 10-4.480469 10-10v-65.011719c9.105469 2.832032 17.941407 6.296875 26.347657 10.117188v53.460937c0 5.523438 4.476562 10 10 10 5.523437 0 10-4.476562 10-10v-43.375c9.851562 5.453125 18.75 11.089844 26.347656 16.277344v20.664063c0 5.519531 4.476562 10 10 10 5.523437 0 10-4.480469 10-10v-5.929688c4.714844 3.761719 23.457031 18.9375 23.457031 18.9375-6.011719 2.128906-12.277344 4.148438-18.78125 6.023438-35.867187 10.324218-82.039063 10.253906-130.933594 10.1875-4.074219-.007813-8.164062-.015626-12.265625-.015626-14.839844 0-27.269531-4.621093-35.953125-13.371093-6.683593-6.738281-11.042969-15.914063-12.464843-25.910157v-14.757812c2.492187-18.566406 14-30.300781 27.902343-35.910156zm0 0" fill="#ffffff" data-original="#000000" style="" class=""/></g></svg>
