<?xml version="1.0"?>
<svg xmlns="http://www.w3.org/2000/svg" xmlns:xlink="http://www.w3.org/1999/xlink" xmlns:svgjs="http://svgjs.com/svgjs" version="1.1" width="512" height="512" x="0" y="0" viewBox="0 0 512 512" style="enable-background:new 0 0 512 512" xml:space="preserve" class=""><g><g xmlns="http://www.w3.org/2000/svg" id="out_lline" data-name="out lline"><path d="M496,496V480H472V462.987A32.057,32.057,0,0,0,496,432v-8a32,32,0,0,0-64,0v8a32.057,32.057,0,0,0,24,30.987V480H434.806l-17.538-14.031A82.3,82.3,0,0,0,366.042,448H324.353L321.1,437.158A198.377,198.377,0,0,0,368.318,413.5,31.986,31.986,0,0,0,424,392V376a31.778,31.778,0,0,0-3.415-14.356,200.441,200.441,0,0,0,31.453-73.908A32.041,32.041,0,0,0,480,256V240a32.041,32.041,0,0,0-27.962-31.736,200.441,200.441,0,0,0-31.453-73.908A31.778,31.778,0,0,0,424,120V104a31.986,31.986,0,0,0-55.7-21.482A199.544,199.544,0,0,0,288,50.563V48a32,32,0,0,0-64,0v2.563a199.544,199.544,0,0,0-80.3,31.955A31.986,31.986,0,0,0,88,104v16a31.778,31.778,0,0,0,3.415,14.356,200.441,200.441,0,0,0-31.453,73.908A32.041,32.041,0,0,0,32,240v16a32.041,32.041,0,0,0,27.962,31.736,200.441,200.441,0,0,0,31.453,73.908A31.778,31.778,0,0,0,88,376v16a31.986,31.986,0,0,0,55.682,21.5A198.377,198.377,0,0,0,190.9,437.158L187.647,448H106.833a35.225,35.225,0,0,1-31.678-19.578A51.135,51.135,0,0,0,29.167,400H16v96Zm-48-64v-8a16,16,0,0,1,32,0v8a16,16,0,0,1-8,13.835V428H456v17.835A16,16,0,0,1,448,432Zm-56,37.349a65.893,65.893,0,0,1,15.272,9.114L409.194,480H392ZM360,464h6.042a65.55,65.55,0,0,1,9.958.777V480H360Zm-16,0v16H333.952l-4.8-16ZM216,480H194.751l4.8-16H216Zm0-32H204.351l1.879-6.263q4.847,1.239,9.77,2.234Zm64,32H264V464H248v16H232V448h48Zm-39.355-48L256,412.807,271.355,432Zm21.6-37a8,8,0,0,0-12.494,0l-27.161,33.951q-5.925-1.088-11.759-2.56l18.42-61.4a120.421,120.421,0,0,0,53.494,0l18.42,61.4q-5.826,1.468-11.759,2.56ZM274.923,283.23c1.07-.577,2.109-1.205,3.119-1.874l45.586,45.586a104.148,104.148,0,0,1-30.169,18.076Zm3.213,66.391a104.174,104.174,0,0,1-44.272,0L252.4,287.83c1.186.107,2.385.17,3.6.17s2.413-.063,3.6-.17Zm11.22-79.579A39.764,39.764,0,0,0,295.2,256h64.5a103.555,103.555,0,0,1-24.753,59.628ZM295.2,240a39.764,39.764,0,0,0-5.839-14.042l45.586-45.586A103.555,103.555,0,0,1,359.7,240Zm-17.153-25.356A39.764,39.764,0,0,0,264,208.805v-64.5a103.555,103.555,0,0,1,59.628,24.753ZM280,248a24,24,0,1,1-24-24A24.028,24.028,0,0,1,280,248Zm-32-39.195a39.764,39.764,0,0,0-14.042,5.839l-45.586-45.586A103.555,103.555,0,0,1,248,144.305Zm-25.356,17.153A39.764,39.764,0,0,0,216.805,240h-64.5a103.555,103.555,0,0,1,24.753-59.628ZM216.805,256a39.764,39.764,0,0,0,5.839,14.042l-45.586,45.586A103.555,103.555,0,0,1,152.305,256Zm17.153,25.356c1.01.669,2.049,1.3,3.119,1.874l-18.536,61.788a104.148,104.148,0,0,1-30.169-18.076ZM305.77,441.737,307.649,448H296v-4.029Q300.917,442.972,305.77,441.737ZM296,480V464h16.449l4.8,16Zm64.831-80.781A182.49,182.49,0,0,1,316.5,421.826l-18.432-61.443a120.156,120.156,0,0,0,36.9-22.1L361.881,365.2A31.851,31.851,0,0,0,360,376v16A31.993,31.993,0,0,0,360.831,399.219ZM392,408a16.019,16.019,0,0,1-16-16h32A16.019,16.019,0,0,1,392,408Zm-16-32a16,16,0,0,1,32,0Zm33.6-26.7a31.9,31.9,0,0,0-38.5,2.5l-24.828-24.829A119.5,119.5,0,0,0,375.727,256H416a32.046,32.046,0,0,0,20.115,29.7A184.4,184.4,0,0,1,409.6,349.3ZM448,272a16.019,16.019,0,0,1-16-16h32A16.019,16.019,0,0,1,448,272Zm0-48a16.019,16.019,0,0,1,16,16H432A16.019,16.019,0,0,1,448,224ZM392,88a16.019,16.019,0,0,1,16,16H376A16.019,16.019,0,0,1,392,88Zm16,32a16,16,0,0,1-32,0Zm-36.893,24.207a31.9,31.9,0,0,0,38.5,2.5A184.4,184.4,0,0,1,436.115,210.3,32.046,32.046,0,0,0,416,240H375.727a119.5,119.5,0,0,0-29.448-70.964ZM287.872,66.779a183.554,183.554,0,0,1,72.961,30A31.926,31.926,0,0,0,360,104v16a31.851,31.851,0,0,0,1.881,10.8l-26.917,26.917A119.5,119.5,0,0,0,264,128.273V94.987A32.072,32.072,0,0,0,287.872,66.779ZM256,32a16.019,16.019,0,0,1,16,16H240A16.019,16.019,0,0,1,256,32Zm16,32a16,16,0,0,1-32,0ZM151.167,96.775a183.554,183.554,0,0,1,72.961-30A32.072,32.072,0,0,0,248,94.987v33.286a119.5,119.5,0,0,0-70.964,29.448L150.119,130.8A31.851,31.851,0,0,0,152,120V104A31.926,31.926,0,0,0,151.167,96.775ZM120,88a16.019,16.019,0,0,1,16,16H104A16.019,16.019,0,0,1,120,88Zm16,32a16,16,0,0,1-32,0Zm-33.6,26.7a31.9,31.9,0,0,0,38.5-2.5l24.828,24.829A119.5,119.5,0,0,0,136.273,240H96a32.046,32.046,0,0,0-20.115-29.7A184.4,184.4,0,0,1,102.4,146.7ZM64,224a16.019,16.019,0,0,1,16,16H48A16.019,16.019,0,0,1,64,224Zm0,48a16.019,16.019,0,0,1-16-16H80A16.019,16.019,0,0,1,64,272Zm56,136a16.019,16.019,0,0,1-16-16h32A16.019,16.019,0,0,1,120,408Zm-16-32a16,16,0,0,1,32,0Zm36.893-24.207a31.9,31.9,0,0,0-38.5-2.5A184.4,184.4,0,0,1,75.885,285.7,32.046,32.046,0,0,0,96,256h40.273a119.5,119.5,0,0,0,29.448,70.964Zm10.276,47.426A31.993,31.993,0,0,0,152,392V376a31.851,31.851,0,0,0-1.881-10.8l26.917-26.917a120.156,120.156,0,0,0,36.9,22.1L195.5,421.826A182.49,182.49,0,0,1,151.169,399.219ZM160,464h22.847l-4.8,16H160Zm-32,0h16v16H128Zm-32-1.135A52.011,52.011,0,0,0,106.833,464H112v16H96ZM64,441.028A51.129,51.129,0,0,0,80,456.5V480H64ZM32,416.121a35.234,35.234,0,0,1,16,5.27V480H32Z" fill="#ffffff" data-original="#000000" style="" class=""/></g></g></svg>
