<?xml version="1.0"?>
<svg xmlns="http://www.w3.org/2000/svg" xmlns:xlink="http://www.w3.org/1999/xlink" xmlns:svgjs="http://svgjs.com/svgjs" version="1.1" width="512" height="512" x="0" y="0" viewBox="0 0 512 512" style="enable-background:new 0 0 512 512" xml:space="preserve" class=""><g><g xmlns="http://www.w3.org/2000/svg" id="XMLID_1423_"><g id="XMLID_522_"><path id="XMLID_525_" d="m511.21 330.104-44-104c-1.565-3.7-5.192-6.104-9.21-6.104s-7.645 2.404-9.21 6.104l-43.984 103.962c-.392.915-.653 1.899-.755 2.931-.034.332-.051.667-.051 1.003v7.429h-25.143v-22c0-5.523-4.478-10-10-10h-22.857v-123.429c0-1.783-.477-3.533-1.381-5.07l-71.135-120.93h53.516c5.522 0 10-4.477 10-10v-40c0-5.523-4.478-10-10-10h-71c-5.522 0-10 4.477-10 10v37.277l-78.619 133.653c-.904 1.537-1.381 3.288-1.381 5.07v123.429h-22.857c-5.522 0-10 4.477-10 10v22h-25.143v-7.429c0-.336-.017-.671-.051-1.004-.103-1.031-.363-2.016-.755-2.931l-43.984-103.961c-1.565-3.7-5.192-6.104-9.21-6.104s-7.645 2.404-9.21 6.104l-44 104c-.521 1.232-.79 2.558-.79 3.896v168c0 5.523 4.478 10 10 10h201.127c5.522 0 10-4.477 10-10s-4.478-10-10-10h-103.127v-130.571h35.143c5.522 0 10-4.477 10-10v-22h25.144v22c0 5.523 4.478 10 10 10h45.143c5.522 0 10-4.477 10-10v-22h25.143v22c0 5.523 4.478 10 10 10h45.143c5.522 0 10-4.477 10-10v-22h25.144v22c0 5.523 4.478 10 10 10h35.14v130.571h-102.873c-5.522 0-10 4.477-10 10s4.478 10 10 10h200.873c5.522 0 10-4.477 10-10v-168c0-1.338-.269-2.664-.79-3.896zm-457.21 41.896c-5.522 0-10 4.477-10 10v26h-24v-64h68v64h-24v-26c0-5.523-4.478-10-10-10zm0-116.335 28.911 68.335h-57.822zm-34 172.335h68v64h-24v-26c0-5.523-4.478-10-10-10s-10 4.477-10 10v26h-24zm236-358.277 62.516 106.277h-125.032zm10-49.723h51v20h-51zm47.714 299.429v22h-25.143v-22c0-5.523-4.478-10-10-10h-45.143c-5.522 0-10 4.477-10 10v22h-25.143v-22c0-5.523-4.478-10-10-10h-2.285v-113.429h140v113.429h-2.286c-5.523 0-10 4.477-10 10zm144.286 52.571c-5.522 0-10 4.477-10 10v26h-24v-64h68v64h-24v-26c0-5.523-4.478-10-10-10zm0-116.335 28.911 68.335h-57.822zm10 236.335v-26c0-5.523-4.478-10-10-10s-10 4.477-10 10v26h-24v-64h68v64z" fill="#ef5fa2" data-original="#000000" style="" class=""/><path id="XMLID_1015_" d="m256 220c-17.645 0-32 14.355-32 32v22c0 5.523 4.478 10 10 10h44c5.522 0 10-4.477 10-10v-22c0-17.645-14.355-32-32-32zm12 44h-24v-12c0-6.617 5.383-12 12-12s12 5.383 12 12z" fill="#ef5fa2" data-original="#000000" style="" class=""/><path id="XMLID_1016_" d="m176 390h-32c-5.522 0-10 4.477-10 10s4.478 10 10 10h32c5.522 0 10-4.477 10-10s-4.478-10-10-10z" fill="#ef5fa2" data-original="#000000" style="" class=""/><path id="XMLID_1067_" d="m336 410h32c5.522 0 10-4.477 10-10s-4.478-10-10-10h-32c-5.522 0-10 4.477-10 10s4.478 10 10 10z" fill="#ef5fa2" data-original="#000000" style="" class=""/><path id="XMLID_1080_" d="m282 400c0-5.523-4.478-10-10-10h-32c-5.522 0-10 4.477-10 10s4.478 10 10 10h32c5.522 0 10-4.477 10-10z" fill="#ef5fa2" data-original="#000000" style="" class=""/><path id="XMLID_1102_" d="m226.667 438h-32c-5.522 0-10 4.477-10 10s4.478 10 10 10h32c5.522 0 10-4.477 10-10s-4.478-10-10-10z" fill="#ef5fa2" data-original="#000000" style="" class=""/><path id="XMLID_1120_" d="m327.333 448c0-5.523-4.478-10-10-10h-32c-5.522 0-10 4.477-10 10s4.478 10 10 10h32c5.522 0 10-4.477 10-10z" fill="#ef5fa2" data-original="#000000" style="" class=""/><path id="XMLID_1161_" d="m256.13 492c-2.64 0-5.21 1.07-7.07 2.93-1.87 1.86-2.93 4.44-2.93 7.07s1.06 5.21 2.93 7.07c1.86 1.86 4.431 2.93 7.07 2.93 2.63 0 5.21-1.07 7.07-2.93 1.859-1.86 2.93-4.44 2.93-7.07s-1.07-5.21-2.93-7.07-4.44-2.93-7.07-2.93z" fill="#ef5fa2" data-original="#000000" style="" class=""/></g></g></g></svg>
