<?xml version="1.0"?>
<svg xmlns="http://www.w3.org/2000/svg" xmlns:xlink="http://www.w3.org/1999/xlink" xmlns:svgjs="http://svgjs.com/svgjs" version="1.1" width="512" height="512" x="0" y="0" viewBox="0 0 512 512" style="enable-background:new 0 0 512 512" xml:space="preserve" class=""><g><g xmlns="http://www.w3.org/2000/svg" id="outline"><path d="M67.1,400.292l-5.449,16.773H44.008a12,12,0,0,0-7.054,21.708l14.269,10.368-5.451,16.774A11.995,11.995,0,0,0,64.238,479.33l14.27-10.366L92.775,479.33a12,12,0,0,0,18.467-13.416l-5.45-16.773,14.269-10.367a12,12,0,0,0-7.053-21.709H95.37l-5.45-16.774a12,12,0,0,0-22.825,0Zm13.956,24.48a11.969,11.969,0,0,0,11.413,8.293H100.7l-6.662,4.84a11.97,11.97,0,0,0-4.358,13.416l2.544,7.828-6.659-4.837a11.965,11.965,0,0,0-14.108,0l-6.66,4.837,2.544-7.829a11.969,11.969,0,0,0-4.359-13.415l-6.662-4.84h8.234a11.971,11.971,0,0,0,11.413-8.292l2.544-7.829Z" fill="#000000" data-original="#000000" style=""/><path d="M387.58,425.357a11.971,11.971,0,0,0,4.359,13.416l14.269,10.368-5.45,16.774a11.995,11.995,0,0,0,18.466,13.415l14.269-10.366,14.268,10.366a12,12,0,0,0,18.467-13.416l-5.451-16.773,14.269-10.367a12,12,0,0,0-7.054-21.709H450.354l-5.449-16.773h0a12,12,0,0,0-22.825,0l-5.45,16.774H398.992A11.968,11.968,0,0,0,387.58,425.357Zm31.956,7.708a11.967,11.967,0,0,0,11.412-8.291l2.544-7.83,2.545,7.832a11.97,11.97,0,0,0,11.412,8.289h8.234l-6.661,4.839a11.971,11.971,0,0,0-4.36,13.417l2.544,7.828-6.661-4.838a11.966,11.966,0,0,0-14.106,0l-6.66,4.837,2.544-7.829a11.968,11.968,0,0,0-4.359-13.415l-6.661-4.84Z" fill="#000000" data-original="#000000" style=""/><path d="M124.42,86.643a11.971,11.971,0,0,0-4.359-13.416L105.792,62.859l5.45-16.774A12,12,0,0,0,92.776,32.67L78.507,43.036,64.239,32.67A12,12,0,0,0,45.772,46.086l5.451,16.773L36.954,73.226a12,12,0,0,0,7.054,21.709H61.646L67.1,111.709a12,12,0,0,0,22.825,0l5.45-16.774h17.638A11.968,11.968,0,0,0,124.42,86.643ZM92.464,78.935a11.967,11.967,0,0,0-11.412,8.291l-2.544,7.83-2.545-7.832a11.97,11.97,0,0,0-11.412-8.289H56.317L62.978,74.1a11.971,11.971,0,0,0,4.36-13.417l-2.544-7.828,6.661,4.838a11.966,11.966,0,0,0,14.106,0l6.66-4.837L89.677,60.68A11.968,11.968,0,0,0,94.036,74.1l6.661,4.84Z" fill="#000000" data-original="#000000" style=""/><path d="M444.905,111.709h0l5.449-16.773h17.638a12,12,0,0,0,7.054-21.708L460.777,62.859l5.451-16.774A12,12,0,0,0,447.762,32.67l-14.27,10.366L419.225,32.67a12,12,0,0,0-18.467,13.416l5.45,16.773L391.939,73.226a12,12,0,0,0,7.053,21.709H416.63l5.45,16.774a12,12,0,0,0,22.825,0ZM430.949,87.228a11.969,11.969,0,0,0-11.413-8.293H411.3l6.662-4.84a11.97,11.97,0,0,0,4.358-13.416l-2.544-7.828,6.659,4.837a11.968,11.968,0,0,0,14.108,0l6.66-4.837-2.544,7.829A11.969,11.969,0,0,0,449.021,74.1l6.662,4.84h-8.234a11.971,11.971,0,0,0-11.413,8.292l-2.544,7.829Z" fill="#000000" data-original="#000000" style=""/><path d="M97.791,343.18a24.167,24.167,0,0,0,6.25.828,24.07,24.07,0,1,0-6.25-.828Zm-1.516-25.253a8,8,0,1,1,.8,6.07h0A7.946,7.946,0,0,1,96.275,317.927Z" fill="#000000" data-original="#000000" style=""/><path d="M180,83.213a24,24,0,0,0,5.788,43.967,24.167,24.167,0,0,0,6.25.828A24,24,0,1,0,180,83.213Zm16,27.713A8,8,0,0,1,185.075,108h0A8,8,0,1,1,196,110.926Z" fill="#000000" data-original="#000000" style=""/><path d="M80.083,187.56a24,24,0,0,0,16.971,29.393,24.129,24.129,0,0,0,6.25.828A24,24,0,1,0,80.083,187.56Zm15.455,4.14a8,8,0,1,1,.8,6.071A8.014,8.014,0,0,1,95.538,191.7Z" fill="#000000" data-original="#000000" style=""/><path d="M187.56,431.917a24.131,24.131,0,0,0,6.251.828,24.035,24.035,0,1,0-6.251-.828Zm-1.516-25.253a8,8,0,1,1,5.656,9.8A8.014,8.014,0,0,1,186.044,406.664Z" fill="#000000" data-original="#000000" style=""/><path d="M320.038,432A24,24,0,1,0,299.213,420,23.846,23.846,0,0,0,320.038,432ZM316,401.074A7.954,7.954,0,0,1,319.984,400a8.069,8.069,0,0,1,2.084.276A7.944,7.944,0,0,1,326.925,404h0A8,8,0,1,1,316,401.074Z" fill="#000000" data-original="#000000" style=""/><path d="M431.917,324.44a23.99,23.99,0,1,0-23.188,17.791A23.844,23.844,0,0,0,431.917,324.44Zm-15.455-4.14a8,8,0,1,1-.8-6.071A8,8,0,0,1,416.462,320.3Z" fill="#000000" data-original="#000000" style=""/><path d="M414.214,168.82A24,24,0,1,0,428.787,180,23.847,23.847,0,0,0,414.214,168.82ZM412,198.931a8,8,0,1,1-8-13.856h0A7.945,7.945,0,0,1,407.99,184a8.068,8.068,0,0,1,2.083.276A8,8,0,0,1,412,198.931Z" fill="#000000" data-original="#000000" style=""/><path d="M306.229,82.48a24,24,0,0,0,5.789,43.967,24.129,24.129,0,0,0,6.25.828A24,24,0,1,0,306.229,82.48Zm19.727,22.856a8,8,0,1,1-7.74-10.074,8.011,8.011,0,0,1,7.74,10.074Z" fill="#000000" data-original="#000000" style=""/><path d="M460,235.215A23.807,23.807,0,0,0,449.394,248H325.2a14.709,14.709,0,0,0,2.382-12.24l42.7-17.221A8,8,0,1,0,364.3,203.7l-50.917,20.534c-.137,0-.271-.015-.408-.015H299.1L397.417,125.9A8,8,0,0,0,386.1,114.583L279.493,221.192,310.322,148.7a8,8,0,1,0-14.724-6.262l-23.7,55.735-1.616-4.972A14.9,14.9,0,0,0,264,185.079V40a8,8,0,0,0-16,0V185.079a14.9,14.9,0,0,0-6.279,8.123l-1.08,3.323-22.1-54.807A8,8,0,1,0,203.7,147.7l29.243,72.513-.347,1.067-106.7-106.7A8,8,0,0,0,114.583,125.9l98.322,98.323H201.711L148.7,201.678a8,8,0,1,0-6.262,14.724l42.373,18.019c-.02.059-.045.114-.064.174A14.77,14.77,0,0,0,186.8,248H62.623a24.046,24.046,0,1,0-.013,16H207.571l2.572,1.869L141.718,293.46A8,8,0,1,0,147.7,308.3l65.157-26.274-2.791,8.591L114.583,386.1A8,8,0,0,0,125.9,397.417l82.575-82.575a15.4,15.4,0,0,0,3.493,3.514,15.044,15.044,0,0,0,7.6,2.867L201.678,363.3a8,8,0,1,0,14.724,6.262l25.6-60.2L248,305V472a8,8,0,0,0,16,0V305l4.431,3.219,25.03,62.065A8,8,0,1,0,308.3,364.3l-17.353-43.03a14.937,14.937,0,0,0,9.088-2.912,15.4,15.4,0,0,0,3.493-3.514L386.1,397.417A8,8,0,0,0,397.417,386.1l-95.485-95.486-2.41-7.416L363.3,310.322a8,8,0,0,0,6.262-14.724L301.043,266.46l3.386-2.46H449.375a24.22,24.22,0,0,0,1.844,4h0A24,24,0,1,0,460,235.215ZM44,262.928A8,8,0,1,1,46.928,252,8.009,8.009,0,0,1,44,262.928Zm241.427-4.9a14.974,14.974,0,0,0-5.453,16.785l9.362,28.816-24.51-17.808a14.971,14.971,0,0,0-17.651,0l-24.511,17.808,9.362-28.814a14.977,14.977,0,0,0-5.454-16.788l-24.51-17.807h30.3a14.979,14.979,0,0,0,14.28-10.375L256,201.031l7.216,22.208.011.035,2.135,6.573a14.98,14.98,0,0,0,14.28,10.373h30.3ZM476,262.928A8.009,8.009,0,0,1,465.075,260h0A8,8,0,1,1,476,262.928Z" fill="#000000" data-original="#000000" style=""/></g></g></svg>
