<?xml version="1.0"?>
<svg xmlns="http://www.w3.org/2000/svg" xmlns:xlink="http://www.w3.org/1999/xlink" xmlns:svgjs="http://svgjs.com/svgjs" version="1.1" width="512" height="512" x="0" y="0" viewBox="0 0 512 512" style="enable-background:new 0 0 512 512" xml:space="preserve" class=""><g><g xmlns="http://www.w3.org/2000/svg"><g><path d="m117.781 245.947c-64.943 0-117.779 52.836-117.779 117.78v73.843c0 41.04 33.39 74.43 74.431 74.43h86.698c41.041 0 74.431-33.39 74.431-74.431v-73.843c0-64.943-52.836-117.779-117.781-117.779zm-97.779 191.622v-25.488c4.841 3.691 10.772 5.786 16.932 5.898v14.706c0 11.103 5.39 27.322 31.063 41.533 7.705 4.265 15.366 7.312 20.749 9.204v8.578h-14.313c-30.013 0-54.431-24.417-54.431-54.431zm24.018-39.962c.055-.017.116-.036.184-.054-.062.017-.124.035-.184.054zm64.726 94.393v-15.881c0-4.515-3.036-8.473-7.395-9.654-11.523-3.125-44.418-16.037-44.418-33.779v-25.513c0-3.168-1.502-6.15-4.048-8.036-2.463-1.825-5.618-2.416-8.57-1.616-1.2.214-5.145.463-6.858.463-2.526 0-4.848-1.038-6.537-2.922-1.688-1.883-2.463-4.332-2.183-6.894.443-4.048 3.847-7.366 7.917-7.716 1.157-.1 2.291.015 3.365.343 3.033.925 6.32.355 8.866-1.53 2.357-1.746 3.818-4.43 4.023-7.333 34.535-1.02 67.879-10.851 97.374-28.673l2.388 4.566c6.224 11.9 17.22 20.206 29.959 23.083v.32c0 3.168 1.502 6.149 4.047 8.035 2.547 1.885 5.836 2.456 8.866 1.531 1.076-.328 2.209-.445 3.366-.343 4.068.35 7.472 3.666 7.917 7.713.281 2.563-.493 5.012-2.182 6.896-1.689 1.885-4.012 2.923-6.538 2.923-1.714 0-5.658-.249-6.858-.463-2.949-.799-6.106-.208-8.57 1.616-2.546 1.886-4.048 4.867-4.048 8.036v25.513c0 17.742-32.895 30.655-44.407 33.776-4.369 1.174-7.405 5.134-7.405 9.657v15.882zm82.798-94.393c-.061-.019-.121-.037-.183-.054.067.018.128.037.183.054zm-30.413 94.393h-14.313v-8.578c5.383-1.892 13.044-4.939 20.749-9.204 25.674-14.211 31.063-30.43 31.063-41.533v-14.706c6.16-.112 12.091-2.208 16.932-5.898v25.488c0 30.014-24.418 54.431-54.431 54.431zm54.431-125.69c-3.731-2.848-8.175-4.805-13.011-5.553-.621-4.927-4.826-8.737-9.921-8.737-9.372 0-17.893-5.159-22.236-13.464l-7.454-14.254c-1.323-2.53-3.665-4.375-6.436-5.067-2.77-.692-5.705-.167-8.063 1.441-30.043 20.505-65.149 31.344-101.523 31.344h-3.983c-5.095 0-9.3 3.811-9.921 8.736-4.836.748-9.28 2.704-13.011 5.552v-2.582c0-53.916 43.864-97.78 97.78-97.78s97.779 43.864 97.779 97.78z" fill="#ef5fa2" data-original="#000000" style="" class=""/><path d="m98.703 399.4v-2.444c0-5.523-4.478-10-10-10s-10 4.477-10 10v2.444c0 5.523 4.478 10 10 10s10-4.477 10-10z" fill="#ef5fa2" data-original="#000000" style="" class=""/><path d="m146.861 409.4c5.522 0 10-4.477 10-10v-2.444c0-5.523-4.478-10-10-10s-10 4.477-10 10v2.444c0 5.523 4.478 10 10 10z" fill="#ef5fa2" data-original="#000000" style="" class=""/><path d="m137.029 428.718c-3.907-3.905-10.237-3.903-14.143.002-1.363 1.364-3.177 2.116-5.104 2.116-1.929 0-3.741-.751-5.105-2.116-3.905-3.906-10.235-3.906-14.143-.002-3.905 3.905-3.906 10.236-.002 14.142 5.142 5.144 11.979 7.976 19.25 7.976s14.107-2.833 19.249-7.976c3.905-3.906 3.904-10.237-.002-14.142z" fill="#ef5fa2" data-original="#000000" style="" class=""/><path d="m511.815 385.114c0-.001 0-.001 0 0-.851-7.634-4.611-14.393-10.146-19.183v-35.906c0-14.419-5.824-35.449-14.493-52.33-11.438-22.273-26.076-34.54-41.218-34.54-4.982 0-9.205 3.668-9.901 8.603l-.719 5.087c-3.055 1.154-12.763 3.528-39.675 2.591-18.5-.644-35.567-2.535-35.737-2.554-.369-.041-.741-.062-1.112-.062-38.586 0-69.978 30.993-69.978 69.088v40.023c-5.538 4.792-9.299 11.554-10.147 19.191-.938 8.436 1.766 16.894 7.415 23.206 5.735 6.408 13.982 10.083 22.625 10.083.008 0 .08 0 .208-.002v16.216c0 11.638 5.746 28.643 33.118 43.569 8.483 4.626 16.912 7.894 22.692 9.874v13.932c0 5.523 4.478 10 10 10h41.011c5.522 0 10-4.477 10-10v-13.933c5.78-1.98 14.209-5.248 22.692-9.874 27.372-14.926 33.118-31.932 33.118-43.569v-16.216c.128.002.2.002.208.002 8.645 0 16.892-3.677 22.628-10.087 5.649-6.313 8.35-14.773 7.411-23.209zm-153.524-108.292c3.646.394 22.815 2.374 42.542 2.763 32.451.637 48.418-3.285 52.832-13.384 5.214 3.812 10.786 11.024 15.719 20.63 7.232 14.084 12.284 31.847 12.284 43.194v21.456c-1.612-1.147-3.578-1.829-5.703-1.847-5.855-.698-25.476-16.939-42.056-34.821-3.349-3.611-8.827-4.248-12.914-1.501-38.369 25.799-67.943 36.322-102.078 36.322h-4.29c-2.159 0-4.158.685-5.792 1.848v-25.573c0-26.899 22.137-48.812 49.456-49.087zm-42.229 121.149c.045-.014.095-.028.147-.043-.049.014-.099.029-.147.043zm158.23-.043c.055.015.104.03.149.043-.049-.014-.098-.029-.149-.043zm15.207-2.941c-1.947 2.176-4.762 3.423-7.724 3.423-1.922 0-6.307-.276-7.587-.512-2.958-.803-6.124-.207-8.59 1.627-2.536 1.887-4.031 4.862-4.031 8.023v27.075c0 19.194-35.828 33.078-48.37 36.425-4.386 1.161-7.44 5.13-7.44 9.667v11.285h-21.011v-11.284c0-4.53-3.055-8.496-7.431-9.665-12.552-3.35-48.38-17.233-48.38-36.428v-27.075c0-3.161-1.495-6.136-4.031-8.023-2.465-1.833-5.634-2.43-8.59-1.627-1.28.236-5.665.512-7.587.512-2.961 0-5.776-1.247-7.723-3.422-1.888-2.109-2.754-4.829-2.44-7.658.51-4.583 4.473-8.344 9.219-8.747 1.37-.117 2.701.018 3.971.399 3.029.907 6.307.331 8.843-1.556 2.5-1.861 3.988-4.779 4.029-7.891 41.247-1.396 73.766-17.744 100.514-35.002 3.629 3.674 8.627 8.578 14.121 13.521 12.275 11.042 20.621 16.526 26.615 19.19v2.159c0 3.161 1.494 6.136 4.03 8.022 2.535 1.887 5.815 2.464 8.842 1.556 1.27-.381 2.605-.516 3.972-.399 4.744.402 8.707 4.161 9.218 8.745.315 2.831-.551 5.551-2.439 7.66z" fill="#ef5fa2" data-original="#000000" style="" class=""/><path d="m373.928 396.707c0-5.523-4.478-10-10-10s-10 4.477-10 10v2.594c0 5.523 4.478 10 10 10s10-4.477 10-10z" fill="#ef5fa2" data-original="#000000" style="" class=""/><path d="m426.575 386.707c-5.522 0-10 4.477-10 10v2.594c0 5.523 4.478 10 10 10s10-4.477 10-10v-2.594c0-5.523-4.477-10-10-10z" fill="#ef5fa2" data-original="#000000" style="" class=""/><path d="m401.349 430.796c-3.362 3.314-8.834 3.313-12.194 0-3.933-3.877-10.265-3.831-14.142.103s-3.831 10.265.103 14.142c5.552 5.472 12.844 8.208 20.137 8.208 7.292 0 14.584-2.736 20.136-8.208 3.934-3.876 3.979-10.208.103-14.142s-10.21-3.98-14.143-.103z" fill="#ef5fa2" data-original="#000000" style="" class=""/><path d="m391.03 135.285c0-74.597-60.573-135.285-135.028-135.285s-135.028 60.688-135.028 135.285 60.573 135.284 135.028 135.284 135.028-60.688 135.028-135.284zm-145.028 113.747c-16.904-5.229-31.774-23.419-41.369-48.615h41.369zm20 0v-48.615h41.369c-9.595 25.196-24.465 43.385-41.369 48.615zm-.001-68.615c-.04-5.489-4.501-9.926-9.999-9.926s-9.959 4.437-9.999 9.926h-47.499c-3.335-13.941-5.196-29.223-5.196-45.132 0-15.221 1.704-29.866 4.771-43.313h48.103c.885 4.618 4.945 8.107 9.82 8.107s8.935-3.489 9.82-8.107h48.103c3.068 13.447 4.771 28.092 4.771 43.313 0 15.91-1.861 31.191-5.196 45.132zm-125.027-45.132c0-15.311 2.994-29.934 8.425-43.313h28.145c-2.786 13.772-4.236 28.366-4.236 43.313 0 15.607 1.581 30.829 4.613 45.132h-27.765c-5.909-13.868-9.182-29.124-9.182-45.132zm167.076-63.313h-42.048v-50.435c17.309 5.355 32.484 24.297 42.048 50.435zm-62.048-50.435v50.435h-42.048c9.564-26.138 24.739-45.08 42.048-50.435zm88.458 70.435h28.145c5.431 13.379 8.425 28.002 8.425 43.313 0 16.008-3.273 31.264-9.182 45.132h-27.765c3.032-14.304 4.613-29.526 4.613-45.132 0-14.947-1.45-29.541-4.236-43.313zm17.631-20h-22.803c-3.5-10.967-7.934-21.164-13.233-30.295-1.496-2.578-3.045-5.044-4.643-7.398 16.415 9.08 30.392 22.064 40.679 37.693zm-151.499-37.694c-1.598 2.353-3.147 4.82-4.643 7.398-5.298 9.132-9.733 19.328-13.233 30.295h-22.803c10.287-15.628 24.265-28.612 40.679-37.693zm-39.456 166.139h22.172c3.403 10.277 7.637 19.851 12.641 28.476 1.496 2.578 3.045 5.044 4.643 7.398-15.773-8.727-29.296-21.056-39.456-35.874zm150.276 35.873c1.598-2.353 3.147-4.82 4.643-7.398 5.004-8.625 9.238-18.199 12.641-28.476h22.172c-10.16 14.819-23.683 27.148-39.456 35.874z" fill="#ef5fa2" data-original="#000000" style="" class=""/><path d="m265.812 133.51c-.848-4.11-4.231-7.335-8.389-7.94-4.168-.607-8.397 1.582-10.31 5.333-1.898 3.721-1.268 8.347 1.592 11.404 2.818 3.01 7.324 3.96 11.127 2.394 4.349-1.792 6.901-6.583 5.98-11.191z" fill="#ef5fa2" data-original="#000000" style="" class=""/></g></g></g></svg>
