<svg width="1107" height="292" viewBox="0 0 1107 292" fill="none" xmlns="http://www.w3.org/2000/svg">
<path fill-rule="evenodd" clip-rule="evenodd" d="M207.297 201.382C204.414 201.999 205.732 204.245 205.732 204.245C205.732 204.245 210.663 204.307 219.795 204.501C228.927 204.694 252.807 206.192 252.789 204.501C252.771 202.809 248.605 201.338 243.956 200.599C239.307 199.859 210.162 200.766 207.297 201.382ZM243.402 168.104C244.896 168.403 245.995 167.126 246.039 165.241C246.083 163.356 241.539 160.74 236.942 161.083C232.346 161.427 230.658 164.941 231.493 166.8C232.328 168.659 235.132 166.545 235.132 166.545H235.905C235.905 166.545 236.459 172.755 236.424 177.458C236.389 182.162 236.696 192.988 239.289 192.803C241.882 192.618 241.064 166.518 241.064 166.518C241.631 167.309 242.46 167.871 243.402 168.104ZM111.426 142.621C111.364 144.567 110.547 147.245 113.245 147.562C115.943 147.879 116.269 146.567 116.365 144.444C116.462 142.321 117.288 140.921 115.064 140.806C112.841 140.692 111.487 140.674 111.426 142.621ZM129.092 121.304C130.067 121.753 130.973 121.894 131.175 120.52C131.377 119.146 127.29 111.782 121.296 101.546C115.302 91.3108 101.617 79.3135 101.556 81.0048C101.494 82.696 106.003 86.7832 109.87 92.4559C113.737 98.1286 128.116 120.855 129.092 121.304V121.304ZM126.235 101.802C127.58 101.229 122.148 94.0767 119.74 89.8397C117.332 85.6028 108.209 73.218 107.532 74.5041C106.855 75.7901 113.482 85.0743 117.139 90.6237C120.795 96.1731 124.908 102.374 126.235 101.802V101.802ZM229.639 192.53C230.518 192.274 231.168 190.715 231.194 185.774C231.221 180.832 230.948 174.701 228.338 174.596C225.727 174.49 225.297 176.12 224.699 179.793C224.102 183.466 225.332 191.438 226.518 192.01C227.457 192.569 228.569 192.757 229.639 192.539V192.53ZM204.44 196.696C204.142 197.868 212.526 197.841 216.385 197.471C220.243 197.102 247.656 197.789 248.86 197.216C250.064 196.643 249.572 195.551 247.823 194.873C246.074 194.195 231.001 193.349 223.144 193.569C215.286 193.79 204.73 195.525 204.44 196.705V196.696ZM160.495 136.895C161.374 137.274 162.851 136.736 164.433 137.256L164.652 137.15L164.608 137.318C164.807 137.395 165 137.483 165.188 137.582C166.054 138.112 166.764 138.863 167.245 139.758C169.609 143.757 169.785 161.832 166.727 162.114C163.668 162.396 161.225 158.591 161.796 151.975C162.348 147.023 163.289 142.122 164.608 137.318L164.433 137.256C163.264 137.829 157.261 141.106 156.856 148.337C156.408 156.344 157.823 166.413 165.953 166.791C174.083 167.17 175.779 154.741 174.268 145.475C172.756 136.208 163.914 133.742 158.676 134.023C153.438 134.305 159.186 136.296 160.53 136.904L160.495 136.895ZM333.297 213.344C332.163 213.274 331.539 215.3 328.102 218.022C324.666 220.744 321.555 217.449 319.269 211.785C316.984 206.121 317.696 200.616 315.376 199.823C313.258 199.101 309.935 199.885 303.95 200.052C303.563 197.577 302.72 192.001 302.087 186.302C301.454 180.603 301.726 174.737 301.366 171.909C303.827 171.909 305.655 171.847 305.761 171.486C305.866 171.125 304.882 170.658 303.256 170.288C301.503 169.053 299.824 167.714 298.228 166.28C296.304 164.519 293.465 157.807 292.885 156.415C292.929 156.318 292.99 156.221 293.025 156.142C294.177 153.975 291.971 154.442 290.687 154.583C289.404 154.724 286.293 160.158 282.373 163.391C280.061 165.32 277.926 166.774 276.678 167.857C276.202 167.879 275.743 168.041 275.359 168.324C274.621 169.205 274.032 169.769 276.66 170.667C278.762 171.201 280.926 171.45 283.094 171.407C282.616 173.464 282.461 175.583 282.637 177.687C282.637 178.049 282.637 178.568 282.698 179.132C280.94 178.154 272.872 174.499 267.045 169.883C260.998 165.091 257.245 158.485 256.656 156.89C256.499 156.484 256.251 156.119 255.931 155.824C255.611 155.53 255.228 155.313 254.81 155.19C254.81 155.085 254.767 154.961 254.749 154.865C259.24 154.82 262.492 154.794 263.67 154.812C269.734 154.891 272.081 154.301 269.91 153.244C268.436 152.844 266.925 152.599 265.401 152.513C264.053 151.653 262.78 150.68 261.596 149.606C258.08 146.54 257.351 143.827 256.393 141.546C255.435 139.265 256.656 138.111 254.055 138.428C253.566 138.487 253.087 138.611 252.631 138.798C250.442 138.666 247.067 138.489 244.562 138.525C244.919 136.78 245.492 135.088 246.268 133.486C247.893 130.588 248.843 130.43 247.305 128.025C245.767 125.62 238.876 116.653 224.699 117.111C210.522 117.569 205.961 125.832 205.214 126.73C204.467 127.628 204.766 128.677 205.996 131.407C206.872 133.617 207.479 135.923 207.807 138.278C204.695 138.075 199.896 137.97 199.237 138.428C198.578 138.886 199.237 139.837 200.951 140.322C200.74 141.202 200.503 142.427 200.019 144.144C199.088 147.492 194.746 150.31 192.865 151.447C192.162 140.877 191.283 131.848 190.879 128.06C196.249 128.06 200.547 127.849 201.057 127.25C201.865 126.237 197.734 125.153 190.404 124.607L189.068 124.519C188.945 119.93 188.427 105.14 187.117 99.3618C193.586 99.6437 199.8 99.6525 200.802 99.3618C203.008 98.7804 201.021 98.0757 197.163 95.1954C193.305 92.315 185.254 81.0752 179.752 65.9245C178.873 63.5462 178.082 61.071 177.317 58.5782C183.953 58.4108 186.106 57.8911 186.511 56.8165C186.818 56.0413 181.949 55.6361 176.377 55.4335C173.485 45.5591 171.244 36.1076 169.1 32.6898C171.13 32.4873 172.844 32.2582 173.494 32.1173C175.63 31.6857 174.312 31.7209 174.276 30.5582C174.276 29.6773 171.71 28.7965 168.124 28.682C168.625 26.656 169.047 22.6393 169.557 16.2531C170.339 6.56368 168.142 0.661946 165.663 0.917394C163.185 1.17284 164.784 3.69209 165.329 9.78761C163.141 9.04769 159.634 9.59382 156.54 10.5363C153.191 11.5669 151.794 10.0871 146.67 9.49693C141.546 8.90675 141.792 9.49693 138.355 10.5363C134.919 11.5757 135.209 13.8043 136.281 13.3991C138.462 12.7128 140.752 12.4468 143.031 12.6152C145.316 12.9146 145.668 14.1743 145.668 14.1743C144.285 14.5142 142.928 14.9528 141.607 15.4867C139.296 16.3676 137.354 18.1293 137.969 19.3889C138.584 20.6486 139.612 19.0102 142.908 17.821C146.204 16.6319 148.226 18.5081 152.778 19.6444C157.331 20.7807 159.862 18.0676 162.648 17.3013C163.698 17.0079 164.807 17.0079 165.856 17.3013C166.085 21.7056 166.357 26.3213 166.735 28.7524C166.173 28.7524 165.584 28.7524 164.978 28.8229C159.818 29.2017 158.359 30.382 158.746 32.2054C158.913 33.007 161.383 33.1831 164.248 33.0862C162.745 35.0329 161.444 38.7942 159.528 44.9249C158.72 47.5146 157.375 51.2759 155.767 55.4952C149.535 55.7595 143.128 56.2439 143.154 56.8429C143.181 57.4419 148.015 57.9087 154.703 58.2611C150.106 70.1438 143.901 84.6163 140.816 89.091C136.343 95.5829 129.76 95.6534 129.646 97.8996C129.549 99.8287 138.145 99.6613 143.805 99.5292C142.671 104.55 142.267 118.23 142.161 123.418C135.13 123.418 130.472 123.33 129.391 124.167C128.028 125.206 127.782 128.104 132.766 128.571C133.926 128.685 136.58 128.712 140.069 128.694C138.909 135.31 138.725 152.477 138.716 163.99C135.859 161.929 133.442 159.445 132.52 153.147C135.156 152.927 136.967 152.627 137.178 152.266C137.898 150.945 136.079 150.337 132.212 150.205C131.649 142.145 131.966 138.19 129.909 137.97C127.853 137.749 124.952 141.335 125.233 147.069C125.286 148.107 125.412 149.14 125.611 150.161C119.055 150.161 109.554 150.222 104.447 150.161H102.646C103.19 145.563 103.357 141.079 103.006 139.027C110.802 139.027 120.25 139.08 121.595 139.027C123.836 138.903 121.023 136.877 116.655 136.384C112.287 135.891 97.4336 134.561 97.4336 134.561C97.4336 134.561 96.8711 132.077 109.123 129.883C121.375 127.69 127.58 134.719 130.428 136.93C133.275 139.141 136.668 142.013 133.803 135.627C130.938 129.24 120.874 124.889 108.086 125.752C95.2979 126.615 90.5078 134.605 90.42 136.411C90.3321 138.216 90.4199 139.053 92.4942 139.053C93.127 139.053 95.8692 139.053 99.4199 139.053C99.1739 140.753 98.6026 145.695 97.9785 150.134C94.252 150.09 91.5362 150.134 90.1563 150.733C88.0733 151.614 88.8555 154.072 90.42 154.635C91.1319 154.891 93.9356 154.75 97.293 154.521C97.1385 155.525 96.9243 156.52 96.6514 157.498C95.878 159.982 92.0195 162.325 90.042 163.391C90.042 162.51 89.9629 161.788 89.8926 161.189C90.0314 160.839 90.1201 160.471 90.1563 160.097C90.3321 156.573 88.0821 156.388 86.2627 156.979C84.4434 157.569 81.3145 163.145 75.3467 168.676C70.5918 173.081 62.0401 177.071 58.7618 178.507C58.4229 176.686 57.9228 174.9 57.2676 173.169C60.7832 173.045 62.3477 172.887 63.1387 172.834C64.4219 172.746 65.6172 171.742 64.958 171.019C64.2989 170.297 61.8467 169.901 54.8243 161.392C47.8018 152.883 47.1778 150.548 45.4727 152.583C43.7676 154.618 46.3516 157.569 45.4727 159.339C44.5938 161.11 37.211 165.778 33.2647 168.148C29.3184 170.517 28.1934 170.79 28.5801 173.089C28.8614 174.675 33.212 174.199 39.3819 173.75C39.1797 177.511 39.004 186.91 38.1954 192.583C37.682 196.135 36.5956 199.58 34.9786 202.783C32.9159 202.883 30.8612 203.109 28.8262 203.461C28.4057 203.313 27.9623 203.242 27.5167 203.25C25.9346 203.373 24.5899 205.161 24.3966 207.654C24.2032 210.147 19.6505 217.846 15.045 218.841C10.4395 219.836 6.85359 218.797 3.8741 213.635C2.23054 210.772 1.67684 210.816 0.762775 211.037C-0.151287 211.257 -1.64542 218.867 5.95711 223.518C11.9073 227.156 21.0919 225.58 26.3126 221.757C31.2432 221.087 46.8877 219.114 68.5703 217.564C88.9258 216.119 123.897 214.225 139.454 213.353C139.454 213.847 139.454 214.305 139.454 214.701C139.483 216.13 139.636 217.553 139.911 218.956C129.813 219.581 122.623 220.418 116.33 221.202C105.897 222.505 94.2344 223.791 94.5069 225.359C94.6387 226.161 97.9346 226.143 102.039 225.87C101.607 226.885 101.261 227.934 101.002 229.006C99.7451 233.604 97.1524 237.912 95.2803 238.88C93.4082 239.849 93.3379 241.259 95.0254 241.743C96.7129 242.228 102.936 243.25 105.933 235.243C108.068 229.579 108.35 226.601 108.332 225.342C110.38 225.157 112.349 224.963 113.992 224.84C117.824 224.558 129.285 224.029 143.436 223.756C143.577 223.784 143.722 223.799 143.866 223.8C143.924 223.803 143.98 223.784 144.024 223.747C154.879 223.545 167.254 223.492 178.943 223.8C182.134 223.888 185.324 224.003 188.462 224.126C188.69 224.452 188.901 224.602 189.068 224.584C189.235 224.567 189.358 224.426 189.561 224.17C201.435 224.663 212.579 225.377 220.639 225.817C220.571 227.174 220.747 228.531 221.157 229.825C216.446 228.944 205.337 228.539 196.864 227.702C186.317 226.654 148.34 226.267 135.297 227.702C122.254 229.138 114.405 230.001 114.511 231.605C114.616 233.208 153.024 231.155 164.652 231.34C175.199 231.508 215.198 232.653 222.66 232.864C223.641 234.224 224.951 235.312 226.466 236.027C233.005 239.136 238.419 240.017 238.937 238.361C239.456 236.705 233.98 237.524 231.405 232.899C230.201 230.574 228.872 228.316 227.424 226.135C231.08 226.267 233.216 226.223 233.225 225.879C233.225 224.672 230.922 223.747 222.572 222.241C217.395 221.307 205.601 219.792 191.547 218.859C191.714 218.101 191.863 217.264 191.995 216.331C193.059 208.843 193.331 196.503 193.753 184.021C194.025 175.503 193.656 165.126 193.076 155.543C193.294 155.621 193.522 155.669 193.753 155.684C194.175 155.684 196.161 155.684 199.202 155.684C198.385 159.031 196.873 172.068 198.429 183.765C200.186 196.864 200.687 195.675 202.586 195.983C204.484 196.291 206.295 187.5 206.479 177.784C206.638 169.407 205.363 158.476 205.012 155.622C217.246 155.481 236.749 155.182 249.968 155.023C249.423 158.282 247.639 169.821 248.307 177.784C249.098 187.139 251.268 193.64 252.464 194.159C253.659 194.679 256.674 187.888 256.858 177C256.911 174.226 256.779 171.381 256.56 168.668C257.662 170.021 258.991 171.172 260.488 172.068C263.125 173.618 266.175 175.186 269.04 176.516C268.047 178.586 267.203 182.576 269.04 189.482C270.587 195.208 271.905 197.982 272.907 199.401C271.369 199.401 269.963 199.401 268.776 199.401C260.664 199.401 254.38 201.444 254.714 202.783C255.048 204.122 262.773 203.444 266.922 203.558C271.07 203.673 307.193 205.637 307.193 205.637C307.835 208.482 308.717 211.266 309.83 213.961C310.846 216.088 312.352 217.942 314.225 219.37L313.249 219.158C289.98 214.411 266.327 211.801 242.585 211.363C206.655 210.737 198.499 209.936 195.818 211.098C193.138 212.261 193.401 213.239 194.518 214.217C195.634 215.194 233.875 215.247 247.516 216.04C260.242 216.78 311.57 221.765 320.342 222.206H320.526C324.833 222.734 330.194 222.963 332.998 219.607C335.802 216.251 334.431 213.406 333.297 213.344ZM139.208 203.77C136.905 202.801 132.273 201.761 123.388 201.127C119.872 200.88 115.952 200.687 111.707 200.546C114.212 199.586 118.923 187.615 121.05 187.615C123.177 187.615 123.845 201.708 127.545 201.391C131.245 201.074 133.108 188.178 134.04 188.134C134.761 188.134 137.758 195.076 139.103 198.502C139.129 200.317 139.164 202.087 139.208 203.77ZM103.894 187.086C105.353 186.866 108.657 199.418 111.065 200.519C107.313 200.396 103.331 200.317 99.2442 200.281C101.661 199.339 102.417 187.298 103.894 187.086ZM98.6992 193.323C98.4215 191.813 97.9855 190.336 97.3985 188.918C96.928 188.069 96.284 187.329 95.5085 186.746C94.7331 186.163 93.8437 185.751 92.8985 185.536C95.2715 185.457 97.794 185.351 100.255 185.28L102.136 185.236C99.9737 187.579 98.6992 193.323 98.6992 193.323V193.323ZM106.056 185.175C109.615 185.175 113.887 185.175 118.149 185.175C114.713 187.685 111.944 193.358 111.944 193.358C111.944 193.358 108.921 187.509 106.056 185.175V185.175ZM124.029 185.122C127.246 185.122 130.234 185.122 132.634 185.043C129.707 186.514 128.31 193.058 128.31 193.058C128.31 193.058 126.903 187.579 124.029 185.122V185.122ZM138.971 191.05C138.435 189.35 137.116 185.915 134.945 184.99C136.04 185.004 137.134 184.922 138.215 184.743C138.461 184.655 138.672 184.567 138.865 184.479C138.865 186.584 138.909 188.804 138.971 191.05V191.05ZM89.6026 179.026C89.8662 175.159 90.0332 171.028 90.0596 167.575C91.8174 167.443 98.1719 166.597 100.255 161.356C101.074 159.021 101.662 156.61 102.013 154.16C104.649 153.975 107.286 153.825 109.325 153.816C112.489 153.816 119.995 153.772 126.411 153.517C127.961 158.275 130.657 162.577 134.26 166.043C136.475 168.148 137.828 169.046 138.654 169.346C138.654 170.958 138.654 172.314 138.654 173.318C138.654 175.776 138.707 179.414 138.769 183.554C138.478 183.502 138.184 183.47 137.89 183.457C135.631 183.343 116.172 181.616 106.979 181.123C97.7852 180.63 99.0244 180.815 94.5069 181.123C92.7791 181.259 91.0598 181.489 89.3565 181.81C89.4707 180.815 89.541 179.881 89.6026 179.026ZM89.0489 185.633C89.7696 185.633 90.5254 185.633 91.3076 185.571C91.1651 185.626 91.0294 185.696 90.9033 185.783C90.2178 186.276 89.2598 188.936 88.3633 191.887C88.6094 189.87 88.8731 187.72 89.0489 185.633ZM87.5987 197.471C89.2774 194.063 91.7383 189.28 92.459 189.165C93.5313 188.989 96.0713 199.383 98.6113 200.273C94.8145 200.273 90.9385 200.273 87.0625 200.273C87.2295 199.568 87.4141 198.599 87.5987 197.471ZM75.25 175.776C75.9943 175.442 76.7114 175.051 77.3946 174.604C79.7402 172.901 81.9393 171.003 83.9688 168.932C84.0479 172.455 84.1534 177.793 84.2676 183.025C82.5098 183.58 81.253 184.188 81.2881 184.787C81.3233 185.386 82.4746 185.536 84.3204 185.668C84.4698 192.768 84.6192 199.075 84.6631 199.63C84.685 199.882 84.7381 200.13 84.8213 200.369C79.5479 200.431 74.3799 200.554 69.4581 200.739C71.6573 196.195 73.1907 191.356 74.0108 186.373C74.8106 181.017 75.1358 177.661 75.25 175.776ZM59.4297 183.704C59.3331 182.638 59.21 181.678 59.0782 180.762C61.4952 180.189 66.5049 178.938 70.8379 177.476C70.7764 180.999 70.5479 188.117 70.0821 191.499C69.6426 194.697 67.7442 198.705 66.6719 200.775C63.3848 200.916 60.2471 201.083 57.3379 201.277C59.2284 195.624 59.9521 189.645 59.4649 183.704H59.4297ZM46.7032 164.986C48.1094 163.268 48.7774 162.387 48.7774 162.387C48.7774 162.387 51.4141 166.65 52.9346 168.104C54.0918 169.099 55.4081 169.891 56.8282 170.447L39.9444 170.183C39.9444 170.183 45.3321 166.703 46.7383 164.986H46.7032ZM45.6573 193.323C47.7579 187.157 47.5469 177.529 47.1778 173.318H47.9952C50.3243 173.318 52.2754 173.318 53.9454 173.23C53.8663 174.631 53.5938 179.396 53.4532 184.761C53.3125 190.125 52.8643 198.907 52.7237 201.611C47.3887 201.981 43.003 202.237 39.4786 202.492C41.5001 200.933 44.0489 198.291 45.6924 193.323H45.6573ZM56.8282 214.904C42.7217 216.366 33.9766 217.652 29.0723 218.823C29.2482 218.565 29.4095 218.298 29.5557 218.022C32.3331 212.516 32.9571 209.213 33.1329 207.452C40.5508 206.967 64.7735 205.461 85.6738 205.003C107.383 204.536 132.405 206.236 139.226 206.192C139.27 208.156 139.313 209.936 139.357 211.477C126.429 211.336 77.2627 212.79 56.8633 214.904H56.8282ZM165.988 45.9027C165.988 45.9027 167.104 49.9282 168.792 55.275C166.823 55.275 165.021 55.275 163.65 55.275H162.771C164.679 49.8313 165.988 45.9027 165.988 45.9027ZM139.489 96.1114C146.208 92.1017 151.412 85.975 154.29 78.6881C156.628 72.8216 159.405 65.0525 161.673 58.5518C164.169 58.6222 166.77 58.6663 169.363 58.6751H169.873C172.229 65.8629 175.27 74.2574 177.933 78.6881C183.206 87.3998 192.742 96.1114 192.742 96.1114C192.742 96.1114 178.873 95.3539 173.406 96.1907C172.149 89.9278 170.11 83.1893 166.261 83.11C161.172 83.0043 158.104 91.5838 156.593 97.327C154.378 96.9058 152.132 96.673 149.878 96.6311L139.489 96.1114ZM174.558 102.868C174.338 101.529 174.083 99.9344 173.775 98.2431C177.234 98.8094 180.724 99.1683 184.226 99.3178C182.916 102.876 182.301 110.143 182.353 114.548C182.31 117.925 183.003 121.271 184.384 124.352C181.747 124.228 178.688 124.096 175.419 123.973C175.577 120.441 175.542 108.69 174.558 102.841V102.868ZM166.753 89.6548C166.868 89.8824 166.96 90.1216 167.025 90.3683C167.307 91.4341 168.186 96.5342 169.161 102.392H169.1C168.52 102.392 167.816 102.392 167.052 102.313C167.096 97.2301 167.017 92.5264 166.753 89.5843V89.6548ZM166.999 105.871C167.957 105.871 168.889 105.801 169.706 105.722C170.945 113.297 172.193 121.242 172.483 123.453C172.483 123.629 172.536 123.788 172.562 123.938L165.962 123.726C166.614 117.773 166.96 111.79 166.999 105.801V105.871ZM164.459 101.282V102.04C163.255 101.952 162.077 101.863 161.093 101.855C162.666 92.4471 164.336 89.1263 164.336 89.1263C164.465 89.0447 164.6 88.974 164.74 88.9149L164.397 89.646C164.397 89.646 164.459 94.7637 164.459 101.282ZM164.459 105.801C164.459 111.87 164.415 120.203 164.942 123.629C162.622 123.559 160.328 123.506 158.166 123.462C158.676 120.634 159.282 115.534 160.328 107.263C160.407 106.682 160.478 106.118 160.557 105.572C161.567 105.686 162.956 105.739 164.397 105.801H164.459ZM156.109 123.418C153.06 123.365 150.344 123.347 148.199 123.374C148.199 121.85 147.892 119.463 147.83 115.834C147.76 111.121 147.285 103.061 146.072 99.4587H146.512C149.57 99.4587 153.543 99.7229 156.118 99.6084C155.283 105.607 155.846 119.234 156.048 123.427L156.109 123.418ZM164.23 218.013C156.979 218.128 150.757 218.33 145.308 218.594C145.501 216.956 145.668 215.071 145.817 212.922C146.696 212.869 147.232 212.825 147.338 212.816C148.27 212.684 149.553 212.182 145.896 211.803C146.433 203.734 146.705 193.657 146.819 188.636C147.013 180.022 146.652 135.433 146.354 128.624C157.964 128.448 173.38 128.025 179.295 128.051H186.396C185.43 135.274 184.981 185.492 185.017 200.281C184.915 206.389 185.448 212.491 186.607 218.489C179.4 218.11 171.728 217.907 164.169 218.022L164.23 218.013ZM201.144 150.936C202.269 149.924 203.264 148.776 204.106 147.518C205.058 145.925 205.727 144.179 206.084 142.356C206.18 141.944 206.216 141.52 206.189 141.097C206.928 141.176 207.64 141.229 208.272 141.264C208.352 142.145 208.404 143.026 208.422 143.907C208.466 146.681 208.668 149.359 208.809 150.892L201.144 150.936ZM233.62 150.936C227.986 150.874 219.224 150.874 212.219 150.936C214.018 146.505 214.677 141.692 214.135 136.939C213.912 135.091 213.445 133.282 212.746 131.557L214.653 131.478C218.397 131.31 234.174 131.425 238.296 131.997C239.104 132.112 239.764 132.182 240.317 132.218C238.664 134.191 237.764 136.688 237.777 139.265C237.628 145.351 239.465 149.438 240.871 151.13C238.059 151.024 235.562 150.962 233.532 150.945L233.62 150.936ZM230.377 129.099C225.622 128.844 215.436 128.351 211.103 128.959C210.827 128.611 210.494 128.313 210.118 128.078C212.429 126.089 215.113 124.583 218.012 123.647C220.911 122.711 223.967 122.363 227.002 122.625C233.25 123.167 239.206 125.514 244.149 129.381C242.994 129.817 241.936 130.479 241.038 131.328C237.594 130.132 234.011 129.383 230.377 129.099V129.099ZM243.411 151.209C243.445 150.428 243.431 149.645 243.367 148.866C243.307 146.476 243.487 144.085 243.903 141.731C246.03 141.793 248.772 141.793 250.829 141.625C250.826 141.959 250.853 142.292 250.908 142.621C251.277 144.832 254.099 149.667 259.117 152.037C254.353 151.702 248.649 151.412 243.446 151.209H243.411ZM275.983 199.409C275.474 195.357 273.531 184.673 273.25 181.88C273.092 180.538 272.798 179.216 272.371 177.934C274.252 178.789 276.194 179.502 278.181 180.066C279.66 180.411 281.188 180.503 282.698 180.339C282.927 185.862 283.392 196.67 283.577 199.621C280.993 199.541 278.409 199.462 276.018 199.409H275.983ZM285.203 167.584C286.187 166.985 287.901 164.589 289.483 162.096C290.415 164.184 292.814 166.183 295.073 168.104C295.56 168.515 296.067 168.9 296.594 169.258L295.592 169.143C291.083 168.641 287.075 168.121 284.544 167.919C284.869 167.804 285.062 167.69 285.238 167.584H285.203ZM286.891 199.726C288.139 193.687 288.705 187.527 288.578 181.361C288.402 176.278 287.198 173.107 285.994 171.469H289.097C290.758 171.469 293.491 171.618 296.277 171.733C296.04 174.64 295.442 182.911 295.855 187.588C296.393 191.98 297.806 196.219 300.013 200.052C296.629 199.991 291.9 199.876 286.926 199.726H286.891ZM213.493 165.761C213.493 165.761 213.66 177.547 213.757 182.145C213.853 186.743 215.269 192.583 216.868 191.764C218.468 190.944 218.687 165.241 218.687 165.241C218.687 165.241 222.291 168.06 223.627 166.545C224.963 165.03 223.319 163.902 221.544 162.387C219.769 160.872 214.064 160.625 211.155 161.858C208.246 163.092 207.684 164.862 208.817 166.545C209.951 168.227 213.528 165.761 213.528 165.761H213.493ZM173.485 212.561C171.042 212.367 165.391 212.191 160.029 212.314C160.3 210.937 160.455 209.541 160.495 208.139C160.759 202.545 159.071 192.926 159.616 190.522C163.522 190.675 167.432 190.622 171.332 190.363C171.394 193.006 171.728 196.529 171.947 200.317C172.334 207.134 172.765 211.451 174.021 211.495C175.278 211.539 175.867 209.46 176.096 206.298C176.324 203.135 176.482 190.354 175.841 188.355C175.606 187.615 175.152 186.964 174.54 186.487C174.545 186.417 174.545 186.346 174.54 186.276C174.54 186.276 168.344 172.631 164.459 173.301C160.574 173.97 154.668 183.122 155.107 193.058C155.441 200.563 156.443 208.738 157.375 212.437H157.261C152.207 212.666 148.041 213.239 148.094 214.41C148.208 216.982 161.146 215.635 167.315 215.45C173.485 215.265 181.773 216.683 181.87 215.185C181.967 213.688 178.794 212.983 173.52 212.561H173.485ZM165.171 177.723C165.171 177.723 169.161 184.32 171.587 186.875C171.455 187.322 171.375 187.783 171.35 188.249C170.919 188.249 170.427 188.161 169.847 188.126C166.823 187.905 163.413 187.333 161.102 187.183C162.798 183.431 165.206 177.723 165.206 177.723H165.171ZM122.043 175.38C121.894 174.279 116.066 174.34 116.066 174.34C116.066 174.34 115.943 164.651 115.812 162.642C115.68 160.634 111.118 160.881 109.835 161.603C108.552 162.325 109.053 174.085 109.053 174.085C107.527 173.654 105.959 173.391 104.377 173.301C102.514 173.301 102.197 173.979 103.076 175.38C103.955 176.78 122.272 176.481 122.078 175.38H122.043ZM228.039 135.08C223.899 134.913 219.373 137.283 219.733 140.022C220.094 142.762 223.293 146.188 224.928 145.739C226.562 145.29 224.145 143.14 224.145 143.14C224.145 143.14 230.298 143.501 231.941 141.062C233.585 138.622 232.223 135.257 228.074 135.08H228.039ZM102.329 97.8996C106.891 101.758 120.786 114.107 121.56 113.755C122.333 113.403 117.165 107.131 110.644 100.498C104.122 93.8653 94.5772 88.0076 93.7598 89.3112C92.9424 90.6149 97.7764 94.0502 102.329 97.8996Z" fill="white"/>
<path fill-rule="evenodd" clip-rule="evenodd" d="M0 283.834H4.07576V275.39H12.3044V271.75H4.07576V266.625H13.7316V263.037H0V283.834ZM36.6305 263.037L29.0447 283.834H33.3004L34.5862 280.144H41.992L43.2777 283.834H47.4435L39.8319 263.037H36.6305ZM35.6919 276.735L38.3405 269.175L40.912 276.735H35.6919ZM75.2924 274.275L69.8409 263.037H65.8294V283.834H69.9052V271.75L73.9167 279.631H76.6681L80.6539 271.75V283.873H84.7297V263.037H80.7182L75.2924 274.275ZM105.391 283.834H109.467V263.037H105.391V283.834ZM134.205 263.037H130.129V283.834H143.668V280.208H134.205V263.037ZM166.348 271.417L162.491 263.037H158.068L164.329 275.3V283.834H168.366V275.3L174.731 263.037H170.308L166.348 271.417ZM223.627 263.037H215.617V283.834H219.731V276.005H223.743C224.632 276.06 225.522 275.934 226.36 275.633C227.198 275.333 227.965 274.864 228.614 274.257C229.264 273.649 229.781 272.915 230.135 272.101C230.488 271.286 230.671 270.408 230.671 269.521C230.671 268.633 230.488 267.755 230.135 266.941C229.781 266.126 229.264 265.393 228.614 264.785C227.965 264.177 227.198 263.709 226.36 263.408C225.522 263.108 224.632 262.981 223.743 263.037H223.627ZM223.421 272.353H219.564V266.625H223.421C224.178 266.625 224.904 266.925 225.44 267.458C225.975 267.992 226.276 268.715 226.276 269.47C226.276 270.224 225.975 270.948 225.44 271.481C224.904 272.015 224.178 272.314 223.421 272.314V272.353ZM253.585 263.037L245.999 283.834H250.255L251.54 280.144H258.946L260.232 283.834H264.475L256.863 263.037H253.585ZM252.646 276.735L255.282 269.175L257.853 276.735H252.646ZM297.724 269.406C297.742 268.531 297.577 267.661 297.239 266.854C296.901 266.046 296.398 265.317 295.762 264.714C295.125 264.111 294.369 263.647 293.543 263.352C292.716 263.056 291.837 262.936 290.961 262.999H282.784V283.796H286.859V275.595H289.778L293.854 283.898H298.572L293.918 274.928C295.077 274.551 296.081 273.808 296.78 272.812C297.478 271.816 297.832 270.62 297.788 269.406H297.724ZM290.691 272.148H286.834V266.625H290.691C291.075 266.588 291.462 266.631 291.828 266.752C292.194 266.873 292.53 267.069 292.815 267.327C293.101 267.586 293.329 267.9 293.485 268.252C293.641 268.603 293.722 268.983 293.722 269.367C293.722 269.751 293.641 270.131 293.485 270.482C293.329 270.834 293.101 271.149 292.815 271.407C292.53 271.665 292.194 271.861 291.828 271.982C291.462 272.103 291.075 272.146 290.691 272.109V272.148ZM327.206 271.302L334.161 263.037H329.211L321.857 272.097V263.037H317.781V283.834H321.857V277.581L324.557 274.365L329.906 283.834H334.65L327.206 271.302Z" fill="white"/>
<path fill-rule="evenodd" clip-rule="evenodd" d="M876.998 198.112C877.089 218.634 873.263 232.977 866.305 232.902C857.029 232.784 854.488 213.529 853.402 195.911C853.088 190.927 851.803 175.86 852.5 161.031C853.678 136.594 856.057 122.706 858.843 113.293C861.896 103.146 867.06 96.4012 873.45 102.586C879.545 108.535 880.493 146.138 877.195 161.475C876.163 166.263 890.38 160.64 895.453 152.729C904.111 139.483 901.292 111.855 887.093 98.3322C878.231 89.8556 864.366 87.5803 850.072 96.4124C826.17 110.877 825.197 153.039 825.267 175.301C825.238 166.726 824.209 206.156 836.404 225.036C840.234 230.953 845.002 236.587 852.508 239.772C860.014 242.958 868.676 243.865 879.859 238.08C888.079 233.843 896.379 219.891 893.037 208.824C888.186 194.95 877.035 192.63 877.012 198.084L876.998 198.112Z" fill="white"/>
<path fill-rule="evenodd" clip-rule="evenodd" d="M934.314 218.924C932.029 219.513 928.259 230.155 923.698 228.644C921.554 227.932 921.818 194.371 924.393 172.348C926.546 153.806 929.516 138.199 927.09 138.023C915.156 137.074 908.785 143.111 905.455 150.888C902.476 157.866 901.439 171.021 901.017 176.742C899.857 192.306 898.723 220.04 903.486 231.728C909.321 246.298 918.707 243.838 926.528 238.565C936.564 231.79 935.87 218.538 934.314 218.924Z" fill="white"/>
<path d="M931.546 120.215C935.105 116.128 938.392 108.79 932.644 104.124C926.897 99.4576 907.16 104.924 908.697 123.528C909.313 131.068 915.49 133.722 920.886 132.869C927.257 131.858 933.251 125.065 933.251 125.065L925.394 126.173C927.641 124.399 929.702 122.403 931.546 120.215Z" fill="white"/>
<path fill-rule="evenodd" clip-rule="evenodd" d="M994.852 217.206C997.428 201.683 981.783 193.071 981.513 196.924C979.834 220.792 976.914 231.488 972.868 231.02C969.044 230.571 968.285 212.663 968.368 198.349C968.468 182.075 969.519 165.821 971.515 149.67C977.16 148.522 981.941 147.583 984.199 147.2C991.469 145.595 1018.64 140.074 1015.12 138.964C1009.07 136.918 1004.16 136.479 994.799 136.219C991.705 136.063 979.536 136.999 972.347 137.444C973.977 126.571 975.778 113.641 977.666 105.074C979.81 95.2438 983.491 88.0339 979.062 88.5985C958.654 91.3181 958.163 104.284 954.627 118.412C953.163 124.136 952.729 129.259 951.172 139.083C947.383 139.444 943.622 140.052 939.912 140.902C932.345 142.885 932.005 151.014 931.883 154.398C931.761 157.781 936.126 157.25 939.154 156.573C940.057 156.309 943.903 155.424 949.033 154.356C948.005 162.741 947.535 168.65 947.543 168.648C947.122 173.735 946.731 178.838 946.372 183.958C946.278 183.98 944.824 236.147 960.085 241.38C975.65 246.748 992.021 234.4 994.854 217.214L994.852 217.206Z" fill="white"/>
<path fill-rule="evenodd" clip-rule="evenodd" d="M1046.27 167.562C1046.38 166.719 1046.51 165.907 1046.65 165.119C1046.88 163.305 1046.76 163.747 1046.27 167.562ZM1069.82 141.467C1066.34 141.524 1050.41 145.17 1046.65 165.119C1045.64 173.374 1037.59 228.403 1025.59 224.647C1022.6 223.729 1022.22 213.571 1025 183.76C1027.61 155.985 1031.12 140.493 1027.15 139.966C1023.18 139.439 1003.13 145.818 1001.13 175.496C998.24 217.244 1000.88 242.417 1017.8 243.03C1035.88 243.765 1045.55 215.445 1045.63 215.416C1045.16 225.844 1042.51 236.058 1037.85 245.397C1023.92 272.742 984.548 255.159 982.024 257.852C978.779 262.578 986.228 279.879 1000.21 282.671C1007.94 284.221 1015.3 282.424 1021.89 279.966C1028.61 277.395 1034.69 273.419 1039.75 268.305C1050.29 257.823 1058.18 242.188 1062.16 223.06C1066.49 202.569 1066.39 197.999 1069.81 164.842C1070.16 161.487 1070.47 158.344 1070.71 155.515C1070.82 154.105 1070.93 152.772 1071 151.529C1071.07 150.286 1071.14 149.137 1071.16 148.1C1071.23 143.911 1070.89 141.426 1069.82 141.467Z" fill="white"/>
<path fill-rule="evenodd" clip-rule="evenodd" d="M771.602 138.956C743.692 144.325 743.648 197.457 748.42 219.418C752.093 236.114 764.836 244.419 777.297 241.976C783.448 240.772 791.463 237.16 796.112 226.307C800.76 215.454 793.431 203.265 786.234 202.492C783.123 202.228 784.925 234.55 774.616 232.125C770.934 231.246 768.122 217.871 768.693 192.948C769.265 168.026 775.363 149.176 780.012 149.009C786.322 148.807 786.814 168.711 783.325 187.351C782.772 190.365 801.718 188.862 804.196 166.093C805.225 157.322 799.486 133.868 771.602 138.956Z" fill="white"/>
<path fill-rule="evenodd" clip-rule="evenodd" d="M743.288 218.556C741.003 219.145 737.233 229.787 732.672 228.276C730.528 227.564 730.791 194.003 733.366 171.981C735.519 153.438 738.49 137.831 736.064 137.655C724.13 136.706 717.759 142.743 714.428 150.521C711.449 157.498 710.412 170.654 709.99 176.375C708.83 191.938 707.697 219.673 712.46 231.36C718.295 245.931 727.68 243.47 735.502 238.197C745.537 231.422 744.843 218.17 743.288 218.556Z" fill="white"/>
<path d="M740.52 119.847C744.079 115.761 747.365 108.423 741.618 103.756C735.871 99.0899 716.133 104.556 717.671 123.16C718.286 130.7 724.464 133.354 729.86 132.501C736.231 131.491 742.224 124.698 742.224 124.698L734.368 125.805C736.614 124.032 738.675 122.035 740.52 119.847Z" fill="white"/>
<path fill-rule="evenodd" clip-rule="evenodd" d="M680.784 182.248C680.518 191.529 680.507 199.364 680.59 206.104C678.423 228.546 673.301 234.142 666.318 232.871C661.014 231.914 657.348 211.591 660.217 194.968C666.055 161.55 680.607 155.939 686.137 151.724C689.701 149.009 690.691 146.921 690.069 144.982C689.415 141.27 666.706 138.277 652.935 152.617C644.788 161.057 638.631 176.873 639.599 202.191C640.566 227.509 650.666 242.527 664.514 242.833C669.79 242.943 674.634 241.891 680.655 236.561C680.323 241.557 678.969 246.431 676.675 250.881C662.314 278.682 619.355 259.066 620.173 266.74C618.849 290.378 656.235 298.271 679.79 272.315C689.776 261.284 698.974 241.093 700.168 216.848C701.491 190.631 703.312 162.454 701.362 160.222C698.144 156.522 681.326 163.07 680.784 182.248Z" fill="white"/>
<path fill-rule="evenodd" clip-rule="evenodd" d="M639.257 230.27C637.218 229.877 633.296 234.888 629.892 233.844C622.74 231.673 625.671 205.276 628.776 179.735C631.48 157.224 634.197 136.674 617.761 132.997C601.098 129.289 582.007 140.517 579.432 157.539C576.879 174.084 589.48 177.711 590.664 177.173C592.561 176.28 591.924 169.402 597.02 157.504C602.805 144.021 611.829 139.457 614.564 140.722C617.788 142.23 607.648 176.5 607.752 176.514C600.157 177.874 592.989 181.187 586.903 186.15C578.555 193.145 573.266 206.438 572.629 218.361C572.427 221.079 572.678 228.017 575.299 234.02C576.636 236.755 578.757 238.984 581.372 240.403C595.62 248.036 607.333 232.296 607.448 232.294C607.564 232.291 610.709 239.96 622.535 242.075C635.428 244.431 641.554 230.726 639.257 230.27ZM593.286 209.603C590.527 225.39 593.579 228.593 595.176 228.98C598.337 229.731 604.237 218.878 604.246 218.879C604.255 218.881 603.578 207.22 604.293 198.902C604.617 194.492 605.241 190.108 606.16 185.783C606.154 185.763 596.117 193.365 593.286 209.603Z" fill="white"/>
<path fill-rule="evenodd" clip-rule="evenodd" d="M573.156 218.406C571.067 223.348 569.153 229.848 565.622 229.711C562.554 229.594 561.303 216.67 559.819 201.007C559.192 194.057 559.172 187.066 559.758 180.113C559.037 179.957 594.067 106.465 588.309 90.3148C586.406 85.5316 581.348 84.8476 577.856 84.1978C575.364 83.7266 572.796 83.834 570.352 84.5116C566.929 85.5364 563.812 87.3896 561.276 89.907C554.906 95.8895 548.121 107.348 542.384 128.359C531.838 167.76 537.124 204.975 536.981 204.971C536.838 204.967 527.229 228.861 521.049 229.534C517.986 229.85 514.795 215.588 512.694 199.08C511.284 187.968 510.77 176.76 511.155 165.564C510.167 165.35 552.276 85.0133 528.195 83.6815C522.496 83.2925 516.828 84.8008 512.076 87.971C507.542 91.0066 503.807 95.4566 500.783 100.852C494.709 111.647 491.45 126.209 489.778 140.792C486.49 169.951 489.286 199.207 489.25 199.209C488.975 199.194 475.57 252.182 467.508 251.997C462.658 251.844 460.478 241.209 461.011 217.747C461.57 192.959 465.951 174.468 462.873 174.565C456.859 174.635 432.107 187.878 434.487 217.728C434.558 218.769 434.65 219.796 434.722 220.791C434.793 221.787 434.937 222.781 435.06 223.751C435.314 225.686 435.603 227.547 435.942 229.338C436.559 232.666 437.386 235.952 438.421 239.174C440.028 244.366 442.419 249.281 445.509 253.752C450.9 261.315 457.283 264.678 462.815 264.422C473.404 263.941 479.71 254.402 484.204 243.597C488.698 232.792 493.073 217.726 493.082 217.728C493.09 217.73 497.73 243.592 515.632 242.27C526.771 241.495 532.386 233.11 536.279 226.194C538.434 222.354 539.907 219.212 539.898 219.21C539.89 219.208 542.933 240.74 557.358 241.604C565.774 242.145 571.786 238.027 575.31 233.558C574.167 230.633 572.136 223.508 573.156 218.406ZM526.53 90.3611C519.817 90.0104 512.477 140.079 512.45 141.116C512.515 140.823 513.156 139.144 514.142 136.562C518.9 124.103 531.689 90.6165 526.53 90.3611ZM565.95 127.709C564.141 135.825 562.849 144.048 562.083 152.327C562.083 152.327 564.502 147.313 567.111 140.47C573.74 122.808 583.297 95.1801 578.446 94.3702C574.66 93.7466 569.494 111.752 565.95 127.709Z" fill="white"/>
</svg>
