<?xml version="1.0"?>
<svg xmlns="http://www.w3.org/2000/svg" xmlns:xlink="http://www.w3.org/1999/xlink" xmlns:svgjs="http://svgjs.com/svgjs" version="1.1" width="512" height="512" x="0" y="0" viewBox="0 0 512.002 512.002" style="enable-background:new 0 0 512 512" xml:space="preserve" class=""><g>
<g xmlns="http://www.w3.org/2000/svg">
	<g>
		<path d="M290.82,492h-0.16c-5.523,0-10,4.477-10,10s4.477,10,10,10h0.16c5.523,0,10-4.477,10-10S296.343,492,290.82,492z" fill="#ffffff" data-original="#000000" style="" class=""/>
	</g>
</g>
<g xmlns="http://www.w3.org/2000/svg">
	<g>
		<path d="M444.69,184.227c-4.687-19.396-12.305-37.814-22.703-54.898c6.558-7.952,10.502-18.136,10.502-29.224    c0-25.364-20.636-46-46-46c-11.03,0-21.163,3.905-29.097,10.402c-17.25-10.585-35.861-18.32-55.488-23.061    C299.611,18.212,279.96,0,256.133,0c-23.826,0-43.477,18.21-45.773,41.443c-19.492,4.707-37.988,12.373-55.154,22.859    c-8.196-6.725-18.375-10.383-29.118-10.383c-12.287,0-23.839,4.785-32.527,13.474c-16.835,16.835-17.866,43.58-3.096,61.631    c-10.497,17.168-18.17,35.669-22.884,55.184C44.221,186.377,25.87,206.082,25.87,230c0,23.918,18.352,43.623,41.713,45.793    c4.733,19.598,12.446,38.169,23.009,55.394c-7.044,8.296-10.893,18.704-10.893,29.71c0,12.287,4.785,23.839,13.473,32.527    c8.688,8.688,20.24,13.474,32.527,13.474c11.06,0,21.516-3.888,29.832-10.998c5.624,3.421,11.387,6.544,17.285,9.356L137.044,492    H77.096c-5.523,0-10,4.477-10,10s4.477,10,10,10h66.585c0.017,0,0.034,0.002,0.051,0.002c0.011,0,0.022-0.002,0.033-0.002h107.352    c5.523,0,10-4.477,10-10s-4.477-10-10-10h-92.441l32.616-79.095c6.215,2.2,12.555,4.077,19.003,5.636    c1.905,23.627,21.727,42.274,45.836,42.274c24.108,0,43.931-18.647,45.836-42.273c6.408-1.55,12.711-3.409,18.891-5.593    L353.462,492H323.12c-5.523,0-10,4.477-10,10s4.477,10,10,10h45.254c0.011,0,0.022,0.002,0.033,0.002    c0.017,0,0.034-0.002,0.051-0.002h66.13c5.523,0,10-4.477,10-10s-4.477-10-10-10h-59.491l-35.757-86.702    c6.056-2.882,11.973-6.088,17.741-9.612c8.247,6.882,18.539,10.634,29.411,10.634c12.287,0,23.839-4.785,32.527-13.473    c16.933-16.933,17.87-43.888,2.829-61.942c10.478-17.152,18.135-35.635,22.843-55.132c23.231-2.295,41.442-21.946,41.442-45.773    C486.133,206.174,467.923,186.523,444.69,184.227z M386.489,90.105h-23.997c3.927-9.387,13.204-16,23.998-16    c14.336,0,26,11.664,26,26s-11.664,26-26,26c-6.737,0-12.882-2.576-17.506-6.794l-2.082-2.137    c-1.824-2.091-3.323-4.472-4.41-7.069h23.997c5.523,0,10-4.477,10-10S392.012,90.105,386.489,90.105z M361.469,138.675    c7.208,4.692,15.798,7.43,25.02,7.43c7.01,0,13.656-1.583,19.607-4.399c8.319,14.085,14.55,29.157,18.595,44.968    c-12.952,4.63-23.238,14.908-27.876,27.856l-28.409-3.537c-3.438-20.399-12.31-38.973-25.075-54.18L361.469,138.675z     M277.73,138.54c13.853,3.291,26.526,9.656,37.26,18.332l-31.105,31.105L277.73,138.54z M282.594,320.163    c-1.604,0.474-3.225,0.908-4.863,1.297l1.251-10.054L282.594,320.163z M329.132,171.014c8.699,10.764,15.076,23.477,18.358,37.375    l-49.562-6.17L329.132,171.014z M297.918,257.782l49.573-6.171c-3.283,13.9-9.661,26.615-18.363,37.381L297.918,257.782z     M314.984,303.133c-4.342,3.509-8.999,6.642-13.926,9.344l-16.332-39.602L314.984,303.133z M293.565,238.17    c0.573-2.635,0.882-5.366,0.882-8.17s-0.309-5.535-0.882-8.17l56.422,7.024c0.005,0.382,0.015,0.763,0.015,1.146    s-0.01,0.764-0.015,1.146L293.565,238.17z M299.461,61.434c16.015,4.096,31.26,10.433,45.498,18.911    c-2.862,5.99-4.468,12.69-4.468,19.76c0,8.916,2.558,17.243,6.968,24.3l-18.266,18.266    c-15.179-12.742-33.712-21.606-54.066-25.058l-3.523-28.297C284.553,84.677,294.832,74.389,299.461,61.434z M256,248.446    c-10.171,0-18.446-8.275-18.446-18.446s8.275-18.446,18.446-18.446c10.171,0,18.446,8.275,18.446,18.446    S266.172,248.446,256,248.446z M264.289,267.535l-0.484,3.891c0,0.005-0.001,0.009-0.002,0.014l-6.542,52.543    c-0.419,0.007-0.838,0.017-1.26,0.017c-0.333,0-0.665-0.009-0.998-0.013l-7.02-56.389c2.588,0.551,5.268,0.847,8.018,0.847    C258.847,268.445,261.618,268.125,264.289,267.535z M247.984,192.401l7.02-56.389c0.332-0.003,0.664-0.012,0.997-0.012    c0.421,0,0.841,0.01,1.261,0.016l7.028,56.448c-2.671-0.589-5.442-0.91-8.288-0.91    C253.252,191.554,250.572,191.85,247.984,192.401z M256.002,36h-23.866c3.926-9.387,13.202-16,23.997-16c14.336,0,26,11.664,26,26    s-11.664,26-26,26c-10.794,0-20.071-6.613-23.997-16h23.866c5.523,0,10-4.477,10-10S261.525,36,256.002,36z M167.624,80.161    c14.153-8.389,29.292-14.656,45.183-18.72c4.631,12.952,14.909,23.237,27.856,27.875l-3.517,28.252    c-20.46,3.42-39.091,12.306-54.337,25.105L164.836,124.7C173.423,111.278,174.354,94.345,167.624,80.161z M228.351,188.215    l-31.341-31.341c10.805-8.734,23.574-15.128,37.533-18.4L228.351,188.215z M234.543,321.526c-1.691-0.396-3.364-0.842-5.019-1.329    l3.728-9.041L234.543,321.526z M218.429,221.864c-0.568,2.624-0.875,5.344-0.875,8.136s0.307,5.512,0.875,8.136l-56.414-7.023    c-0.004-0.371-0.014-0.741-0.014-1.113s0.01-0.742,0.014-1.113L218.429,221.864z M164.504,208.423    c3.28-13.909,9.659-26.633,18.364-37.406l31.231,31.232L164.504,208.423z M214.109,257.753l-31.236,31.236    c-8.707-10.774-15.089-23.5-18.369-37.412L214.109,257.753z M227.497,272.65l-16.448,39.886c-4.967-2.716-9.659-5.87-14.033-9.405    L227.497,272.65z M107.703,81.533c4.911-4.91,11.44-7.615,18.385-7.615c6.945,0,13.474,2.705,18.385,7.615    c9.555,9.555,10.1,24.756,1.643,34.96l-3.6,3.58c-4.627,3.786-10.369,5.845-16.427,5.845c-6.945,0-13.474-2.705-18.385-7.616    c-2.426-2.426-4.265-5.218-5.53-8.198h23.694c5.523,0,10-4.477,10-10s-4.477-10-10-10h-23.856    C103.279,86.983,105.177,84.061,107.703,81.533z M106.308,141.472c6.101,2.909,12.822,4.447,19.781,4.447    c8.837,0,17.287-2.487,24.571-7.109l18.007,18.007c-12.77,15.215-21.644,33.8-25.078,54.21l-28.393,3.535    c-4.604-12.883-14.794-23.131-27.644-27.806C91.618,170.82,97.9,155.651,106.308,141.472z M47.872,240h21.083    c5.523,0,10-4.477,10-10s-4.477-10-10-10H47.872c3.926-9.387,13.203-16,23.997-16c14.336,0,26,11.664,26,26s-11.664,26-26,26    C61.075,256,51.799,249.387,47.872,240z M144.083,379.282c-4.911,4.911-11.44,7.616-18.385,7.616    c-6.945,0-13.473-2.706-18.384-7.617c-2.444-2.443-4.34-5.288-5.63-8.385h26.448c5.523,0,10-4.477,10-10s-4.477-10-10-10h-26.448    c1.29-3.097,3.186-5.941,5.63-8.385c4.911-4.911,11.439-7.615,18.384-7.615c6.945,0,13.474,2.705,18.385,7.616    C154.22,352.649,154.22,369.144,144.083,379.282z M150.017,321.845c-7.227-4.519-15.584-6.949-24.319-6.949    c-6.698,0-13.174,1.432-19.091,4.134c-8.559-14.321-14.942-29.658-19.056-45.786c12.85-4.674,23.04-14.923,27.645-27.806    l28.393,3.535c3.434,20.413,12.31,39.001,25.083,54.217L150.017,321.845z M180.456,386.727c-4.364-2.113-8.647-4.411-12.842-6.899    c6.35-14.101,5.242-30.765-3.327-43.968l18.529-18.529c6.314,5.3,13.209,9.93,20.575,13.778L180.456,386.727z M213.08,398.631    c-4.788-1.216-9.505-2.636-14.148-4.249l22.93-55.606c4.958,1.559,10.062,2.783,15.283,3.656l3.615,29.034    C228.016,375.999,217.845,385.997,213.08,398.631z M256.133,440.815c-10.794,0-20.071-6.613-23.997-16h24.124    c5.523,0,10-4.477,10-10s-4.477-10-10-10h-24.124c3.926-9.387,13.203-16,23.997-16c14.336,0,26,11.664,26,26    S270.469,440.815,256.133,440.815z M299.185,398.629c-4.766-12.633-14.936-22.63-27.679-27.163l3.62-29.079    c5.168-0.877,10.221-2.099,15.129-3.648l22.965,55.683C308.612,396.02,303.932,397.424,299.185,398.629z M344.792,379.747    c-4.275,2.54-8.643,4.88-13.091,7.031l-22.982-55.724c7.325-3.837,14.182-8.445,20.466-13.719l18.422,18.422    C339.215,349.039,338.268,365.709,344.792,379.747z M404.875,378.705c-4.911,4.911-11.44,7.616-18.385,7.616    s-13.474-2.705-18.385-7.616c-2.32-2.32-4.102-4.975-5.36-7.808h23.745c5.523,0,10-4.477,10-10s-4.477-10-10-10h-24.224    c1.265-3.267,3.208-6.329,5.839-8.961c4.911-4.911,11.44-7.616,18.385-7.616s13.474,2.705,18.385,7.615    C415.012,352.073,415.012,368.567,404.875,378.705z M405.911,318.6c-6.005-2.8-12.599-4.28-19.422-4.28    c-8.924,0-17.455,2.536-24.788,7.247l-18.374-18.374c12.768-15.208,21.642-33.785,25.08-54.186l28.409-3.537    c4.638,12.948,14.923,23.226,27.875,27.856C420.619,289.262,414.328,304.426,405.911,318.6z M440.133,256    c-10.794,0-20.071-6.613-23.997-16h24.454c5.523,0,10-4.477,10-10s-4.477-10-10-10h-24.454c3.926-9.387,13.203-16,23.997-16    c14.336,0,26,11.664,26,26S454.469,256,440.133,256z" fill="#ffffff" data-original="#000000" style="" class=""/>
	</g>
</g>
<g xmlns="http://www.w3.org/2000/svg">
</g>
<g xmlns="http://www.w3.org/2000/svg">
</g>
<g xmlns="http://www.w3.org/2000/svg">
</g>
<g xmlns="http://www.w3.org/2000/svg">
</g>
<g xmlns="http://www.w3.org/2000/svg">
</g>
<g xmlns="http://www.w3.org/2000/svg">
</g>
<g xmlns="http://www.w3.org/2000/svg">
</g>
<g xmlns="http://www.w3.org/2000/svg">
</g>
<g xmlns="http://www.w3.org/2000/svg">
</g>
<g xmlns="http://www.w3.org/2000/svg">
</g>
<g xmlns="http://www.w3.org/2000/svg">
</g>
<g xmlns="http://www.w3.org/2000/svg">
</g>
<g xmlns="http://www.w3.org/2000/svg">
</g>
<g xmlns="http://www.w3.org/2000/svg">
</g>
<g xmlns="http://www.w3.org/2000/svg">
</g>
</g></svg>
