<?xml version="1.0"?>
<svg xmlns="http://www.w3.org/2000/svg" xmlns:xlink="http://www.w3.org/1999/xlink" xmlns:svgjs="http://svgjs.com/svgjs" version="1.1" width="512" height="512" x="0" y="0" viewBox="0 0 512.001 512.001" style="enable-background:new 0 0 512 512" xml:space="preserve" class=""><g>
<g xmlns="http://www.w3.org/2000/svg">
	<g>
		<path d="M188.615,254.411c-15.7-20.401-24.346-46.921-24.346-74.673c0-14.052,2.177-27.737,6.473-40.676    c1.738-5.24-1.1-10.897-6.339-12.636c-5.24-1.737-10.897,1.1-12.636,6.339c-4.969,14.974-7.489,30.779-7.489,46.974    c-0.001,32.139,10.118,62.988,28.492,86.866c1.969,2.559,4.933,3.901,7.93,3.901c2.127,0,4.272-0.677,6.089-2.074    C191.164,265.063,191.982,258.786,188.615,254.411z" fill="#ffffff" data-original="#000000" style=""/>
	</g>
</g>
<g xmlns="http://www.w3.org/2000/svg">
	<g>
		<path d="M183.459,94.823c-4.52-3.17-10.754-2.075-13.924,2.445l-0.237,0.338c-3.17,4.519-2.075,10.754,2.445,13.924    c1.746,1.224,3.749,1.812,5.731,1.812c3.149,0,6.248-1.483,8.193-4.257l0.237-0.338C189.074,104.227,187.98,97.993,183.459,94.823    z" fill="#ffffff" data-original="#000000" style=""/>
	</g>
</g>
<g xmlns="http://www.w3.org/2000/svg">
	<g>
		<path d="M63.363,179.689c-4.52-3.17-10.754-2.075-13.924,2.445l-0.237,0.338c-3.17,4.519-2.075,10.753,2.445,13.924    c1.746,1.225,3.749,1.812,5.731,1.812c3.149,0,6.248-1.483,8.193-4.257l0.237-0.338C68.977,189.094,67.883,182.859,63.363,179.689    z" fill="#ffffff" data-original="#000000" style=""/>
	</g>
</g>
<g xmlns="http://www.w3.org/2000/svg">
	<g>
		<path d="M69.821,307.914c-11.914-15.496-18.476-35.659-18.476-56.776c0-10.701,1.655-21.119,4.921-30.967    c1.737-5.24-1.102-10.897-6.342-12.634c-5.242-1.739-10.897,1.102-12.634,6.342c-3.94,11.881-5.937,24.418-5.937,37.26    c0,25.5,8.032,49.991,22.617,68.962c1.968,2.561,4.934,3.904,7.932,3.904c2.126,0,4.269-0.676,6.086-2.072    C72.365,318.567,73.186,312.29,69.821,307.914z" fill="#ffffff" data-original="#000000" style=""/>
	</g>
</g>
<g xmlns="http://www.w3.org/2000/svg">
	<g>
		<path d="M477.473,145.371c-20.148-21.497-47.436-34.129-77.449-36.02c-7.276-24.482-19.55-46.096-36.507-63.935    C335.736,16.186,297.517,0.09,255.902,0.09c-41.615,0-79.834,16.097-107.616,45.326c-16.951,17.835-29.223,39.442-36.5,63.915    c-30.091,1.825-57.414,14.483-77.521,36.071C11.849,169.469,0,202.208,0,240.077c0,37.959,12.489,76.773,34.265,106.489    c16.815,22.945,37.387,38.462,59.61,45.349l-5.125,18.049c-0.856,3.015-0.249,6.257,1.64,8.757s4.841,3.97,7.976,3.97h12.019    v79.224c0,5.521,4.475,9.996,9.996,9.996s9.996-4.475,9.996-9.996v-79.224h11.871c3.134,0,6.087-1.469,7.976-3.97    c1.889-2.5,2.497-5.742,1.64-8.757l-5.093-17.936c21.293-6.452,40.869-20.72,57.024-41.81c7.05,3.558,14.281,6.393,21.647,8.474    l-7.346,25.87c-0.856,3.015-0.249,6.257,1.64,8.757c1.889,2.5,4.841,3.97,7.976,3.97h18.192v104.627    c0,5.521,4.475,9.996,9.996,9.996s9.996-4.475,9.996-9.996V397.288h18.193c3.134,0,6.087-1.469,7.976-3.97    c1.889-2.5,2.497-5.742,1.64-8.757l-7.346-25.87c7.377-2.084,14.618-4.924,21.679-8.49c16.214,21.065,35.783,35.326,57.022,41.794    l-5.102,17.968c-0.856,3.015-0.249,6.256,1.64,8.757c1.889,2.5,4.841,3.97,7.976,3.97h11.945v79.224    c0,5.521,4.475,9.996,9.996,9.996c5.521,0,9.996-4.475,9.996-9.996V422.69h11.945c3.134,0,6.086-1.469,7.976-3.97    c1.889-2.5,2.497-5.742,1.64-8.757l-5.118-18.023c22.274-6.871,42.896-22.397,59.746-45.371    c21.797-29.717,34.298-68.532,34.298-106.493C512,202.22,500.061,169.47,477.473,145.371z M111.595,402.698l1.989-7.007    c2.256,0.174,4.522,0.271,6.796,0.271c2.229,0,4.447-0.087,6.654-0.25l1.984,6.986H111.595z M120.382,375.97    c-25.656,0-50.512-14.639-69.991-41.22c-19.319-26.364-30.398-60.871-30.398-94.673c0-60.511,35.209-104.246,86.991-110.271    c-2,11.425-3.023,23.354-3.023,35.721c0,48.176,15.859,97.43,43.511,135.13c11.741,16.008,24.921,29.139,39.087,39.157    C167.994,363.204,144.764,375.97,120.382,375.97z M240.942,377.295l4.224-14.876c3.56,0.347,7.139,0.53,10.735,0.53    c3.596,0,7.175-0.183,10.735-0.53l4.224,14.876H240.942z M255.902,342.958c-33.927,0-66.709-19.222-92.31-54.124    c-25.191-34.346-39.64-79.289-39.64-123.306c0-84.278,55.493-145.446,131.949-145.446S387.851,81.25,387.851,165.528    c0,44.017-14.448,88.96-39.64,123.306C322.611,323.736,289.828,342.958,255.902,342.958z M382.804,402.698l1.985-6.992    c2.231,0.166,4.473,0.257,6.726,0.257c2.25,0,4.491-0.095,6.724-0.265l1.988,7H382.804z M461.582,334.746    c-19.499,26.584-44.382,41.224-70.066,41.224c-24.326,0-47.57-12.77-66.241-36.177c14.154-10.015,27.324-23.139,39.057-39.136    c27.652-37.699,43.511-86.953,43.511-135.129c0-12.355-1.021-24.276-3.018-35.691c51.909,6.14,87.182,49.829,87.182,110.241    C492.008,273.878,480.918,308.383,461.582,334.746z" fill="#ffffff" data-original="#000000" style=""/>
	</g>
</g>
<g xmlns="http://www.w3.org/2000/svg">
</g>
<g xmlns="http://www.w3.org/2000/svg">
</g>
<g xmlns="http://www.w3.org/2000/svg">
</g>
<g xmlns="http://www.w3.org/2000/svg">
</g>
<g xmlns="http://www.w3.org/2000/svg">
</g>
<g xmlns="http://www.w3.org/2000/svg">
</g>
<g xmlns="http://www.w3.org/2000/svg">
</g>
<g xmlns="http://www.w3.org/2000/svg">
</g>
<g xmlns="http://www.w3.org/2000/svg">
</g>
<g xmlns="http://www.w3.org/2000/svg">
</g>
<g xmlns="http://www.w3.org/2000/svg">
</g>
<g xmlns="http://www.w3.org/2000/svg">
</g>
<g xmlns="http://www.w3.org/2000/svg">
</g>
<g xmlns="http://www.w3.org/2000/svg">
</g>
<g xmlns="http://www.w3.org/2000/svg">
</g>
</g></svg>
