<?xml version="1.0"?>
<svg xmlns="http://www.w3.org/2000/svg" xmlns:xlink="http://www.w3.org/1999/xlink" xmlns:svgjs="http://svgjs.com/svgjs" version="1.1" width="512" height="512" x="0" y="0" viewBox="0 0 512.001 512.001" style="enable-background:new 0 0 512 512" xml:space="preserve" class=""><g>
<g xmlns="http://www.w3.org/2000/svg">
	<g>
		<path d="M323.076,145.204c-1.798-3.059-5.079-4.933-8.62-4.933c-0.051,0-0.102,0-0.153,0.001    c-0.41,0.006-44.011,0.359-102.152-25.994c-5.029-2.281-10.953-0.051-13.233,4.978c-2.279,5.029-0.05,10.954,4.979,13.233    c40.809,18.497,74.899,24.691,94.063,26.756c-27.012,48.014-99.335,166.28-241.784,158.155    C-20.148,199.457,43.586,77.9,72.094,28.866c11.443,15.628,33.991,42.164,70.577,68.316c4.493,3.211,10.737,2.172,13.948-2.319    c3.21-4.492,2.172-10.737-2.319-13.948C102.47,43.869,80.489,5.52,80.282,5.152c-1.756-3.139-5.062-5.094-8.657-5.119    c-0.023,0-0.047,0-0.069,0c-3.57,0-6.871,1.905-8.658,4.999c-0.979,1.695-2.13,3.645-3.425,5.838    C46.444,32.935,19.336,78.848,6.732,136.357C-9.035,208.296,2.926,274.335,42.28,332.641c1.709,2.531,4.481,4.143,7.526,4.375    c7.032,0.537,13.901,0.796,20.621,0.795c151.035-0.004,223.842-130.799,248.47-175.045c1.624-2.917,3.025-5.437,4.216-7.498    C324.913,152.151,324.898,148.308,323.076,145.204z" fill="#ffffff" data-original="#000000" style="" class=""/>
	</g>
</g>
<g xmlns="http://www.w3.org/2000/svg">
	<g>
		<path d="M182.731,99.178l-0.43-0.249c-4.778-2.774-10.893-1.149-13.667,3.624c-2.773,4.776-1.151,10.895,3.623,13.668l0.518,0.298    c1.569,0.901,3.279,1.329,4.968,1.329c3.464,0,6.832-1.803,8.681-5.022C189.173,108.037,187.52,101.927,182.731,99.178z" fill="#ffffff" data-original="#000000" style="" class=""/>
	</g>
</g>
<g xmlns="http://www.w3.org/2000/svg">
	<g>
		<path d="M170.599,220.639c-4.357-4.103-10.893-4.671-15.891-1.386c-12.929,8.499-29.276,8.979-42.658,1.253    c-13.383-7.727-21.14-22.122-20.243-37.57c0.346-5.972-3.416-11.346-9.147-13.068c-5.695-1.714-11.752,0.682-14.746,5.837    c-0.021,0.037-0.043,0.074-0.064,0.111c-16.713,28.95-6.759,66.1,22.19,82.814c9.342,5.394,19.707,8.148,30.213,8.148    c5.266,0,10.568-0.693,15.789-2.092c15.642-4.191,28.715-14.223,36.811-28.245l0.075-0.129    C175.886,231.159,174.928,224.714,170.599,220.639z M100.038,241.312c-8.996-5.194-15.255-13.332-18.265-22.502    c5.081,7.661,11.95,14.202,20.279,19.011c8.354,4.823,17.477,7.503,26.681,8.061C118.911,247.967,108.8,246.37,100.038,241.312z" fill="#ffffff" data-original="#000000" style="" class=""/>
	</g>
</g>
<g xmlns="http://www.w3.org/2000/svg">
	<g>
		<path d="M134.272,145.287c-6.513-24.301-31.577-38.773-55.882-32.264c-5.334,1.429-8.499,6.911-7.069,12.245    c1.431,5.334,6.912,8.501,12.245,7.069c13.655-3.658,27.735,4.473,31.393,18.125c1.197,4.467,5.236,7.412,9.651,7.412    c0.856,0,1.728-0.111,2.594-0.343C132.537,156.103,135.702,150.621,134.272,145.287z" fill="#ffffff" data-original="#000000" style="" class=""/>
	</g>
</g>
<g xmlns="http://www.w3.org/2000/svg">
	<g>
		<path d="M221.96,195.914c-6.511-24.301-31.58-38.773-55.882-32.264c-5.334,1.429-8.499,6.911-7.069,12.245    c1.43,5.334,6.913,8.499,12.245,7.069c13.655-3.66,27.735,4.473,31.393,18.125c1.197,4.467,5.236,7.412,9.651,7.412    c0.856,0,1.728-0.111,2.594-0.343C220.224,206.729,223.39,201.247,221.96,195.914z" fill="#ffffff" data-original="#000000" style="" class=""/>
	</g>
</g>
<g xmlns="http://www.w3.org/2000/svg">
	<g>
		<path d="M452.286,186.813c-1.715-2.865-3.195-5.34-4.386-7.401c-1.8-3.117-5.172-5.06-8.734-4.999    c-3.6,0.027-6.905,1.988-8.657,5.132c-0.208,0.373-21.348,37.684-72.341,74.572c-4.474,3.236-5.477,9.487-2.24,13.96    c3.237,4.474,9.487,5.477,13.961,2.241c35.643-25.784,57.649-51.759,68.88-67.133c28.075,47.4,94.318,169.175,16.075,288.469    C314.529,498.767,241.131,382.801,212.922,333.6c19.144-2.085,53.114-8.283,93.742-26.641c5.031-2.273,7.267-8.196,4.994-13.227    c-2.274-5.033-8.198-7.268-13.228-4.994c-57.664,26.057-101.542,25.917-101.951,25.914c-0.046,0-0.092-0.001-0.139-0.001    c-3.543,0-6.826,1.877-8.623,4.939c-1.819,3.102-1.833,6.942-0.034,10.058c0.979,1.696,2.093,3.668,3.344,5.887    c12.596,22.315,38.804,68.748,82.306,108.418c49.552,45.185,106.361,68.015,169.105,68.015c6.161,0,12.38-0.22,18.655-0.661    c3.046-0.214,5.828-1.81,7.552-4.33C562.103,370.307,479.448,232.196,452.286,186.813z" fill="#ffffff" data-original="#000000" style="" class=""/>
	</g>
</g>
<g xmlns="http://www.w3.org/2000/svg">
	<g>
		<path d="M342.351,276.885c-2.747-4.789-8.853-6.445-13.647-3.697l-0.277,0.16c-4.79,2.748-6.445,8.859-3.697,13.648    c1.849,3.221,5.217,5.024,8.682,5.024c1.687,0,3.396-0.428,4.966-1.328l0.277-0.16    C343.444,287.785,345.099,281.675,342.351,276.885z" fill="#ffffff" data-original="#000000" style="" class=""/>
	</g>
</g>
<g xmlns="http://www.w3.org/2000/svg">
	<g>
		<path d="M467,391.582c-0.034-0.059-0.068-0.117-0.104-0.175c-8.099-13.999-21.159-24.013-36.783-28.201    c-15.638-4.19-31.978-2.041-46.002,6.057c-14.024,8.095-24.054,21.169-28.245,36.81s-2.041,31.979,6.049,45.989l0.083,0.142    c2.338,4.027,6.565,6.369,11.026,6.369c1.229,0,2.478-0.178,3.708-0.548c5.731-1.723,9.493-7.096,9.147-13.07    c-0.896-15.446,6.86-29.842,20.243-37.568c13.382-7.726,29.726-7.248,42.658,1.253c4.998,3.286,11.534,2.715,15.892-1.387    C469,403.178,469.957,396.734,467,391.582z M396.124,390.07c-8.352,4.823-15.236,11.385-20.321,19.074    c3.108-9.549,9.544-17.506,18.307-22.565c6.261-3.614,13.208-5.461,20.248-5.461c2.812,0,5.643,0.295,8.446,0.89    C413.604,382.568,404.476,385.248,396.124,390.07z" fill="#ffffff" data-original="#000000" style="" class=""/>
	</g>
</g>
<g xmlns="http://www.w3.org/2000/svg">
	<g>
		<path d="M466.892,391.397c0.002,0.003,0.003,0.006,0.005,0.009c0.009,0.016,0.02,0.03,0.028,0.046L466.892,391.397z" fill="#ffffff" data-original="#000000" style="" class=""/>
	</g>
</g>
<g xmlns="http://www.w3.org/2000/svg">
	<g>
		<path d="M432.523,287.336c-5.335-1.431-10.815,1.737-12.244,7.069c-1.772,6.613-6.014,12.14-11.942,15.563    c-5.929,3.422-12.836,4.332-19.451,2.56c-5.338-1.43-10.814,1.737-12.244,7.069c-1.43,5.334,1.736,10.816,7.069,12.245    c3.93,1.054,7.919,1.575,11.882,1.575c7.906,0,15.709-2.073,22.74-6.133c10.556-6.094,18.105-15.933,21.259-27.706    C441.023,294.247,437.857,288.764,432.523,287.336z" fill="#ffffff" data-original="#000000" style="" class=""/>
	</g>
</g>
<g xmlns="http://www.w3.org/2000/svg">
	<g>
		<path d="M344.837,337.962c-5.338-1.43-10.816,1.737-12.245,7.069c-1.772,6.613-6.014,12.14-11.942,15.563    s-12.836,4.332-19.451,2.56c-5.335-1.43-10.815,1.737-12.244,7.069c-1.43,5.334,1.736,10.815,7.069,12.245    c3.931,1.054,7.92,1.575,11.883,1.575c7.906,0,15.709-2.074,22.74-6.133c10.556-6.094,18.105-15.933,21.259-27.706    C353.336,344.873,350.171,339.391,344.837,337.962z" fill="#ffffff" data-original="#000000" style="" class=""/>
	</g>
</g>
<g xmlns="http://www.w3.org/2000/svg">
</g>
<g xmlns="http://www.w3.org/2000/svg">
</g>
<g xmlns="http://www.w3.org/2000/svg">
</g>
<g xmlns="http://www.w3.org/2000/svg">
</g>
<g xmlns="http://www.w3.org/2000/svg">
</g>
<g xmlns="http://www.w3.org/2000/svg">
</g>
<g xmlns="http://www.w3.org/2000/svg">
</g>
<g xmlns="http://www.w3.org/2000/svg">
</g>
<g xmlns="http://www.w3.org/2000/svg">
</g>
<g xmlns="http://www.w3.org/2000/svg">
</g>
<g xmlns="http://www.w3.org/2000/svg">
</g>
<g xmlns="http://www.w3.org/2000/svg">
</g>
<g xmlns="http://www.w3.org/2000/svg">
</g>
<g xmlns="http://www.w3.org/2000/svg">
</g>
<g xmlns="http://www.w3.org/2000/svg">
</g>
</g></svg>
