<?xml version="1.0"?>
<svg xmlns="http://www.w3.org/2000/svg" xmlns:xlink="http://www.w3.org/1999/xlink" xmlns:svgjs="http://svgjs.com/svgjs" version="1.1" width="512" height="512" x="0" y="0" viewBox="0 0 512 512" style="enable-background:new 0 0 512 512" xml:space="preserve" class=""><g><g xmlns="http://www.w3.org/2000/svg"><g><path d="m254.229 367.512h50.484c5.522 0 10-4.477 10-10s-4.478-10-10-10h-40.484v-48.353c4.228 1.892 8.91 2.954 13.839 2.954 9.292 0 17.722-3.744 23.843-9.793 6.127 6.049 14.563 9.793 23.863 9.793 9.29 0 17.718-3.742 23.839-9.789 6.121 6.047 14.549 9.789 23.839 9.789 9.292 0 17.722-3.744 23.843-9.793 6.127 6.049 14.563 9.793 23.863 9.793 4.929 0 9.611-1.062 13.839-2.954v48.353h-40.483c-5.522 0-10 4.477-10 10s4.478 10 10 10h50.483c5.522 0 10-4.477 10-10v-118.172c0-5.523-4.478-10-10-10h-190.768c-5.523 0-10 4.477-10 10v118.172c0 5.523 4.477 10 10 10zm71.544-85.398c-7.646 0-13.867-6.122-13.867-13.646v-19.128h27.706v19.128c0 7.524-6.208 13.646-13.839 13.646zm47.678 0c-7.631 0-13.839-6.122-13.839-13.646v-19.128h27.678v19.128c0 7.524-6.208 13.646-13.839 13.646zm61.545-13.646c0 7.524-6.208 13.646-13.839 13.646-7.646 0-13.867-6.122-13.867-13.646v-19.128h27.706zm-170.767-19.128h27.678v19.128c0 7.524-6.208 13.646-13.839 13.646s-13.839-6.122-13.839-13.646z" fill="#ef5fa2" data-original="#000000" style="" class=""/><path d="m496.977 412.459v-200.111c0-13.607-11.111-24.677-24.769-24.677h-117.046v-41.659h22.938c4.127 0 7.83-2.535 9.323-6.383 1.492-3.848.468-8.217-2.579-11l-91.113-83.225c1.531-7.817.737-15.908-2.388-23.014-3.73-8.48-10.399-14.928-18.771-18.152-11.653-4.502-24.809-2.097-34.816 6.047-30.795-3.211-60.484 14.487-71.889 43.535-11.444 29.065-1.668 62.049 23.207 80.406 1.087 7.504 4.344 14.26 9.206 19.478v33.967h-125.863c-16.908 0-30.664 13.681-30.664 30.497 0 16.8 13.756 30.469 30.664 30.469h29.958l-42.899 79.531h-8.886c-19.628 0-35.596 15.875-35.596 35.389v48.907c-8.816 3.847-14.994 12.611-14.994 22.789v10.769c0 13.715 11.213 24.873 24.995 24.873h58.751c7.753 22.756 28.7 39.11 53.272 39.11s45.519-16.354 53.272-39.11h143.441c7.757 22.756 28.714 39.11 53.299 39.11 24.572 0 45.519-16.354 53.272-39.11h46.675c13.798 0 25.023-11.158 25.023-24.873v-10.769c0-10.182-6.19-18.95-15.023-22.794zm-221.768-340.378c3.497-2.101 6.67-4.785 9.393-7.928l67.723 61.86h-92.07c.131-4.11-.371-8.184-1.5-12.052 7.113-3.92 12.77-10.214 15.804-17.972 3.068-7.783 3.205-16.232.65-23.908zm-90.729-10.942c7.479-19.048 26.023-31.228 46.065-31.228 2.9 0 5.832.255 8.765.781 3.352.604 6.777-.544 9.094-3.039 4.695-5.057 11.351-6.927 16.97-4.754 4.321 1.664 6.551 5.021 7.661 7.543 1.943 4.419 1.959 9.754.052 14.643-.026.07-.06.137-.084.208-2.51 6.229-7.733 10.729-13.676 11.757-3.533.611-6.469 3.067-7.693 6.438-1.225 3.37-.551 7.138 1.765 9.875 3.612 4.268 4.59 10.125 2.544 15.314-2.027 5.182-6.782 8.854-12.409 9.583-3.554.46-6.59 2.787-7.958 6.099s-.859 7.103 1.334 9.938c3.674 4.749 4.421 11.602 1.946 17.889-3.648 9.282-13.073 14.332-21.009 11.26-5.556-2.153-9.157-7.961-9.175-14.798-.009-3.43-1.775-6.615-4.678-8.44-19.868-12.487-28.075-37.326-19.514-59.069zm33.8 102.907c1.439.188 2.881.284 4.32.284 12.417 0 24.528-6.888 31.587-18.317h80.975v41.659h-116.882zm-47.36 84.591c5.255 0 9.53 4.204 9.53 9.372v60.787c0 5.168-4.275 9.372-9.53 9.372h-88.719l42.899-79.531zm-120.329 99.531h14.854 105.475c16.283 0 29.53-13.176 29.53-29.372v-60.787c0-16.196-13.247-29.372-29.53-29.372h-98.503c-5.88 0-10.664-4.696-10.664-10.469 0-5.788 4.784-10.497 10.664-10.497h113.243 286.548c2.585 0 4.769 2.142 4.769 4.677v198.032h-49.749c-10.25-10.77-24.482-17.46-40.198-17.46-15.724 0-29.964 6.691-40.219 17.46h-169.595c-10.25-10.77-24.482-17.46-40.198-17.46s-29.948 6.691-40.198 17.46h-61.825v-21.106h28.267c5.523 0 10-4.477 10-10s-4.477-10-10-10h-28.267v-5.717c0-8.485 6.997-15.389 15.596-15.389zm279.936 102.727h-137.035c-.065-7.225-1.403-14.136-3.788-20.515h144.612c-2.385 6.379-3.723 13.29-3.789 20.515zm-310.527-4.873v-10.769c0-2.642 2.288-4.874 4.995-4.874h59.337c-2.384 6.379-3.722 13.29-3.788 20.515h-55.549c-2.707.001-4.995-2.23-4.995-4.872zm117.018 43.983c-20.119 0-36.487-17.296-36.487-38.557 0-21.245 16.368-38.529 36.487-38.529s36.487 17.284 36.487 38.529c0 21.261-16.368 38.557-36.487 38.557zm250.011 0c-20.135 0-36.516-17.296-36.516-38.557 0-21.245 16.381-38.529 36.516-38.529 20.119 0 36.487 17.284 36.487 38.529.001 21.261-16.368 38.557-36.487 38.557zm104.971-43.983c0 2.642-2.301 4.873-5.023 4.873h-43.474c-.065-7.225-1.403-14.136-3.787-20.515h47.261c2.723 0 5.023 2.232 5.023 4.874z" fill="#ef5fa2" data-original="#000000" style="" class=""/><path d="m136.99 441.448c-5.523 0-10 4.477-10 10s4.477 10 10 10h.057c5.523 0 9.972-4.477 9.972-10s-4.506-10-10.029-10z" fill="#ef5fa2" data-original="#000000" style="" class=""/><path d="m387.001 441.448c-5.522 0-10 4.477-10 10s4.478 10 10 10h.028c5.522 0 9.985-4.477 9.985-10s-4.491-10-10.013-10z" fill="#ef5fa2" data-original="#000000" style="" class=""/><path d="m349.612 347.512c-5.522 0-10 4.477-10 10s4.478 10 10 10h.028c5.522 0 9.985-4.477 9.985-10s-4.49-10-10.013-10z" fill="#ef5fa2" data-original="#000000" style="" class=""/></g></g></g></svg>
