<?xml version="1.0"?>
<svg xmlns="http://www.w3.org/2000/svg" xmlns:xlink="http://www.w3.org/1999/xlink" xmlns:svgjs="http://svgjs.com/svgjs" version="1.1" width="512" height="512" x="0" y="0" viewBox="0 0 511.995 511.995" style="enable-background:new 0 0 512 512" xml:space="preserve" class=""><g>
<g xmlns="http://www.w3.org/2000/svg">
	<g>
		<path d="M501.989,437.97H282.646c0.226-1.557,0.348-3.134,0.348-4.721c0-16.533-12.245-30.259-28.142-32.588    c-7.829-12.448-21.583-20.204-36.574-20.204c-4.448,0-8.764,0.694-12.85,1.963l-9.468-44.52    c11.164-3.528,21.777-8.501,31.734-14.872c4.831,3.004,10.333,4.514,15.838,4.514c0.825,0,1.65-0.041,2.472-0.108l-0.013,55.515    c-0.001,5.523,4.475,10.001,9.998,10.002c0.001,0,0.001,0,0.002,0c5.521,0,9.999-4.476,10-9.998l0.014-57.534    c15.467-0.79,29.164-3.385,41.497-7.234l-0.012,64.764c-0.001,5.523,4.475,10.001,9.998,10.002c0.001,0,0.001,0,0.001,0    c5.522,0,10-4.476,10-9.998l0.013-72.525c15.76-7.362,29.174-16.647,41.497-26.148v98.671c0,5.522,4.464,10,9.987,10.001    c5.522,0,10.014-4.477,10.014-9.999V268.332c13.753-11.017,26.758-20.804,41.498-26.722l-0.013,141.341    c0,5.523,4.476,10,9.999,10.001c5.523,0,10-4.477,10-9.999l0.013-146.595c3.377-0.432,6.863-0.669,10.49-0.669    c17.856,0,27.26,6.125,31.009,9.396l-0.014,137.867c0,5.523,4.476,10,9.999,10.001c0,0,0,0,0.001,0c5.522,0,10-4.477,10-9.999    l0.015-141.851c0-2.169-0.698-4.171-1.871-5.81c-0.085-0.119-0.215-0.296-0.386-0.516c-0.01-0.013-0.02-0.027-0.03-0.039    c-2.802-3.595-16.709-19.048-48.722-19.048c-38.618,0-63.605,20.166-90.059,41.514c-26.408,21.313-53.636,43.258-98.316,47.67    c1.941-7.77,0.733-16.167-3.613-23.154c8.561-13.382,14.595-27.934,17.992-43.403c13.263-3.099,23.173-15.014,23.173-29.206    c0-14.194-9.912-26.108-23.174-29.207c-3.397-15.463-9.43-30.02-17.99-43.404c7.195-11.571,5.781-27.01-4.259-37.05    c-10.035-10.04-25.474-11.453-37.045-4.259c-13.359-8.54-27.93-14.579-43.403-17.987c-3.098-13.265-15.013-23.177-29.207-23.177    c-14.193,0-26.107,9.911-29.206,23.172c-15.504,3.411-30.061,9.445-43.41,17.988c-11.571-7.19-27.006-5.775-37.045,4.263    c-10.039,10.04-11.453,25.478-4.259,37.05c-8.461,13.278-14.586,28.071-17.981,43.403C9.917,182.997,0,194.912,0,209.109    c0,14.195,9.913,26.109,23.177,29.207c3.4,15.472,9.432,30.026,17.989,43.401c-6.006,9.658-6.009,22.008-0.007,31.667    C17.731,317.989,0,338.674,0,363.431c0,24.704,17.656,45.358,41.01,50.02v24.519H10c-5.523,0-10,4.477-10,10    c0,5.523,4.477,10,10,10h491.99c5.523,0,10-4.477,10-10C511.989,442.447,507.512,437.97,501.989,437.97z M280.169,199.109    c5.514,0,10,4.486,10,10s-4.486,10-10,10c-5.514,0-10-4.486-10-10S274.655,199.109,280.169,199.109z M29.999,219.109    c-5.514,0-10-4.486-10-10s4.486-10,10-10c5.514,0,10,4.486,10,10S35.513,219.109,29.999,219.109z M215.16,307.284    c-10.298,6.331-21.394,10.936-33.13,13.74c-3.437-7.004-9.524-12.477-16.947-15.109v-61.191c2.856-0.803,5.573-1.939,8.107-3.367    l43.274,43.274C213.079,291.737,212.644,299.905,215.16,307.284z M93.704,284.632l43.275-43.275    c2.533,1.428,5.25,2.564,8.106,3.367v61.191c-7.422,2.632-13.509,8.105-16.947,15.108c-11.734-2.803-22.831-7.406-33.131-13.737    C97.524,299.907,97.089,291.738,93.704,284.632z M155.084,324.195c5.514,0,10,4.486,10,10s-4.486,10-10,10s-10-4.486-10-10    S149.57,324.195,155.084,324.195z M155.084,226.109c-9.374,0-17-7.626-17-17s7.626-17,17-17s17,7.626,17,17    S164.457,226.109,155.084,226.109z M250.604,304.628c-1.889,1.889-4.4,2.929-7.071,2.929s-5.183-1.04-7.071-2.929    c-1.889-1.889-2.929-4.4-2.929-7.071c0-2.671,1.04-5.182,2.929-7.071c1.95-1.95,4.51-2.924,7.071-2.924    c2.561,0,5.122,0.975,7.071,2.924c1.889,1.889,2.929,4.4,2.929,7.071S252.493,302.74,250.604,304.628z M253.263,269.187    c-7.379-2.517-15.549-2.082-22.656,1.303l-43.275-43.274c1.428-2.533,2.564-5.25,3.367-8.107h61.19    c2.632,7.421,8.104,13.508,15.106,16.945C264.193,247.783,259.597,258.881,253.263,269.187z M236.462,113.59    c1.888-1.889,4.4-2.929,7.071-2.929s5.182,1.04,7.071,2.929c1.889,1.889,2.929,4.4,2.929,7.071c0,2.671-1.04,5.182-2.929,7.071    c-1.889,1.889-4.4,2.929-7.071,2.929s-5.182-1.04-7.071-2.929s-2.929-4.4-2.929-7.071    C233.533,117.99,234.573,115.479,236.462,113.59z M230.607,147.727c4.076,1.941,8.499,2.918,12.925,2.918    c3.294,0.001,6.586-0.541,9.734-1.615c6.334,10.307,10.928,21.409,13.729,33.134c-7.002,3.438-12.474,9.524-15.106,16.945h-61.19    c-0.803-2.856-1.939-5.573-3.367-8.107L230.607,147.727z M182.027,97.2c11.733,2.808,22.844,7.407,33.135,13.728    c-2.519,7.38-2.083,15.551,1.302,22.659l-43.275,43.275c-2.533-1.428-5.25-2.564-8.106-3.367v-61.191    C172.504,109.672,178.59,104.201,182.027,97.2z M155.084,74.025c5.514,0,10,4.486,10,10c0,5.514-4.486,10-10,10s-10-4.486-10-10    C145.084,78.511,149.57,74.025,155.084,74.025z M95.006,110.929c10.283-6.322,21.383-10.919,33.135-13.728    c3.438,7.001,9.523,12.471,16.943,15.103v61.19c-2.856,0.803-5.573,1.939-8.107,3.367l-43.274-43.275    C97.088,126.479,97.524,118.309,95.006,110.929z M59.566,113.59c1.889-1.889,4.4-2.929,7.071-2.929    c2.671,0,5.182,1.04,7.071,2.929c1.889,1.889,2.929,4.4,2.929,7.071c0,2.671-1.04,5.182-2.929,7.071    c-1.889,1.889-4.4,2.929-7.071,2.929c-2.33,0-4.537-0.792-6.317-2.248c-0.009-0.008-0.019-0.015-0.028-0.022    c-0.251-0.207-0.494-0.426-0.726-0.659c-1.889-1.889-2.929-4.4-2.929-7.071C56.637,117.99,57.677,115.479,59.566,113.59z     M56.919,149.036c3.144,1.07,6.43,1.61,9.718,1.61c4.426,0,8.85-0.977,12.926-2.918l43.274,43.275    c-1.428,2.533-2.564,5.25-3.367,8.107H58.279c-2.632-7.42-8.102-13.506-15.102-16.943    C45.983,170.523,50.651,159.282,56.919,149.036z M58.279,219.109h61.19c0.803,2.856,1.939,5.573,3.367,8.106L79.56,270.49    c-7.106-3.385-15.276-3.82-22.656-1.303c-6.332-10.302-10.933-21.4-13.735-33.132C50.174,232.617,55.647,226.531,58.279,219.109z     M76.635,297.557c0.001,2.671-1.039,5.183-2.929,7.071c-1.889,1.889-4.4,2.929-7.071,2.929c-2.671,0-5.182-1.04-7.071-2.929    c-1.889-1.889-2.929-4.4-2.929-7.071c0-2.671,1.04-5.182,2.929-7.071c1.95-1.95,4.51-2.924,7.071-2.924    c2.561,0,5.122,0.975,7.071,2.924C75.595,292.375,76.635,294.886,76.635,297.557z M51.011,366.04l-9.9-9.9    c-3.905-3.906-10.237-3.905-14.142,0s-3.906,10.237,0,14.142l14.042,14.043v8.453C28.804,388.606,20,377.031,20,363.431    c0-17.099,13.911-31.009,31.01-31.009c17.099,0,31.009,13.911,31.009,31.009c0,13.601-8.805,25.175-21.01,29.346v-8.454    L73.833,371.5c3.905-3.905,3.905-10.237,0-14.142s-10.237-3.905-14.142,0L51.011,366.04z M61.01,437.97v-24.519    c23.354-4.662,41.009-25.314,41.009-50.019c0-16.357-7.748-30.929-19.757-40.27c0.071-0.044,0.142-0.089,0.213-0.133    c9.959,6.371,20.572,11.346,31.732,14.874L92.926,437.97H61.01z M142.974,437.97h-29.6l18.133-85.262    c5.498,6.986,14.02,11.486,23.578,11.486s18.082-4.5,23.578-11.486l8.678,40.803c-2.166,2.224-4.116,4.676-5.776,7.355    c-1.974-0.366-3.984-0.553-6.003-0.553c-18.162,0-32.936,14.775-32.936,32.936C142.626,434.836,142.748,436.413,142.974,437.97z     M262.113,437.97h-98.606c-0.523-1.329-0.882-2.903-0.882-4.721c0-7.133,5.804-12.937,12.937-12.937    c2.239,0,4.36,0.552,6.304,1.641c2.604,1.458,5.723,1.677,8.507,0.598c2.783-1.081,4.937-3.347,5.875-6.181    c3.149-9.519,12.003-15.914,22.031-15.914c9.216,0,17.563,5.46,21.266,13.912c1.679,3.833,5.574,6.215,9.746,5.97    c0.255-0.015,0.511-0.026,0.769-0.026c7.133,0,12.937,5.804,12.937,12.937C262.995,435.067,262.636,436.641,262.113,437.97z" fill="#ffffff" data-original="#000000" style=""/>
	</g>
</g>
<g xmlns="http://www.w3.org/2000/svg">
	<g>
		<path d="M474.512,77.356c-8.139-14.193-23.476-23.331-40.102-23.331c-16.626,0-31.962,9.137-40.101,23.331    c-17.565,1.349-32.04,13.976-36.242,30.668h-29.33c-5.523,0-10,4.477-10,10s4.478,10,10.001,10h38.096c5.523,0,10-4.477,10-10    c0-11.463,9.241-20.789,20.6-20.789c0.678,0,1.401,0.038,2.149,0.114c4.5,0.455,8.742-2.168,10.35-6.395    c3.852-10.126,13.689-16.93,24.479-16.93c10.792,0,20.629,6.804,24.48,16.93c1.607,4.226,5.844,6.843,10.35,6.395    c0.748-0.076,1.47-0.114,2.147-0.114c7.771,0,14.55,4.363,18.058,10.789h-58.263c-5.523,0-10,4.477-10,10s4.477,10,10,10h70.807    c5.523,0,10-4.477,10-10C511.989,96.588,495.446,78.963,474.512,77.356z" fill="#ffffff" data-original="#000000" style=""/>
	</g>
</g>
<g xmlns="http://www.w3.org/2000/svg">
	<g>
		<path d="M400.098,108.024h-0.103c-5.523,0-10,4.477-10,10s4.477,10,10,10h0.103c5.523,0,10-4.477,10-10    C410.098,112.501,405.621,108.024,400.098,108.024z" fill="#ffffff" data-original="#000000" style=""/>
	</g>
</g>
<g xmlns="http://www.w3.org/2000/svg">
	<g>
		<path d="M501.958,405.303c-5.523,0-10,4.477-10,10v0.131c0,5.523,4.477,10,10,10c5.523,0,10-4.477,10-10v-0.131    C511.958,409.78,507.481,405.303,501.958,405.303z" fill="#ffffff" data-original="#000000" style=""/>
	</g>
</g>
<g xmlns="http://www.w3.org/2000/svg">
	<g>
		<path d="M440.46,405.303c-5.523,0-10,4.477-10,10v0.131c0,5.523,4.477,10,10,10s10-4.477,10-10v-0.131    C450.459,409.78,445.982,405.303,440.46,405.303z" fill="#ffffff" data-original="#000000" style=""/>
	</g>
</g>
<g xmlns="http://www.w3.org/2000/svg">
	<g>
		<path d="M378.961,405.303c-5.523,0-10,4.477-10,10v0.131c0,5.523,4.477,10,10,10s10-4.477,10-10v-0.131    C388.961,409.78,384.484,405.303,378.961,405.303z" fill="#ffffff" data-original="#000000" style=""/>
	</g>
</g>
<g xmlns="http://www.w3.org/2000/svg">
	<g>
		<path d="M317.462,405.303c-5.523,0-10,4.477-10,10v0.131c0,5.523,4.477,10,10,10s10-4.477,10-10v-0.131    C327.462,409.78,322.985,405.303,317.462,405.303z" fill="#ffffff" data-original="#000000" style=""/>
	</g>
</g>
<g xmlns="http://www.w3.org/2000/svg">
</g>
<g xmlns="http://www.w3.org/2000/svg">
</g>
<g xmlns="http://www.w3.org/2000/svg">
</g>
<g xmlns="http://www.w3.org/2000/svg">
</g>
<g xmlns="http://www.w3.org/2000/svg">
</g>
<g xmlns="http://www.w3.org/2000/svg">
</g>
<g xmlns="http://www.w3.org/2000/svg">
</g>
<g xmlns="http://www.w3.org/2000/svg">
</g>
<g xmlns="http://www.w3.org/2000/svg">
</g>
<g xmlns="http://www.w3.org/2000/svg">
</g>
<g xmlns="http://www.w3.org/2000/svg">
</g>
<g xmlns="http://www.w3.org/2000/svg">
</g>
<g xmlns="http://www.w3.org/2000/svg">
</g>
<g xmlns="http://www.w3.org/2000/svg">
</g>
<g xmlns="http://www.w3.org/2000/svg">
</g>
</g></svg>
